<svg width="1440" height="619" viewBox="0 0 1440 619" fill="none" xmlns="http://www.w3.org/2000/svg">
<path d="M1472.79 480.002C1472.12 454.021 1468.27 433.34 1462.06 416.692C1452.16 390.107 1436.27 373.811 1417.72 362.676C1414.89 360.976 1412 359.386 1409.06 357.906C1407.84 357.296 1406.61 356.699 1405.37 356.114C1399.92 353.547 1394.31 351.301 1388.64 349.258C1385.7 348.189 1382.73 347.176 1379.75 346.22C1378.61 345.864 1377.46 345.507 1376.32 345.151C1366.44 342.028 1356.49 339.268 1346.86 336.305C1343.35 335.236 1339.88 334.116 1336.46 332.947C1333.17 331.824 1329.94 330.652 1326.78 329.406C1321.23 327.249 1315.83 324.717 1310.62 321.828C1310.28 321.646 1309.95 321.454 1309.62 321.261C1308.21 320.455 1306.83 319.612 1305.46 318.731C1297.09 313.33 1289.75 306.64 1283.92 297.949C1283.61 297.489 1283.3 297.024 1283.01 296.553C1282.21 295.312 1281.43 294.034 1280.72 292.719C1276.13 284.397 1272.77 274.444 1270.95 262.352C1270.19 257.186 1269.71 251.979 1269.53 246.757C1266.26 161.146 1180.15 -33.4807 942.331 6.09488C931.749 7.8526 920.868 10.0881 909.689 12.8013C903.557 14.2667 897.332 15.8943 891.014 17.6841C697.731 72.4803 745.979 162.531 472.759 117.73C462.355 116.022 451.474 114.118 440.116 112.018C436.448 111.33 432.729 110.63 428.959 109.917C358.44 96.4075 164.089 92.482 23.9827 235.639C20.564 239.126 17.2909 242.652 14.1635 246.217C9.48121 251.544 5.09373 256.951 1.00109 262.438C0.695717 262.844 0.395615 263.256 0.0955124 263.663C-5.18553 270.846 -10.0786 278.316 -14.5622 286.039C-16.3172 289.041 -17.9879 292.055 -19.5744 295.082C-20.9784 297.735 -22.3192 300.398 -23.5969 303.072C-28.4111 313.095 -32.5484 323.439 -35.9801 334.032C-36.733 336.364 -37.4596 338.701 -38.144 341.044C-38.6424 342.741 -39.1233 344.44 -39.5866 346.14C-40.1868 348.349 -40.7502 350.558 -41.2977 352.777C-41.661 354.301 -42.019 355.831 -42.3507 357.36C-42.5789 358.355 -42.793 359.346 -42.9931 360.334C-43.6178 363.218 -44.1882 366.105 -44.7042 368.992C-45.7256 374.676 -46.5697 380.38 -47.2366 386.106C-48.2686 394.599 -48.9162 403.097 -49.1794 411.6C-49.3093 415.294 -49.3725 418.988 -49.3689 422.682C-49.3689 488.425 -30.0991 552.345 -9.78685 601.472C-8.03186 605.676 -6.28915 609.765 -4.55873 613.741C-4.26915 614.409 -3.97431 615.067 -3.69001 615.73C-3.33199 616.533 -2.97923 617.335 -2.63701 618.126H0.0481262C0.0481262 618.164 0.0797195 618.19 0.0902481 618.228L0.185017 618.447V618.126H1455.95C1456.28 616.656 1456.59 615.19 1456.91 613.741C1469.02 557.95 1473.67 514.337 1472.79 480.002Z" fill="#EBF3FA"/>
<path d="M1462.05 416.676C1452.14 390.09 1436.25 373.795 1417.71 362.66C1414.88 360.96 1411.99 359.369 1409.05 357.89C1407.83 357.28 1406.6 356.683 1405.36 356.098C1399.91 353.531 1394.3 351.285 1388.63 349.242L1376.31 345.113C1366.43 341.99 1356.48 339.23 1346.85 336.268C1343.34 335.198 1339.87 334.078 1336.45 332.909C1333.16 331.786 1329.93 330.615 1326.77 329.369C1321.22 327.211 1315.82 324.68 1310.61 321.79C1310.27 321.609 1309.94 321.416 1309.61 321.224C1308.2 320.418 1306.82 319.575 1305.45 318.694C1297.08 313.292 1289.74 306.602 1283.91 297.911C1283.6 297.451 1283.29 296.986 1283 296.515C1282.2 295.275 1281.42 293.997 1280.71 292.681C1276.12 284.359 1272.76 274.407 1270.94 262.315H1232.51V316.811H1205.27V330.551H1175.9V306.896H1123.09V242.645H1114.83V236.227H1113.65V242.645H1106.8H1072.53V236.243H1071.35V242.629H1062.4V274.947L1018.02 274.765V294.708H980.413V171.419H868.943V303.516H834.9V232.082H723.43V618.126H1454.61C1454.82 617.089 1455.03 616.056 1455.25 615.03L1455.51 613.741C1456.37 609.598 1457.19 605.508 1457.97 601.472C1467.45 552.869 1472.05 512.935 1472.78 479.986C1472.11 454.005 1468.26 433.324 1462.05 416.676Z" fill="#DFEBFA"/>
<path d="M723.53 618.126V613.741V316.218H723.43H669.29H667.547V613.741V618.126H673.486H723.43H723.53Z" fill="#DFEBFA"/>
<path d="M1248.16 236.869H1246.11V262.764H1248.16V236.869Z" fill="#DFEBFA"/>
<path d="M877.678 162.189H876.346V171.425H877.678V162.189Z" fill="#DFEBFA"/>
<path d="M905.893 162.189H904.561V171.425H905.893V162.189Z" fill="#DFEBFA"/>
<path d="M970.584 162.189H969.252V171.425H970.584V162.189Z" fill="#DFEBFA"/>
<path d="M945.296 162.189H943.964V171.425H945.296V162.189Z" fill="#DFEBFA"/>
<path d="M673.423 613.741L669.29 316.213L668.663 271H639.243V211.637L637.879 210.925H629.102V210.899H578.074V210.925H578.032V219.819H578.074V225.97H578.032V234.863H578.074V241.003H578.032V249.875H578.074V249.913L572.662 249.875V203.315H515.395V209.198V218.092V225.97V234.863V241.003V249.875V255.56V264.476V270.161V279.06V284.408V290.061V290.681H450.862V341.621H426.748V354.457H400.729V332.337H353.955V272.31H346.642V266.326H345.589V272.31H339.523H309.186V266.326H308.134V272.294H300.236V302.49L260.944 302.318V320.956H227.627V205.77H128.94V329.187H98.798V262.438H0.106018V618.228L0.200788 618.447V618.126H673.481L673.423 613.741Z" fill="#DFEBFA"/>
<path d="M0.179707 341.049V618.447L0.084938 618.228C0.084938 618.19 0.0533447 618.164 0.0428162 618.126C-0.567921 616.682 -1.17866 615.217 -1.78939 613.741C-23.5706 561.212 -46.8997 488.019 -49.1742 411.584C-48.721 397.292 -47.2375 383.053 -44.7358 368.982C-43.0498 359.55 -40.8562 350.22 -38.1651 341.033L0.179707 341.049Z" fill="#DFEBFA"/>
<path d="M227.632 205.765H154.333V225.29H227.632V205.765Z" fill="#EEF6FF"/>
<path d="M227.632 235.821H154.333V255.346H227.632V235.821Z" fill="#EEF6FF"/>
<path d="M227.632 266.502H154.333V286.028H227.632V266.502Z" fill="#EEF6FF"/>
<path d="M227.632 297.671H154.333V317.197H227.632V297.671Z" fill="#EEF6FF"/>
<path d="M227.632 327.743H154.333V347.269H227.632V327.743Z" fill="#EEF6FF"/>
<path d="M552.06 203.32H515.411V215.177H552.06V203.32Z" fill="#EEF6FF"/>
<path d="M552.06 221.573H515.411V233.43H552.06V221.573Z" fill="#EEF6FF"/>
<path d="M552.06 240.206H515.411V252.063H552.06V240.206Z" fill="#EEF6FF"/>
<path d="M552.06 259.138H515.411V270.995H552.06V259.138Z" fill="#EEF6FF"/>
<path d="M552.06 277.402H515.411V289.258H552.06V277.402Z" fill="#EEF6FF"/>
<path d="M552.06 297.505H515.411V309.362H552.06V297.505Z" fill="#EEF6FF"/>
<path d="M552.06 315.753H515.411V327.609H552.06V315.753Z" fill="#EEF6FF"/>
<path d="M552.06 334.385H515.411V346.242H552.06V334.385Z" fill="#EEF6FF"/>
<path d="M552.06 353.318H515.411V365.174H552.06V353.318Z" fill="#EEF6FF"/>
<path d="M552.06 371.581H515.411V383.438H552.06V371.581Z" fill="#EEF6FF"/>
<path d="M614.792 211.096H578.143V222.953H614.792V211.096Z" fill="#EEF6FF"/>
<path d="M614.792 229.349H578.143V241.206H614.792V229.349Z" fill="#EEF6FF"/>
<path d="M614.792 247.982H578.143V259.839H614.792V247.982Z" fill="#EEF6FF"/>
<path d="M614.792 266.914H578.143V278.771H614.792V266.914Z" fill="#EEF6FF"/>
<path d="M614.792 285.178H578.143V297.034H614.792V285.178Z" fill="#EEF6FF"/>
<path d="M464.682 266.914H462.866V291.109H464.682V266.914Z" fill="#DFEBFA"/>
<path d="M496.335 246.137H493.508V292.991H496.335V246.137Z" fill="#DFEBFA"/>
<path d="M136.674 197.138H135.495V205.764H136.674V197.138Z" fill="#DFEBFA"/>
<path d="M161.657 197.138H160.477V205.764H161.657V197.138Z" fill="#DFEBFA"/>
<path d="M218.929 197.138H217.75V205.764H218.929V197.138Z" fill="#DFEBFA"/>
<path d="M521.992 196.662H521.081V203.321H521.992V196.662Z" fill="#DFEBFA"/>
<path d="M564.985 196.662H564.075V203.321H564.985V196.662Z" fill="#DFEBFA"/>
<path d="M196.537 197.138H195.358V205.764H196.537V197.138Z" fill="#DFEBFA"/>
<path d="M942.285 182.928H869.501V197.983H942.285V182.928Z" fill="#EEF6FF"/>
<path d="M942.285 206.101H869.501V221.156H942.285V206.101Z" fill="#EEF6FF"/>
<path d="M942.285 229.756H869.501V244.811H942.285V229.756Z" fill="#EEF6FF"/>
<path d="M942.285 253.79H869.501V268.845H942.285V253.79Z" fill="#EEF6FF"/>
<path d="M942.285 276.979H869.501V292.034H942.285V276.979Z" fill="#EEF6FF"/>
<g opacity="0.4">
<path opacity="0.4" d="M834.679 239.062H758.763V256.636H834.679V239.062Z" fill="#EEF6FF"/>
<path opacity="0.4" d="M834.679 266.112H758.763V283.686H834.679V266.112Z" fill="#EEF6FF"/>
<path opacity="0.4" d="M834.679 293.724H758.763V311.298H834.679V293.724Z" fill="#EEF6FF"/>
<path opacity="0.4" d="M834.679 321.775H758.763V339.348H834.679V321.775Z" fill="#EEF6FF"/>
<path opacity="0.4" d="M834.679 348.841H758.763V366.415H834.679V348.841Z" fill="#EEF6FF"/>
</g>
<path d="M1457.97 601.472C1457.19 605.501 1456.37 609.591 1455.51 613.741L1455.25 615.03H1450.98L971.974 615.72H-3.69008C-3.97439 615.057 -4.26923 614.399 -4.5588 613.73C-6.3138 609.758 -8.0565 605.669 -9.78693 601.462L1457.97 601.472Z" fill="#AFCDFB"/>
<path d="M391.283 105.087V606.441H374.962V104.13L391.283 105.087Z" fill="#D4E4F8"/>
<path d="M983.904 1.3728V606.441H967.577V2.67773L983.904 1.3728Z" fill="#D4E4F8"/>
<path d="M118.884 604.104C117.418 604.103 115.987 603.646 114.785 602.794C113.583 601.942 112.667 600.736 112.161 599.339L42.3996 407.124C41.7667 405.319 41.8604 403.332 42.6604 401.596C43.4605 399.861 44.9022 398.515 46.6728 397.853C48.4433 397.19 50.3996 397.264 52.1171 398.057C53.8346 398.851 55.1747 400.301 55.8463 402.092L125.607 594.306C125.933 595.202 126.081 596.155 126.044 597.11C126.007 598.065 125.785 599.003 125.391 599.871C124.997 600.738 124.439 601.519 123.748 602.167C123.057 602.815 122.247 603.319 121.364 603.649C120.571 603.951 119.731 604.105 118.884 604.104Z" fill="#94B0ED"/>
<path d="M171.929 604.104C170.463 604.103 169.032 603.645 167.83 602.793C166.628 601.941 165.712 600.736 165.205 599.339L95.439 407.124C94.806 405.319 94.8998 403.332 95.6998 401.596C96.4998 399.861 97.9416 398.515 99.7121 397.853C101.483 397.19 103.439 397.264 105.157 398.057C106.874 398.851 108.214 400.301 108.886 402.092L178.662 594.306C179.318 596.117 179.239 598.119 178.442 599.871C177.646 601.623 176.197 602.982 174.414 603.649C173.619 603.951 172.777 604.105 171.929 604.104Z" fill="#94B0ED"/>
<path d="M117.336 439.555L61.0692 444.652L44.3003 404.611L103.716 402.423L117.336 439.555Z" fill="#94B0ED"/>
<path d="M408.463 614.297H76.8378C73.7991 614.289 70.8873 613.059 68.7386 610.876C66.5899 608.693 65.3791 605.736 65.3707 602.649C65.3791 599.562 66.5897 596.603 68.7383 594.42C70.8868 592.237 73.7987 591.005 76.8378 590.996H408.463C411.502 591.005 414.414 592.237 416.563 594.42C418.711 596.603 419.922 599.562 419.93 602.649C419.922 605.736 418.711 608.693 416.562 610.876C414.414 613.059 411.502 614.289 408.463 614.297Z" fill="#94B0ED"/>
<path d="M159.266 474.504H71.1042C70.7174 474.521 70.3313 474.458 69.969 474.319C69.6067 474.181 69.2759 473.969 68.9963 473.697C68.7167 473.425 68.4943 473.098 68.3423 472.736C68.1903 472.375 68.1119 471.985 68.1119 471.592C68.1119 471.199 68.1903 470.81 68.3423 470.448C68.4943 470.086 68.7167 469.759 68.9963 469.487C69.2759 469.215 69.6067 469.004 69.969 468.865C70.3313 468.726 70.7174 468.663 71.1042 468.68H158.993L177.462 465.027H123.428C123.041 465.044 122.655 464.981 122.292 464.843C121.93 464.704 121.599 464.492 121.32 464.22C121.04 463.948 120.818 463.621 120.666 463.26C120.514 462.898 120.435 462.509 120.435 462.115C120.435 461.722 120.514 461.333 120.666 460.971C120.818 460.61 121.04 460.283 121.32 460.011C121.599 459.739 121.93 459.527 122.292 459.388C122.655 459.249 123.041 459.187 123.428 459.203H207.293C208.001 459.215 208.679 459.491 209.198 459.979C209.717 460.468 210.04 461.133 210.105 461.849C210.171 462.564 209.973 463.279 209.552 463.856C209.13 464.432 208.513 464.831 207.82 464.974L159.793 474.44C159.62 474.478 159.443 474.5 159.266 474.504Z" fill="#94B0ED"/>
<path d="M1398.78 312.185L1379.08 565.443L1378.95 567.117C1378.45 573.263 1375.58 578.959 1370.96 582.962C1366.34 586.965 1360.35 588.949 1354.3 588.482L1308.83 584.829C1302.78 584.324 1297.17 581.408 1293.23 576.716C1289.29 572.024 1287.34 565.939 1287.8 559.79L1307.65 304.864C1308.14 298.714 1311.01 293.011 1315.63 289.003C1320.25 284.995 1326.24 283.006 1332.3 283.472L1353.17 285.151L1377.76 287.13C1383.81 287.636 1389.42 290.556 1393.36 295.251C1397.3 299.946 1399.25 306.035 1398.78 312.185Z" fill="#AEC3FF"/>
<path d="M1393.7 565.774V603.334C1393.7 606.321 1392.52 609.183 1390.44 611.296C1388.36 613.408 1385.55 614.599 1382.61 614.607H1283.84C1280.9 614.597 1278.09 613.406 1276.01 611.294C1273.93 609.182 1272.76 606.32 1272.75 603.334V565.774C1272.76 562.787 1273.93 559.925 1276.01 557.813C1278.09 555.701 1280.9 554.51 1283.84 554.5H1382.61C1385.55 554.509 1388.36 555.699 1390.44 557.812C1392.52 559.924 1393.7 562.787 1393.7 565.774Z" fill="#94B0ED"/>
<path opacity="0.6" d="M1398.78 312.186L1379.08 565.443C1365.49 563.656 1352.97 554.501 1352.97 554.501C1352.97 554.501 1367.61 369.372 1371.75 327.898C1375.04 294.906 1359.64 287.018 1353.17 285.172L1377.76 287.151C1383.81 287.658 1389.42 290.574 1393.35 295.265C1397.29 299.955 1399.25 306.038 1398.78 312.186Z" fill="#94B0ED"/>
<path d="M919.924 554.105H857.181C854.875 554.105 853.006 556.003 853.006 558.346V610.751C853.006 613.093 854.875 614.992 857.181 614.992H919.924C922.23 614.992 924.099 613.093 924.099 610.751V558.346C924.099 556.003 922.23 554.105 919.924 554.105Z" fill="#EF7E29"/>
<path d="M947.581 554.11H884.838C882.532 554.11 880.663 556.009 880.663 558.351V610.757C880.663 613.099 882.532 614.998 884.838 614.998H947.581C949.887 614.998 951.756 613.099 951.756 610.757V558.351C951.756 556.009 949.887 554.11 947.581 554.11Z" fill="#F99746"/>
<path d="M881.179 450.053C879.036 454.037 873.697 456.348 867.385 458.075C866.684 458.273 865.968 458.466 865.242 458.647C854.185 461.45 839.365 459.84 835.074 465.68C830.303 472.173 824.628 506.261 824.628 506.261C817.783 509.026 817.873 507.673 817.873 507.673C815.767 498.458 815.614 470.435 816.114 462.717C816.678 453.85 834.61 441.405 850.031 432.298C861.814 425.345 872.144 420.318 872.144 420.318C872.465 420.382 872.781 420.457 873.087 420.537C886.665 424.051 887.076 439.074 881.179 450.053Z" fill="#FFB27D"/>
<path d="M873.071 420.548C871.618 432.95 869.27 451.278 867.385 458.086C866.684 458.283 865.968 458.476 865.242 458.658C865.242 458.649 865.242 458.64 865.242 458.631C863.136 445.63 852.348 434.565 850.037 432.308C861.82 425.356 872.149 420.328 872.149 420.328C872.45 420.393 872.765 420.467 873.071 420.548Z" fill="#EF7E29"/>
<path d="M891.224 412.734C891.224 412.734 874.956 430.864 861.851 431.784C863.04 428.259 864.855 424.986 867.206 422.126C866.548 421.019 865.953 419.986 865.41 419.002C863.743 416.094 862.251 413.087 860.94 409.996L871.439 392C871.681 392.663 871.928 393.305 872.192 393.931C872.732 395.231 873.346 396.499 874.029 397.728C874.35 398.305 874.677 398.862 875.019 399.396C881.716 410.066 891.224 412.734 891.224 412.734Z" fill="#FFB27D"/>
<path d="M865.41 419.002C863.743 416.094 862.251 413.087 860.94 409.996L871.439 392C871.681 392.663 871.928 393.305 872.192 393.931C873.318 398.535 874.745 409.739 865.41 419.002Z" fill="#F4A671"/>
<path d="M858.85 412.568C858.85 412.568 877.399 402.632 871.128 390.994C864.857 379.357 863.025 370.239 850.921 376.089C838.817 381.94 838.927 387.652 840.091 392.053C841.255 396.455 853.864 414.852 858.85 412.568Z" fill="#FFB27D"/>
<path d="M871.534 391.797C871.534 391.797 860.735 378.068 844.05 387.411C832.62 393.829 832.315 380.277 832.467 377.988C832.467 377.988 841.465 373.448 850.847 369.03C870.549 359.757 871.786 388.342 871.534 391.797Z" fill="#2C3A64"/>
<path d="M893.062 515.834C892.613 515.482 892.264 515.015 892.051 514.481C891.846 513.812 882.158 513.946 861.62 456.888C858.045 446.967 860.43 432.019 863.973 425.671L866.605 421.232C870.996 420.756 875.635 418.515 879.32 414.927C880.306 413.99 881.486 413.29 882.774 412.879C885.535 412.075 888.456 412.027 891.24 412.74C904.992 417.606 915.67 437.645 923.104 467.193C927.748 485.815 934.16 496.961 938.546 513.048C939.98 518.331 941.077 523.703 941.831 529.129C942.611 534.595 900.333 522.364 893.062 515.834Z" fill="#FFB27D"/>
<path d="M897.148 540.435C892.262 541.098 885.154 541.104 877.346 540.874C856.091 540.237 829.435 537.788 827.855 542.061C817.662 569.946 780.997 591.862 780.365 602.205C780.481 602.879 771.051 597.75 771.352 597.536C771.352 597.536 774.332 596.274 803.915 514.54C806.632 507.053 837.501 504.181 856.181 502.667C868.111 501.694 877.415 501.32 877.415 501.32C877.415 501.32 890.145 499.18 903.181 500.09C916.217 500.999 915.338 537.975 897.148 540.435Z" fill="#F4A671"/>
<path d="M817.873 507.684C817.873 507.684 827.108 511.069 831.035 509.08C834.963 507.09 831.52 501.929 828.887 501.929C826.255 501.929 820.49 502.031 817.873 507.684Z" fill="#FFB27D"/>
<path d="M902.302 540.435C897.411 541.098 890.308 541.104 882.5 540.874C884.406 534.606 889.44 523.311 882.026 514.941C882.026 514.941 873.96 503.678 867.479 501.844C879.404 500.87 882.595 501.309 882.595 501.309C882.595 501.309 895.331 499.17 908.362 500.073C921.393 500.977 920.498 537.975 902.302 540.435Z" fill="#213F7A"/>
<path d="M938.53 513.042L938.314 513.229L893.062 515.834C892.613 515.482 892.264 515.015 892.051 514.481C892.02 514.374 891.751 514.288 891.24 513.994C889.798 513.165 886.418 510.662 880.989 501.341C876.172 493.083 869.749 479.462 861.62 456.888C858.045 446.962 860.43 432.019 863.973 425.671C864.889 426.101 865.891 426.313 866.9 426.289C867.909 426.266 868.9 426.009 869.796 425.537C877.604 421.692 890.682 412.563 891.225 412.74C904.977 417.606 915.654 437.645 923.093 467.193C927.727 485.81 934.145 496.955 938.53 513.042Z" fill="#F99746"/>
<path d="M911.737 456.599L889.561 477.745L876.009 456.546L880.989 501.336C886.418 510.657 889.798 513.16 891.24 513.989C903.776 514.711 921.967 514.422 923.425 506.86C925.663 495.244 911.737 456.599 911.737 456.599Z" fill="#EF7E29"/>
<path d="M931.423 552.634C890.735 562.48 852.722 538.039 851.311 545.019C846.941 566.635 824.854 597.964 824.338 601.708C824.259 602.243 814.598 603.098 814.598 603.098C814.598 603.098 824.117 526.739 832.167 516.85C840.475 506.641 915.201 510.748 915.201 510.748C944.343 504.881 949.503 548.259 931.423 552.634Z" fill="#FFB27D"/>
<path d="M883.643 509.893C883.643 509.893 903.529 530.804 905.756 532.889C907.983 534.975 916.433 534.2 916.433 534.2C916.433 534.2 907.167 535.446 907.167 537.066C907.167 538.687 913.059 555.886 915.27 555.886C917.481 555.886 933.918 554.891 937.846 552.896C941.774 550.902 946.928 528.713 938.952 511.01L932.539 495.309C932.539 495.309 923.425 508.796 883.643 509.893Z" fill="#213F7A"/>
<path d="M883.996 476.558C882.179 469.675 874.998 465.653 867.959 467.568C866.219 468.041 864.589 468.859 863.162 469.975L860.388 472.018L860.725 472.456C859.543 474 858.727 475.801 858.342 477.717C857.957 479.633 858.012 481.614 858.503 483.505C860.319 490.388 867.501 494.41 874.54 492.495C874.982 492.372 875.409 492.233 875.83 492.073L876.151 492.49L879.31 490.126C881.328 488.592 882.851 486.483 883.685 484.067C884.52 481.65 884.628 479.037 883.996 476.558Z" fill="#94B0ED"/>
<path d="M855.87 485.447C854.054 478.564 858.287 471.429 865.347 469.515C872.408 467.6 879.563 471.622 881.39 478.505C883.217 485.388 878.968 492.522 871.913 494.437C864.858 496.351 857.687 492.33 855.87 485.447Z" fill="#AEC3FF"/>
<path d="M871.07 481.863C871 481.426 870.835 481.009 870.587 480.645C870.34 480.28 870.015 479.975 869.637 479.754C869.259 479.532 868.837 479.399 868.402 479.363C867.967 479.327 867.53 479.39 867.122 479.548C866.321 479.847 845.098 493.335 845.098 493.335L849.642 499.047L870.233 484.115C870.55 483.843 870.793 483.493 870.939 483.099C871.086 482.705 871.131 482.28 871.07 481.863Z" fill="#789CDD"/>
<path d="M912.669 509.491C903.092 519.209 859.166 491.538 859.166 491.538L864.136 482.751L892.788 489.548C885.9 479.278 880.265 468.196 876.009 456.545C871.539 444.325 870.217 435.945 870.217 435.945C867.764 425.971 889.387 413.349 899.917 423.478C903.429 426.858 907.088 436.474 910.041 448.149C915.933 471.472 919.05 502.999 912.669 509.491Z" fill="#FFB27D"/>
<path d="M908.646 443.01C898.511 445.432 878.472 450.871 876.003 456.546C876.003 456.546 894.704 448.39 912.963 461.717L908.646 443.01Z" fill="#F4A671"/>
<path d="M910.031 448.149C890.714 446.315 878.02 455.053 876.009 456.546C871.539 444.325 870.217 435.945 870.217 435.945C867.764 425.971 889.387 413.349 899.917 423.478C903.418 426.858 907.077 436.474 910.031 448.149Z" fill="#F99746"/>
<path d="M782.334 614.693H777.317C775.632 614.426 774.389 613.934 772.668 613.704C770.035 613.351 768.84 614.442 768.603 614.693C768.584 614.708 768.568 614.726 768.556 614.747H747.222C746.696 613.966 747.222 612.163 747.707 610.837C747.876 610.392 748.144 609.994 748.49 609.672C748.836 609.35 749.251 609.113 749.702 608.981C751.966 608.318 756.425 607.725 760.511 603.97C762.806 601.863 771.604 596.216 771.604 596.216H771.652C771.841 596.216 772.763 596.504 776.764 599.959C778.833 601.729 782.361 597.456 782.361 597.456C782.844 597.91 783.236 598.455 783.514 599.061C784.014 600.091 784.175 601.257 783.972 602.387C783.656 604.339 784.682 607.965 785.498 610.409C786.025 611.896 786.415 612.955 786.415 612.955C786.415 612.955 786.657 614.148 782.334 614.693Z" fill="#2C3A64"/>
<path d="M826.923 614.693H821.627C819.852 614.41 818.542 613.885 816.725 613.623C813.961 613.254 812.687 614.404 812.434 614.693L812.387 614.747H789.895C789.326 613.923 789.895 612.024 790.421 610.623C790.6 610.154 790.883 609.734 791.248 609.395C791.614 609.057 792.051 608.809 792.527 608.671C794.912 607.965 799.619 607.339 803.926 603.382C806.348 601.157 815.625 595.205 815.625 595.205H815.672C815.877 595.205 816.846 595.51 821.069 599.13C823.248 600.997 826.965 596.494 826.965 596.494C827.478 596.966 827.893 597.536 828.187 598.173C828.71 599.261 828.878 600.49 828.666 601.681C828.334 603.74 829.414 607.564 830.277 610.153C830.804 611.72 831.246 612.827 831.246 612.827C831.246 612.827 831.478 614.115 826.923 614.693Z" fill="#2C3A64"/>
<path d="M867.795 488.907C865.816 481.42 858.008 477.045 850.347 479.131C848.454 479.642 846.681 480.531 845.13 481.746L842.113 483.971L842.481 484.446C841.195 486.125 840.307 488.083 839.887 490.167C839.467 492.252 839.526 494.406 840.06 496.464C842.039 503.951 849.847 508.331 857.508 506.245C857.987 506.111 858.455 505.962 858.908 505.785L859.261 506.24L862.678 503.667C864.876 502 866.537 499.707 867.448 497.078C868.36 494.45 868.48 491.605 867.795 488.907Z" fill="#94B0ED"/>
<path d="M837.201 498.581C835.221 491.094 839.833 483.329 847.488 481.243C855.144 479.157 862.957 483.537 864.931 491.025C866.906 498.512 862.299 506.272 854.644 508.358C846.988 510.443 839.175 506.069 837.201 498.581Z" fill="#AEC3FF"/>
<path d="M855.617 492.993C855.451 492.406 855.172 491.859 854.797 491.382C854.422 490.905 853.959 490.507 853.433 490.212C852.906 489.917 852.328 489.731 851.731 489.662C851.134 489.594 850.53 489.647 849.952 489.816C849.338 489.985 848.763 490.274 848.257 490.666L847.278 491.388L847.399 491.543C846.98 492.088 846.692 492.723 846.556 493.399C846.42 494.076 846.44 494.775 846.614 495.442C846.78 496.028 847.058 496.576 847.433 497.053C847.807 497.53 848.27 497.927 848.796 498.222C849.322 498.517 849.899 498.704 850.496 498.772C851.093 498.84 851.697 498.788 852.274 498.619C852.429 498.578 852.582 498.528 852.732 498.469L852.843 498.619L853.954 497.785C854.667 497.243 855.206 496.498 855.502 495.645C855.798 494.792 855.838 493.869 855.617 492.993Z" fill="#94B0ED"/>
<path d="M845.682 496.132C845.408 495.229 845.405 494.264 845.674 493.36C845.944 492.455 846.473 491.654 847.194 491.057C847.916 490.461 848.796 490.097 849.723 490.013C850.649 489.928 851.579 490.127 852.393 490.584C853.208 491.041 853.869 491.734 854.292 492.575C854.716 493.417 854.882 494.367 854.77 495.305C854.657 496.243 854.271 497.125 853.661 497.839C853.052 498.552 852.246 499.064 851.348 499.309C850.77 499.479 850.165 499.532 849.568 499.464C848.971 499.396 848.392 499.21 847.866 498.914C847.34 498.619 846.876 498.222 846.501 497.744C846.127 497.267 845.848 496.719 845.682 496.132Z" fill="#CADAFF"/>
<path d="M970.184 606.617C972.848 600.029 969.547 592.402 962.813 589.589C961.146 588.879 959.355 588.515 957.548 588.52L954.12 588.434V588.969C952.256 589.474 950.533 590.411 949.084 591.705C947.636 592.999 946.501 594.616 945.77 596.429C943.1 603.018 946.402 610.644 953.141 613.457C953.557 613.633 953.983 613.786 954.415 613.917V614.452L958.327 614.511C960.852 614.541 963.328 613.806 965.44 612.4C967.552 610.994 969.203 608.981 970.184 606.617Z" fill="#94B0ED"/>
<path d="M942.516 596.354C945.18 589.76 952.809 586.728 959.554 589.514C966.298 592.3 969.594 599.953 966.925 606.542C964.255 613.131 956.631 616.195 949.887 613.382C943.143 610.569 939.847 602.943 942.516 596.354Z" fill="#AEC3FF"/>
<path d="M956.742 602.868C956.947 602.477 957.064 602.044 957.085 601.601C957.106 601.158 957.029 600.715 956.861 600.306C956.692 599.896 956.437 599.53 956.112 599.233C955.787 598.937 955.402 598.717 954.983 598.59C954.167 598.333 929.243 595.98 929.243 595.98L929.443 603.318L954.715 604.136C955.131 604.117 955.535 603.99 955.89 603.769C956.244 603.547 956.538 603.237 956.742 602.868Z" fill="#7A9EDD"/>
<path d="M949.929 606.451C952.83 599.28 949.234 590.985 941.9 587.926C940.09 587.163 938.147 586.778 936.188 586.792L932.46 586.696V587.305C930.434 587.847 928.559 588.856 926.98 590.254C925.401 591.651 924.161 593.401 923.357 595.365C920.456 602.531 924.052 610.826 931.386 613.891C931.844 614.083 932.307 614.249 932.771 614.393V614.966L937.025 615.03C939.771 615.064 942.466 614.267 944.764 612.739C947.063 611.211 948.861 609.022 949.929 606.451Z" fill="#94B0ED"/>
<path d="M919.829 595.285C922.73 588.113 931.028 584.781 938.362 587.84C945.696 590.899 949.292 599.2 946.391 606.371C943.49 613.543 935.193 616.869 927.858 613.81C920.524 610.751 916.928 602.473 919.829 595.285Z" fill="#AEC3FF"/>
<path d="M937.809 602.189C938.026 601.619 938.129 601.011 938.114 600.4C938.099 599.789 937.965 599.187 937.72 598.629C937.476 598.07 937.125 597.566 936.689 597.146C936.252 596.725 935.739 596.396 935.177 596.178C934.588 595.929 933.956 595.803 933.318 595.809L932.113 595.776V595.974C931.455 596.15 930.847 596.477 930.334 596.931C929.822 597.384 929.42 597.952 929.159 598.59C928.942 599.16 928.838 599.769 928.852 600.38C928.867 600.992 929.001 601.594 929.245 602.153C929.49 602.712 929.841 603.216 930.278 603.637C930.714 604.058 931.229 604.388 931.791 604.606C931.937 604.669 932.087 604.723 932.239 604.767V604.954H933.618C934.508 604.966 935.381 604.709 936.127 604.217C936.873 603.725 937.458 603.019 937.809 602.189Z" fill="#94B0ED"/>
<path d="M928.037 598.563C928.356 597.676 928.928 596.906 929.681 596.352C930.433 595.797 931.331 595.484 932.26 595.452C933.189 595.419 934.106 595.67 934.894 596.171C935.682 596.671 936.305 597.4 936.682 598.263C937.06 599.126 937.175 600.083 937.013 601.013C936.851 601.943 936.419 602.802 935.773 603.481C935.127 604.159 934.296 604.627 933.387 604.823C932.478 605.018 931.532 604.934 930.67 604.58C930.108 604.361 929.593 604.032 929.156 603.611C928.719 603.19 928.369 602.685 928.124 602.127C927.879 601.568 927.746 600.965 927.731 600.354C927.716 599.742 927.82 599.134 928.037 598.563Z" fill="#CADAFF"/>
<path d="M505.744 440.245C507.002 432.105 514.773 426.58 523.118 427.912C525.171 428.242 527.139 428.98 528.91 430.083L532.348 432.089L532.011 432.624C533.557 434.251 534.712 436.218 535.387 438.373C536.062 440.528 536.238 442.812 535.902 445.047C534.638 453.187 526.867 458.706 518.527 457.374C518.001 457.294 517.474 457.182 516.995 457.054L516.674 457.588L512.778 455.257C510.273 453.744 508.266 451.51 507.014 448.837C505.761 446.164 505.319 443.173 505.744 440.245Z" fill="#EF7E29"/>
<path d="M539.15 446.972C540.414 438.833 534.686 431.153 526.362 429.821C518.038 428.49 510.261 434.014 508.987 442.154C507.713 450.294 513.452 457.968 521.776 459.3C530.1 460.631 537.892 455.112 539.15 446.972Z" fill="#F99746"/>
<path d="M521.244 444.737C521.272 444.225 521.412 443.725 521.653 443.275C521.894 442.824 522.231 442.434 522.64 442.132C523.048 441.83 523.517 441.624 524.013 441.529C524.509 441.433 525.02 441.451 525.509 441.582C526.467 441.828 552.486 454.706 552.486 454.706L547.953 461.819L522.465 447.224C522.071 446.948 521.753 446.575 521.539 446.14C521.325 445.705 521.224 445.223 521.244 444.737Z" fill="#EF7E29"/>
<path d="M537.249 453.796C536.86 453.738 528.694 457.738 524.514 451.882C522.597 449.208 524.055 446.673 525.898 445.94C527.304 445.405 529.621 447.047 530.531 447.994C532.042 449.518 537.249 453.796 537.249 453.796Z" fill="#FFB27D"/>
<path d="M513.162 613.49C510.388 611.767 511.967 598.932 511.967 598.932C511.967 598.932 524.898 588.423 526.672 596.467C528.446 604.51 538.961 608.125 544.942 609.109C549.069 609.794 550.349 612.115 550.733 613.49H513.162Z" fill="#233862"/>
<path d="M527.809 603.194C523.597 604.558 515.51 608.74 510.377 606.772C507.065 605.505 488.527 551.04 487.327 527.225C487.264 526.065 487.095 524.594 486.801 522.861C486.674 522.011 486.522 521.102 486.348 520.128C484.631 510.502 480.893 495.217 477.176 479.793C472.169 458.973 467.21 437.875 467.341 429.998C467.61 414.488 512.82 426.751 512.82 426.751C512.82 426.751 515.526 437.833 516.395 454.278C516.455 455.451 516.506 456.649 516.548 457.872C517.78 494.415 521.149 556.142 530.331 599.007C530.491 599.898 530.322 600.817 529.857 601.589C529.392 602.362 528.663 602.933 527.809 603.194Z" fill="#213F7A"/>
<path d="M516.421 454.278L486.827 522.861C486.701 522.011 486.548 521.102 486.374 520.129C484.658 510.502 480.92 495.217 477.202 479.794L471.938 426.26L512.852 426.752C512.852 426.752 515.553 437.833 516.421 454.278Z" fill="#233862"/>
<path d="M491.323 324.186C491.323 324.186 506.47 324.721 512.104 331.561C517.738 338.402 524.498 387.106 528.257 397.107C532.016 407.108 536.518 442.18 536.518 443.523L530.431 444.705C530.431 444.705 513.584 408.498 512.094 400.535C510.604 392.572 492.297 353.039 492.439 350.301C492.582 347.563 491.323 324.186 491.323 324.186Z" fill="#FFB27D"/>
<path d="M453.299 342.52C453.447 341.363 453.286 340.188 452.833 339.116C452.38 338.045 451.651 337.117 450.724 336.429C449.796 335.742 448.704 335.321 447.561 335.209C446.418 335.098 445.267 335.301 444.228 335.797C438.436 338.551 432.087 342.391 430.16 346.579C426.39 354.767 418.098 390.401 418.74 403.648C418.74 403.648 425.795 405.557 430.85 403.37C435.904 401.182 452.789 346.68 452.789 346.68L453.299 342.52Z" fill="#FFB27D"/>
<path d="M472.922 613.575C472.922 613.575 472.122 607.232 470.29 603.462C468.457 599.692 456.601 602.093 456.601 602.093C456.601 602.093 454.242 604.147 453.736 613.746L472.922 613.575Z" fill="#233862"/>
<path d="M496.436 430.051L472.533 606.002C472.533 606.002 462.039 608.569 453.879 606.537C453.879 606.537 446.882 512.946 447.461 490.335C448.04 467.723 448.43 435.784 451.015 428.602C455.074 417.302 496.436 430.051 496.436 430.051Z" fill="#213F7A"/>
<path d="M487.717 316.074V318.352C487.717 318.352 488.327 325.481 479.687 326.518C471.048 327.556 464.498 323.743 464.73 318.24C465.509 313.961 466.367 311.057 466.42 307.543C466.441 306.111 466.339 304.679 466.114 303.265L482.857 302.923L487.79 303.741L487.717 316.074Z" fill="#FFB27D"/>
<path d="M487.754 303.741V312.678C481.357 315.015 468.399 311.073 467.336 305.827L482.82 302.923L487.754 303.741Z" fill="#F4A671"/>
<path d="M464.793 300.527C466.736 311.148 480.23 310.8 486.058 310.153C487.701 309.966 488.733 309.752 488.733 309.752C490.581 309.249 491.613 306.292 492.097 302.415C493.045 294.74 491.844 283.477 490.57 280.595C488.649 276.263 485.032 271.572 471.443 274.958C457.854 278.343 462.303 286.937 464.793 300.527Z" fill="#FFB27D"/>
<path d="M482.062 303.046C482.062 303.046 483.189 305.046 487.017 304.65C487.685 304.629 488.324 304.371 488.824 303.92C489.325 303.47 489.654 302.856 489.754 302.185C487.161 301.741 484.498 302.039 482.062 303.046Z" fill="white"/>
<path d="M511.309 361.355C520.986 360.553 525.624 355.847 525.624 355.847C525.624 355.847 516.89 331.561 512.093 327.39C507.297 323.219 487.743 319.587 487.743 319.587C487.659 319.525 487.567 319.475 487.469 319.437C487.469 321.646 484.047 325.716 478.777 326.064C472.522 326.481 464.698 321.892 464.698 318.234C464.698 318.234 449.793 319.304 441.848 323.662C433.903 328.021 424.421 349.675 424.421 349.675C424.421 349.675 427.638 360.371 447.434 363.789L446.013 434.918C482.567 447.218 516.237 434.538 516.237 434.538C517.027 434.538 511.925 393.77 511.672 383.732C511.499 377.207 511.372 369.779 511.309 361.355Z" fill="white"/>
<path d="M493.908 280.258C494.463 279.68 494.878 278.978 495.119 278.209C495.361 277.44 495.423 276.624 495.3 275.827C495.178 275.029 494.874 274.271 494.413 273.614C493.952 272.956 493.347 272.416 492.645 272.038C489.601 270.396 484.826 268.021 480.746 266.898C474.723 265.24 468.757 267.139 466.409 268.396C466.494 267.881 466.69 267.391 466.983 266.962C466.384 267.406 465.957 268.05 465.777 268.781C465.667 268.861 465.619 268.914 465.646 268.936C464.993 268.812 464.319 268.856 463.687 269.064C463.687 269.064 464.214 268.984 464.414 269.337C464.436 269.374 464.465 269.406 464.498 269.433C455.548 273.819 452.578 284.541 457.617 291.472C460.728 295.751 466.288 304.447 466.288 304.447C465.727 303.059 465.338 301.606 465.13 300.12C465.102 299.542 465.208 298.965 465.44 298.436C465.856 297.38 465.856 296.202 465.44 295.147C464.83 293.606 464.688 292.013 465.967 291.355C467.473 290.59 468.657 291.702 469.416 292.858C469.7 293.303 470.128 293.635 470.626 293.797C471.124 293.959 471.662 293.941 472.148 293.745L472.243 293.703C476.013 292.098 472.869 287.638 476.17 284.926C479.472 282.215 488.28 283.622 491.16 282.498C492.141 281.838 493.061 281.088 493.908 280.258Z" fill="#233862"/>
<path d="M525.856 452.433C527.23 443.577 535.686 437.571 544.742 439.02C546.981 439.373 549.129 440.177 551.06 441.384L554.792 443.566L554.429 444.16C556.108 445.931 557.362 448.072 558.093 450.416C558.823 452.76 559.011 455.244 558.641 457.674C557.272 466.53 548.817 472.536 539.761 471.087C539.199 470.998 538.642 470.88 538.092 470.734L537.744 471.301L533.522 468.771C530.793 467.127 528.607 464.696 527.242 461.787C525.877 458.877 525.395 455.622 525.856 452.433Z" fill="#EF7E29"/>
<path d="M562.206 459.754C563.574 450.898 557.346 442.544 548.285 441.095C539.224 439.646 530.774 445.651 529.405 454.508C528.036 463.364 534.259 471.718 543.32 473.167C552.381 474.617 560.831 468.605 562.206 459.754Z" fill="#F99746"/>
<path d="M540.366 455.615C540.485 454.919 540.737 454.254 541.11 453.657C541.483 453.061 541.968 452.546 542.538 452.141C543.107 451.736 543.75 451.45 544.43 451.299C545.109 451.148 545.811 451.135 546.495 451.262C547.221 451.374 547.918 451.634 548.543 452.026L549.759 452.738L549.638 452.93C550.185 453.504 550.593 454.198 550.832 454.959C551.07 455.72 551.132 456.526 551.012 457.316C550.894 458.012 550.641 458.677 550.269 459.273C549.896 459.869 549.411 460.385 548.841 460.79C548.271 461.194 547.628 461.48 546.949 461.631C546.27 461.782 545.568 461.795 544.884 461.669C544.706 461.642 544.53 461.605 544.357 461.557L544.241 461.738L542.867 460.92C541.978 460.389 541.265 459.601 540.819 458.656C540.373 457.71 540.216 456.652 540.366 455.615Z" fill="#EF7E29"/>
<path d="M552.155 457.99C552.362 456.917 552.249 455.806 551.83 454.799C551.411 453.792 550.706 452.936 549.804 452.339C548.902 451.743 547.845 451.434 546.769 451.452C545.693 451.47 544.647 451.815 543.766 452.441C542.884 453.068 542.207 453.948 541.821 454.968C541.435 455.989 541.359 457.103 541.601 458.168C541.844 459.233 542.394 460.2 543.182 460.945C543.969 461.69 544.958 462.178 546.021 462.348C547.403 462.595 548.825 462.275 549.976 461.458C551.126 460.641 551.909 459.393 552.155 457.99Z" fill="#F99746"/>
<path d="M418.745 403.648C418.745 403.648 443.385 413.194 477.255 408.996V401.878C477.255 401.878 440.753 394.503 433.614 388.016C433.614 388.016 420.767 393.465 418.745 403.648Z" fill="#FFB27D"/>
<path d="M504.328 391.968C502.222 384.01 493.924 379.357 485.779 381.576C483.768 382.121 481.884 383.067 480.235 384.357L477.029 386.721L477.418 387.229C476.052 389.014 475.108 391.094 474.662 393.309C474.215 395.524 474.278 397.814 474.844 400C476.95 407.958 485.253 412.617 493.392 410.397C493.897 410.261 494.394 410.098 494.882 409.91L495.256 410.392L498.889 407.659C501.226 405.887 502.991 403.449 503.96 400.654C504.928 397.86 505.056 394.836 504.328 391.968Z" fill="#EF7E29"/>
<path d="M471.806 402.252C469.7 394.289 474.602 386.042 482.741 383.823C490.881 381.603 499.184 386.261 501.285 394.219C503.385 402.177 498.489 410.429 490.349 412.643C482.21 414.857 473.907 410.21 471.806 402.252Z" fill="#F99746"/>
<path d="M489.38 398.102C489.299 397.596 489.107 397.115 488.82 396.693C488.533 396.272 488.157 395.92 487.719 395.665C487.282 395.409 486.794 395.255 486.291 395.214C485.788 395.173 485.282 395.246 484.81 395.428C483.884 395.775 459.349 411.37 459.349 411.37L464.614 417.975L488.422 400.706C488.786 400.39 489.065 399.985 489.232 399.53C489.4 399.074 489.451 398.583 489.38 398.102Z" fill="#EF7E29"/>
<path d="M484.031 410.269C484.158 409.889 491.355 404.295 488.101 397.861C486.611 394.914 483.731 395.091 482.257 396.433C481.136 397.455 481.551 400.311 481.967 401.557C482.647 403.637 484.031 410.269 484.031 410.269Z" fill="#FFB27D"/>
<path d="M485.611 406.252C483.32 397.594 474.291 392.529 465.435 394.941C463.247 395.535 461.196 396.564 459.401 397.968L455.911 400.541L456.337 401.075C454.848 403.018 453.82 405.283 453.334 407.695C452.848 410.107 452.918 412.6 453.536 414.98C455.821 423.639 464.856 428.703 473.712 426.291C474.261 426.141 474.802 425.963 475.333 425.757L475.739 426.291L479.693 423.318C482.234 421.39 484.154 418.738 485.208 415.7C486.261 412.661 486.402 409.372 485.611 406.252Z" fill="#EF7E29"/>
<path d="M450.214 417.43C447.929 408.771 453.252 399.781 462.108 397.38C470.963 394.979 480.009 400.054 482.283 408.691C484.558 417.328 479.245 426.34 470.39 428.736C461.534 431.132 452.499 426.094 450.214 417.43Z" fill="#F99746"/>
<path d="M471.511 410.975C471.122 409.605 470.213 408.449 468.985 407.76C467.757 407.071 466.31 406.906 464.961 407.3C464.25 407.491 463.584 407.826 463.003 408.285L461.871 409.119L462.008 409.301C461.524 409.93 461.19 410.664 461.032 411.446C460.874 412.228 460.896 413.037 461.097 413.809C461.486 415.178 462.395 416.335 463.623 417.024C464.851 417.713 466.298 417.878 467.647 417.483C467.826 417.43 468.005 417.376 468.173 417.307L468.305 417.478L469.589 416.515C470.415 415.889 471.038 415.028 471.38 414.042C471.722 413.055 471.768 411.988 471.511 410.975Z" fill="#EF7E29"/>
<path d="M460.023 414.601C459.704 413.556 459.701 412.439 460.012 411.393C460.324 410.346 460.936 409.418 461.771 408.728C462.606 408.038 463.624 407.617 464.696 407.519C465.768 407.422 466.845 407.652 467.787 408.181C468.729 408.709 469.494 409.512 469.984 410.485C470.473 411.459 470.665 412.559 470.535 413.644C470.404 414.729 469.957 415.75 469.251 416.575C468.545 417.4 467.612 417.992 466.572 418.275C465.905 418.474 465.205 418.537 464.514 418.46C463.822 418.382 463.152 418.167 462.543 417.825C461.934 417.483 461.398 417.023 460.965 416.469C460.533 415.916 460.212 415.281 460.023 414.601Z" fill="#F99746"/>
<path d="M641.765 332.636C641.765 332.636 623.864 333.706 621.91 341.193C618.804 353.178 615.903 381.106 615.903 381.106L597.839 358.345L591.331 361.553C591.331 361.553 606.753 403.643 619.762 401.664C632.772 399.685 641.765 332.636 641.765 332.636Z" fill="#F4A671"/>
<path d="M660.155 276.439C660.155 276.439 662.493 266.946 676.213 269.914C676.213 269.914 669.643 269.069 667.847 271.642C667.847 271.642 673.049 269.219 676.313 271.246C679.578 273.273 680.104 280.092 679.62 282.172C679.135 284.253 675.534 290.424 673.149 290.424C670.764 290.424 667.942 288.285 667.942 288.285L660.155 276.439Z" fill="#2C3A64"/>
<path d="M635.484 286.221C635.484 286.221 652.858 265.021 662.056 278.589C662.056 278.589 668.9 281.477 671.396 293.339C673.928 305.442 666.005 314.646 661.919 312.373C659.286 310.913 657.302 315.582 657.302 315.582L635.484 286.221Z" fill="#2C3A64"/>
<path d="M640.927 332.733C640.859 332.765 647.309 336.166 652.163 334.818C656.728 333.556 662.514 332 662.451 331.984C660.518 331.599 657.159 324.438 657.186 312.843L656.312 313.02L641.612 315.972C641.612 315.972 641.949 320.673 641.959 325.096C642.007 328.813 641.786 332.337 640.927 332.733Z" fill="#FFB27D"/>
<path d="M641.649 315.972C641.649 315.972 641.986 320.673 641.996 325.096C650.22 324.86 654.564 317.24 656.349 313.02L641.649 315.972Z" fill="#F4A671"/>
<path d="M657.865 311.394C657.865 311.394 662.172 304.473 663.209 298.559C663.946 294.334 661.829 278.68 646.361 280.91C643.243 281.35 640.262 282.494 637.637 284.258C634.278 286.568 629.424 291.547 634.846 305.201L636.257 309.816L657.865 311.394Z" fill="#2C3A64"/>
<path d="M638.906 320.165C638.906 320.165 658.36 320.491 658.386 308.18C658.412 295.869 660.919 287.622 648.498 286.889C636.078 286.157 633.657 290.858 632.667 294.965C631.677 299.072 633.846 319.764 638.906 320.165Z" fill="#FFB27D"/>
<path d="M639.627 286.59C639.627 286.59 644.95 301.03 653.126 303.169C661.303 305.308 664.851 303.078 664.851 303.078C660.815 299.476 658.137 294.56 657.275 289.173C657.275 289.173 643.644 279.718 639.627 286.59Z" fill="#2C3A64"/>
<path d="M640.927 287.761C640.927 287.761 636.952 290.97 635.978 294.12C635.004 297.27 634.573 303.709 632.725 303.49C632.725 303.49 628.707 293.676 633.219 288.119C638.021 282.231 640.927 287.761 640.927 287.761Z" fill="#2C3A64"/>
<path d="M625.917 421.43C635.81 389.304 624.969 382.32 625.996 366.243C627.023 350.167 639.279 332.882 639.279 332.882C639.279 332.882 654.127 331.358 661.919 331.893C668.842 332.369 680.704 354.259 677.751 374.469C677.387 376.989 676.779 379.467 675.934 381.865C672.286 392.096 670.411 396.267 670.501 400.134C670.611 405.028 673.876 409.424 680.699 424.965C684.458 433.554 615.813 454.246 625.917 421.43Z" fill="#FFB27D"/>
<path d="M651.531 493.704C648.777 509.545 646.756 521.423 646.756 521.423C651.91 542.895 644.155 570.432 637.768 587.739C636.31 591.696 634.92 595.124 633.772 597.825C633.772 597.825 633.772 597.868 633.741 597.895C633.709 597.975 633.672 598.055 633.641 598.13C631.961 602.055 630.84 604.334 630.84 604.334L621.421 604.767C621.421 604.767 622.142 600.649 622.948 593.702C622.95 593.679 622.95 593.655 622.948 593.632C623.205 591.391 623.474 588.862 623.727 586.075C625.159 570.315 626.154 546.559 622.811 522.637C614.634 464.215 625.443 425.067 625.443 425.067L660.034 436.405L661.65 436.94C658.539 453.577 654.585 476.087 651.531 493.704Z" fill="#FFB27D"/>
<path d="M661.461 331.599C661.461 331.599 678.088 333.326 680.036 337.674C686.317 351.718 692.587 399.065 694.341 403.22C696.094 407.375 701.448 430.206 706.018 441.475L700.18 443.256C700.18 443.256 680.91 410.777 679.162 402.327C677.414 393.877 667.779 359.5 667.779 359.5L661.461 331.599Z" fill="#FFB27D"/>
<path d="M674.544 370.404L674.771 385.069C666.19 382.666 657.418 381.032 648.556 380.186C645.271 379.894 641.971 379.801 638.674 379.908C634.906 379.983 631.166 380.575 627.554 381.667C627.554 381.667 625.417 372.174 623.274 360.906C623.195 360.5 623.132 360.098 623.09 359.697C621.852 349.001 631.229 340.214 627.302 335.925C627.302 335.925 630.735 334.021 639.301 332.882C639.301 332.882 632.73 344.648 633.314 347.611C633.899 350.574 659.297 347.91 661.05 346.279C662.803 344.648 665.573 332.155 665.573 332.155C665.573 332.155 674.571 333.155 678.967 336.433C677.017 338.975 675.381 341.75 674.097 344.696C673.538 346.013 673.118 347.386 672.844 348.793C672.159 352.483 670.359 359.521 674.423 365.051L674.544 370.404Z" fill="white"/>
<path d="M658.112 455.711C655.037 472.258 654.585 476.093 651.531 493.682C632.551 460.027 635.341 451.24 635.341 451.24L658.112 455.711Z" fill="#F4A671"/>
<path d="M717.686 593.408C717.686 594.028 717.638 594.627 717.612 595.205C717.338 600.847 716.87 604.296 716.87 604.296L707.782 601.087C707.782 601.087 707.356 599.756 706.603 597.461C706.297 596.531 705.934 595.435 705.55 594.204C704.807 591.974 703.907 589.29 702.881 586.316C696.699 568.309 686.175 539.478 680.046 532.835C662.482 513.845 636.716 431.115 636.716 431.115L671.57 419.628C676.74 424.714 680.941 434.244 684.327 445.459C692.861 473.761 696.178 512.844 696.626 518.476C696.672 518.905 696.857 519.305 697.152 519.615C713.474 538.055 717.285 564.913 717.749 583.407C717.838 587.129 717.796 590.504 717.686 593.408Z" fill="#FFB27D"/>
<path d="M650.115 458.69L644.086 457.936C641.336 457.013 638.52 456.308 635.662 455.829C630.685 454.946 625.614 454.74 620.584 455.214C623.216 426.671 627.017 417.564 627.017 417.564L639.653 440.025L650.115 458.69Z" fill="#213F7A"/>
<path d="M650.115 458.69L644.086 457.936C641.336 457.013 638.52 456.308 635.662 455.829C635.278 450.347 637.452 444.475 639.659 440.041L650.115 458.69Z" fill="#233862"/>
<path d="M626.981 417.563C626.981 417.563 635.341 423.981 643.829 423.382C652.316 422.783 676.998 417.055 676.998 417.055C676.998 417.055 681.578 423.815 684.785 437.223C688.091 451.064 688.091 461.343 688.091 461.343C688.091 461.343 659.092 457.487 647.414 463.717L626.981 417.563Z" fill="#213F7A"/>
<path d="M640.206 288.248C640.206 288.248 644.002 303.372 654.316 308.217C654.316 308.217 644.002 298.928 643.123 288.964C642.244 279.001 640.206 288.248 640.206 288.248Z" fill="#2C3A64"/>
<path d="M726.489 445.24C725.041 439.769 719.334 436.565 713.732 438.089C712.347 438.465 711.05 439.116 709.915 440.004L707.709 441.608L707.982 441.956C707.041 443.183 706.391 444.614 706.083 446.139C705.775 447.663 705.818 449.238 706.208 450.743C707.656 456.219 713.368 459.417 718.965 457.893C719.318 457.797 719.66 457.685 720.018 457.562L720.276 457.893L722.772 456.011C724.371 454.79 725.577 453.115 726.239 451.198C726.901 449.281 726.988 447.207 726.489 445.24Z" fill="#EF7E29"/>
<path d="M704.107 452.326C702.659 446.855 706.029 441.18 711.631 439.651C717.233 438.121 722.94 441.33 724.388 446.801C725.836 452.272 722.461 457.952 716.864 459.476C711.268 461 705.56 457.802 704.107 452.326Z" fill="#F99746"/>
<path d="M716.217 449.475C716.161 449.125 716.029 448.792 715.831 448.501C715.632 448.209 715.372 447.966 715.069 447.79C714.766 447.614 714.429 447.508 714.081 447.482C713.733 447.455 713.383 447.507 713.058 447.635C712.421 447.871 695.547 458.604 695.547 458.604L699.158 463.145L715.532 451.267C715.787 451.052 715.984 450.775 716.104 450.461C716.223 450.148 716.262 449.808 716.217 449.475Z" fill="#EF7E29"/>
<path d="M579.022 344.627C580.47 339.156 586.177 335.952 591.779 337.476C593.163 337.852 594.461 338.503 595.596 339.391L597.802 340.996L597.528 341.348C598.47 342.574 599.12 344.005 599.428 345.528C599.736 347.051 599.693 348.626 599.303 350.13C597.855 355.606 592.142 358.81 586.546 357.28C586.193 357.184 585.851 357.072 585.493 356.949L585.235 357.28L582.734 355.398C581.136 354.177 579.93 352.502 579.269 350.584C578.608 348.667 578.522 346.594 579.022 344.627Z" fill="#EF7E29"/>
<path d="M601.393 351.697C602.835 346.226 599.471 340.552 593.869 339.022C588.267 337.492 582.56 340.701 581.112 346.178C579.664 351.654 583.034 357.323 588.636 358.847C594.238 360.371 599.945 357.173 601.393 351.697Z" fill="#F99746"/>
<path d="M589.331 348.846C589.385 348.496 589.517 348.163 589.715 347.87C589.913 347.578 590.174 347.335 590.477 347.159C590.78 346.982 591.118 346.877 591.466 346.851C591.815 346.824 592.164 346.878 592.49 347.007C593.132 347.247 610.006 357.976 610.006 357.976L606.395 362.516L590.02 350.638C589.764 350.425 589.565 350.148 589.445 349.834C589.324 349.52 589.285 349.18 589.331 348.846Z" fill="#EF7E29"/>
<path d="M591.368 361.58C591.368 361.58 585.345 353.996 589.683 350.076C594.022 346.156 599.64 347.306 599.803 349.59C599.966 351.873 597.876 358.398 597.876 358.398L591.368 361.58Z" fill="#F4A671"/>
<path d="M705.582 440.485C705.582 440.485 707.356 444.737 709.204 445.924C711.052 447.111 713.684 449.973 713.195 452.251C712.705 454.529 712.221 458.075 709.899 458.075C707.577 458.075 702.112 447.598 701.433 445.619C700.754 443.64 700.164 443.25 700.164 443.25L705.582 440.485Z" fill="#FFB27D"/>
<path d="M713.584 455.08C712.005 449.122 705.803 445.641 699.706 447.299C698.201 447.71 696.791 448.418 695.557 449.384L693.156 451.155L693.451 451.534C692.427 452.869 691.721 454.426 691.387 456.084C691.053 457.742 691.1 459.455 691.524 461.091C693.103 467.044 699.311 470.525 705.402 468.867C705.78 468.766 706.153 468.644 706.519 468.504L706.798 468.867L709.514 466.819C711.262 465.493 712.583 463.669 713.307 461.579C714.032 459.488 714.129 457.226 713.584 455.08Z" fill="#EF7E29"/>
<path d="M689.265 462.771C687.686 456.818 691.371 450.641 697.447 448.983C703.523 447.325 709.751 450.807 711.325 456.765C712.9 462.722 709.22 468.889 703.144 470.552C697.068 472.215 690.84 468.728 689.265 462.771Z" fill="#F99746"/>
<path d="M703.913 458.326C703.645 457.386 703.02 456.591 702.176 456.118C701.332 455.645 700.337 455.531 699.411 455.802C698.923 455.936 698.465 456.164 698.063 456.476L697.284 457.053L697.379 457.176C697.047 457.61 696.817 458.115 696.709 458.653C696.6 459.191 696.615 459.747 696.752 460.278C696.885 460.745 697.107 461.18 697.405 461.559C697.703 461.939 698.072 462.255 698.491 462.489C698.909 462.723 699.369 462.872 699.844 462.926C700.319 462.979 700.8 462.938 701.259 462.803C701.382 462.771 701.504 462.731 701.622 462.685L701.712 462.803L702.596 462.139C703.164 461.709 703.592 461.116 703.827 460.437C704.061 459.758 704.091 459.023 703.913 458.326Z" fill="#EF7E29"/>
<path d="M696.015 460.824C695.803 460.111 695.804 459.351 696.02 458.639C696.235 457.928 696.654 457.298 697.224 456.829C697.793 456.361 698.488 456.076 699.218 456.01C699.948 455.944 700.68 456.101 701.322 456.461C701.964 456.82 702.485 457.366 702.82 458.028C703.155 458.69 703.288 459.439 703.202 460.178C703.117 460.917 702.816 461.614 702.338 462.178C701.861 462.743 701.228 463.15 700.522 463.348C699.595 463.619 698.599 463.506 697.755 463.033C696.91 462.559 696.284 461.765 696.015 460.824Z" fill="#F99746"/>
<path d="M591.911 354.451C593.49 348.493 599.692 345.012 605.784 346.675C607.291 347.082 608.703 347.789 609.938 348.755L612.333 350.526L612.044 350.905C613.067 352.24 613.774 353.797 614.108 355.455C614.442 357.113 614.395 358.826 613.971 360.462C612.391 366.415 606.184 369.902 600.092 368.238C599.714 368.137 599.342 368.016 598.976 367.875L598.697 368.238L595.975 366.19C594.227 364.864 592.908 363.039 592.184 360.949C591.46 358.859 591.365 356.597 591.911 354.451Z" fill="#EF7E29"/>
<path d="M616.245 362.141C617.825 356.189 614.139 350.012 608.063 348.354C601.988 346.696 595.754 350.178 594.185 356.136C592.616 362.093 596.291 368.265 602.367 369.923C608.443 371.581 614.671 368.099 616.245 362.141Z" fill="#F99746"/>
<path d="M601.593 357.697C601.862 356.756 602.488 355.962 603.332 355.489C604.177 355.015 605.173 354.902 606.1 355.173C606.587 355.308 607.045 355.536 607.448 355.847L608.227 356.424L608.132 356.547C608.464 356.981 608.693 357.486 608.802 358.024C608.911 358.562 608.896 359.118 608.759 359.649C608.626 360.116 608.404 360.551 608.106 360.93C607.808 361.31 607.439 361.626 607.02 361.86C606.601 362.094 606.142 362.243 605.667 362.297C605.192 362.35 604.711 362.309 604.252 362.174C604.128 362.142 604.007 362.102 603.888 362.056L603.799 362.174L602.914 361.511C602.348 361.079 601.92 360.486 601.685 359.807C601.45 359.129 601.418 358.394 601.593 357.697Z" fill="#EF7E29"/>
<path d="M609.496 360.206C609.708 359.493 609.706 358.733 609.491 358.021C609.276 357.31 608.856 356.679 608.287 356.211C607.717 355.743 607.023 355.458 606.293 355.392C605.563 355.326 604.83 355.483 604.189 355.843C603.547 356.202 603.025 356.748 602.69 357.41C602.355 358.072 602.222 358.82 602.308 359.56C602.394 360.299 602.695 360.995 603.172 361.56C603.65 362.125 604.282 362.532 604.989 362.73C605.916 363.001 606.911 362.888 607.756 362.414C608.601 361.941 609.227 361.147 609.496 360.206Z" fill="#F99746"/>
<path d="M626.212 419.826C626.212 419.826 633.793 425.468 641.828 425.709C649.862 425.949 678.082 418.922 678.082 418.922L676.919 416.692C676.919 416.692 645.982 425.099 638.722 422.607C634.64 421.262 630.728 419.437 627.065 417.168L626.212 419.826Z" fill="#233862"/>
<path d="M718.038 613.602C714.611 613.65 706.545 612.714 703.296 613.602H690.318C687.296 611.714 686.138 609.954 694.083 608.521C705.776 606.419 707.098 600.997 706.582 597.451C706.428 596.309 706.071 595.206 705.529 594.194L717.701 593.429C717.701 593.429 717.654 594.13 717.628 595.226C717.565 597.82 717.628 602.638 718.681 605.681C719.734 608.724 721.482 613.554 718.038 613.602Z" fill="#FFB27D"/>
<path d="M633.614 598.226C632.756 600.625 632.74 603.25 633.567 605.66C634.62 608.655 636.394 613.554 632.962 613.602C629.529 613.65 621.468 612.714 618.22 613.602H605.247C602.219 611.714 601.003 609.527 609.011 608.521C620.594 607.066 622.7 595.279 622.9 593.793C622.903 593.77 622.903 593.746 622.9 593.723C623.158 591.482 623.427 588.953 623.679 586.166C623.679 586.166 629.034 590.193 637.742 587.771C636.284 591.728 634.894 595.156 633.746 597.857C633.746 597.857 633.746 597.9 633.714 597.927C633.683 598.007 633.646 598.087 633.614 598.162C633.622 598.171 633.626 598.182 633.626 598.194C633.626 598.206 633.622 598.217 633.614 598.226Z" fill="#213F7A"/>
<path d="M718.038 613.602C714.611 613.65 706.545 612.714 703.296 613.602H690.318C687.296 611.714 686.138 609.954 694.083 608.521C705.776 606.419 707.098 600.996 706.582 597.45C706.276 596.52 705.913 595.423 705.529 594.193C704.786 591.963 703.886 589.279 702.86 586.305C706.198 586.305 712.294 585.973 717.765 583.444C717.854 587.15 717.812 590.525 717.701 593.429C717.701 594.049 717.654 594.648 717.628 595.226C717.565 597.819 717.628 602.638 718.681 605.681C719.734 608.724 721.482 613.553 718.038 613.602Z" fill="#213F7A"/>
<path d="M636.594 312.95C636.594 312.95 637.121 314.084 637.321 314.646C637.521 315.207 640.785 315.234 641.812 314.603C642.522 314.063 643.144 313.413 643.655 312.678C643.655 312.678 638.058 312.544 636.594 312.95Z" fill="white"/>
<path d="M246.428 492.522C243.48 495.784 239.057 499.148 246.086 506.609C255.105 516.171 269.046 557.378 269.046 557.378C268.567 558.982 269.046 561.121 267.956 561.784C266.172 562.822 261.638 559.645 261.638 559.645C261.638 559.645 220.235 516.08 216.886 506.282C214.406 499.052 227.084 464.033 234.671 445.651C237.356 439.148 239.41 434.741 239.936 434.42L240.173 434.265C244.633 431.393 248.829 431.762 252.583 433.966C253.403 434.452 254.185 435.002 254.92 435.613C264.181 443.25 270.131 461.359 269.515 465.118C269.088 467.739 264.571 473.29 259.611 478.756C258.558 479.89 257.532 481.018 256.5 482.12C251.94 486.901 247.692 491.121 246.428 492.522Z" fill="#F99746"/>
<path d="M259.564 478.74C258.511 479.874 257.484 481.002 256.453 482.104L234.645 445.657C237.33 439.154 239.384 434.747 239.91 434.426L240.147 434.271L252.556 433.971L254.799 433.918L254.894 435.619L259.564 478.74Z" fill="#ED7D2B"/>
<path d="M247.223 351.97C247.223 351.97 251.846 363.489 250.656 370.367C249.466 377.244 233.481 411.365 227.664 417.211C221.846 423.056 183.248 398.177 183.248 398.177L187.044 394.492C187.044 394.492 217.581 402.386 219.187 399.91C220.793 397.433 228.574 348.771 247.223 351.97Z" fill="#FFB27D"/>
<path d="M246.307 442.239C246.307 442.239 254.204 482.462 274.211 510.764C293.523 538.109 303.569 580.021 303.569 580.021C303.569 580.021 304.848 581.037 307.375 579.946C309.903 578.855 311.587 580.182 312.114 578.936C312.114 578.936 308.47 512.775 298.425 498.292C292.765 490.11 289.748 460.07 289.938 451.893C290.127 443.715 286.61 433.709 286.61 433.709L246.307 442.239Z" fill="#F99746"/>
<path d="M311.903 590.819L307.233 590.851C305.654 590.616 304.506 590.161 302.9 589.958C300.462 589.653 299.346 590.674 299.125 590.91L299.083 590.958L279.234 591.097C278.708 590.38 279.197 588.696 279.655 587.46C279.811 587.046 280.059 586.673 280.379 586.372C280.7 586.07 281.084 585.848 281.503 585.722C283.609 585.086 287.748 584.508 291.507 580.984C293.613 579.01 301.779 573.694 301.779 573.694H301.821C302 573.694 302.874 573.962 306.601 577.128C308.539 578.759 311.793 574.764 311.793 574.764C312.246 575.177 312.614 575.677 312.877 576.235C313.347 577.19 313.504 578.273 313.325 579.326C313.04 581.144 314.02 584.514 314.799 586.813C315.273 588.193 315.668 589.172 315.668 589.172C315.668 589.172 315.92 590.279 311.903 590.819Z" fill="#233862"/>
<path d="M312.919 576.224C311.808 577.032 309.465 578.62 307.907 578.839C305.801 579.133 301.821 573.694 301.821 573.694H301.863C302.042 573.694 302.916 573.962 306.643 577.128C308.581 578.759 311.835 574.764 311.835 574.764C312.287 575.174 312.655 575.67 312.919 576.224Z" fill="#233862"/>
<path d="M311.903 590.819L307.233 590.851C305.654 590.616 304.506 590.161 302.9 589.958C300.462 589.653 299.346 590.675 299.125 590.91L299.083 590.958L279.234 591.097C278.708 590.38 279.197 588.696 279.655 587.46C280.255 586.926 280.445 589.819 280.782 590.279C281.119 590.739 296.977 590.332 297.888 589.653C298.799 588.974 301.537 587.765 305.375 588.669C308.713 589.45 313.609 587.343 314.82 586.781C315.294 588.161 315.689 589.14 315.689 589.14C315.689 589.14 315.92 590.279 311.903 590.819Z" fill="#233862"/>
<path d="M287.816 408.397C287.816 385.85 283.767 353.312 278.213 350.798C273.474 348.659 263.207 345.643 252.599 345.803C244.227 345.932 226.379 349.911 224.563 363.96C223.415 372.859 222.951 380.186 222.951 380.186C222.951 380.186 224.868 385.866 230.165 387.39C230.823 389.898 231.123 392.39 231.912 394.497C240.7 418.029 236.382 441.56 236.382 441.56C244.469 448.395 284.731 444.395 288.785 441.705C295.392 437.303 287.8 430.95 287.816 408.397Z" fill="#2A4E96"/>
<path d="M278.171 563.025L274.822 566.33C273.527 567.256 272.384 567.748 271.084 568.726C269.115 570.218 269.004 571.743 269.004 572.069V572.133L254.789 586.177C253.931 586.011 253.125 584.471 252.614 583.252C252.443 582.843 252.368 582.401 252.395 581.958C252.421 581.515 252.549 581.085 252.767 580.701C253.852 578.765 256.452 575.433 256.779 570.24C256.968 567.32 259.238 557.757 259.238 557.757V557.72C259.369 557.592 260.17 557.185 265.029 556.838C267.541 556.656 267.167 551.49 267.167 551.49C267.777 551.471 268.385 551.573 268.957 551.789C269.946 552.15 270.796 552.823 271.384 553.709C272.437 555.222 275.417 556.966 277.533 558.068C278.813 558.731 279.766 559.137 279.766 559.137C279.766 559.137 280.703 559.811 278.171 563.025Z" fill="#233862"/>
<path d="M268.952 551.783C268.699 553.147 268.088 555.939 267.109 557.196C265.787 558.886 259.211 557.757 259.211 557.757V557.72C259.343 557.591 260.143 557.185 265.003 556.837C267.514 556.656 267.14 551.489 267.14 551.489C267.757 551.467 268.372 551.567 268.952 551.783Z" fill="#233862"/>
<path d="M278.17 563.025L274.822 566.33C273.527 567.256 272.384 567.748 271.084 568.726C269.115 570.218 269.004 571.743 269.004 572.069V572.133L254.789 586.177C253.931 586.011 253.125 584.471 252.614 583.252C252.672 582.433 254.789 584.401 255.347 584.498C255.905 584.594 267.077 573.16 267.272 572.026C267.467 570.892 268.625 568.101 272.01 566.058C274.959 564.282 277.06 559.314 277.554 558.036C278.834 558.699 279.787 559.105 279.787 559.105C279.787 559.105 280.703 559.811 278.17 563.025Z" fill="#233862"/>
<path d="M266.672 353.788C266.672 353.788 278.923 353.649 284.752 357.312C290.58 360.976 315.942 388.641 319.143 396.294C322.344 403.947 292.913 425.751 292.913 425.751L288.764 419.034C288.764 419.034 301.873 400.348 300.204 397.909C298.535 395.471 256.874 370.201 266.672 353.788Z" fill="#FFB27D"/>
<path d="M290.312 418.013L295.197 421.837C295.197 421.837 290.901 431.265 288.553 432.148L288.311 432.196C285.784 432.731 279.518 428.548 278.476 424.254C278.386 423.843 278.406 423.414 278.534 423.013C279.503 420.414 285.378 418.938 288.442 418.334C289.564 418.115 290.312 418.013 290.312 418.013Z" fill="#FFB27D"/>
<path d="M190.414 395.316L187.966 401.07C187.966 401.07 177.91 399.155 176.488 397.059L176.383 396.834C175.272 394.476 177.704 387.283 181.548 385.197C181.918 385.009 182.33 384.924 182.743 384.951C185.465 385.267 188.313 390.684 189.645 393.561C190.13 394.61 190.414 395.316 190.414 395.316Z" fill="#FFB27D"/>
<path d="M262.039 346.429C262.039 346.429 273.4 346.964 281.556 352.087C285.31 354.456 299.736 368.345 299.736 368.345C299.736 368.345 298.156 382.849 280.956 386.785C263.465 390.786 260.654 361.115 260.654 361.115L262.039 346.429Z" fill="#2A4E96"/>
<path d="M258.927 346.638C259.195 347.036 259.342 347.505 259.349 347.987C259.357 348.469 259.224 348.943 258.969 349.349C257.448 351.804 253.178 356.056 242.053 355.275C238.246 355.007 237.372 352.066 239.784 349.071C240.368 348.338 240.168 344.124 240.105 342.434C239.971 340.403 239.946 338.366 240.031 336.332L247.928 330.85L255.405 325.604C254.157 337.877 257.353 344.295 258.927 346.638Z" fill="#FFB27D"/>
<path d="M255.115 331.77C255.115 331.77 249.613 340.525 240.105 342.434C239.971 340.403 239.946 338.366 240.031 336.332L247.929 330.85L255.115 331.77Z" fill="#ED985F"/>
<path d="M236.63 335.84C236.63 335.84 254.952 340.161 257.448 328.716C259.943 317.271 263.981 310.116 252.393 306.869C240.805 303.623 237.567 307.49 235.803 311.105C234.039 314.72 231.928 334.417 236.63 335.84Z" fill="#FFB27D"/>
<path d="M265.666 306.372C265.845 306.185 266.245 306.057 267.109 306.067C266.636 305.749 266.094 305.552 265.529 305.495C265.424 304.265 264.929 302.062 262.897 301.398C263.218 301.623 263.487 301.918 263.683 302.261C263.879 302.604 263.997 302.987 264.029 303.383C261.802 300.709 256.789 298.569 242.521 298.746C223.72 298.986 229.09 311.581 231.417 313.186C233.745 314.79 240.099 311.233 244.58 311.902C249.06 312.57 249.492 319.25 250.961 320.261C252.43 321.272 251.94 319.625 254.073 318.817C256.205 318.009 256.179 321.491 255.426 323.727C254.673 325.962 257.332 329.133 257.332 329.133L260.412 326.181C263.492 323.229 267.072 310.089 265.95 307.164L265.666 306.372Z" fill="#2C3A64"/>
<path d="M235.056 328.599C235.23 329.111 235.544 329.563 235.96 329.903C236.376 330.243 236.879 330.456 237.409 330.519C237.971 330.572 238.538 330.499 239.069 330.305C239.601 330.11 240.084 329.8 240.484 329.396C240.484 329.396 237.441 327.952 235.056 328.599Z" fill="white"/>
<path d="M1503.23 615.58V616.286C1503.23 616.772 1503.04 617.239 1502.7 617.583C1502.36 617.928 1501.9 618.123 1501.42 618.126H-61.1941C-61.6735 618.125 -62.1329 617.93 -62.4714 617.585C-62.8099 617.241 -63 616.773 -63 616.286V615.58C-63 615.093 -62.8099 614.626 -62.4714 614.281C-62.1329 613.937 -61.6735 613.742 -61.1941 613.741H1501.45C1501.93 613.751 1502.38 613.949 1502.71 614.293C1503.04 614.637 1503.23 615.099 1503.23 615.58Z" fill="#2E3552"/>
<path d="M1061.2 419.885V536.231H1060.1V419.933H1060.63L1061.2 419.885Z" fill="#ADCBFF"/>
<path d="M1150.36 479.034C1145.72 467.558 1138.96 457.095 1130.43 448.213C1122.02 439.393 1111.98 432.334 1100.89 427.436C1089.47 422.388 1077.15 419.793 1064.69 419.815C1063.53 419.815 1062.36 419.815 1061.2 419.885H1060.65H1060.12C1049.24 420.42 1038.53 422.956 1028.54 427.372C1017.42 432.284 1007.37 439.365 998.946 448.213C990.425 457.097 983.662 467.56 979.023 479.034C969.287 503.225 969.287 530.331 979.023 554.522C983.66 566.001 990.423 576.47 998.946 585.359C1007.37 594.179 1017.41 601.238 1028.5 606.136C1039.92 611.163 1052.24 613.757 1064.69 613.757C1077.14 613.757 1089.45 611.163 1100.88 606.136C1111.97 601.238 1122.01 594.179 1130.42 585.359C1138.95 576.477 1145.71 566.014 1150.35 554.538C1160.09 530.349 1160.09 503.239 1150.35 479.05L1150.36 479.034ZM1127.02 581.776C1110.37 599.135 1088.24 608.703 1064.69 608.703C1041.15 608.703 1019.02 599.135 1002.37 581.776C985.726 564.416 976.575 541.328 976.575 516.775C976.575 492.222 985.747 469.14 1002.37 451.78C1017.94 435.549 1038.29 426.11 1060.1 424.976L1060.63 424.949H1061.18C1062.34 424.901 1063.51 424.88 1064.67 424.88C1088.22 424.88 1110.35 434.442 1127 451.807C1143.64 469.172 1152.79 492.249 1152.79 516.802C1152.79 541.355 1143.66 564.416 1127.02 581.776Z" fill="#C5DBFF"/>
<path d="M1031.59 595.584C1031.43 603.307 1031.29 608.494 1031.29 608.494C1031.21 609.907 1030.58 611.229 1029.54 612.171C1028.51 613.113 1027.14 613.599 1025.75 613.522L1006.48 612.11C1005.09 611.983 1003.8 611.305 1002.9 610.223C1002 609.141 1001.55 607.742 1001.66 606.328C1001.66 606.328 1002.18 601.119 1002.92 593.445C1003.06 591.98 1003.21 590.471 1003.36 588.872C1005 571.759 1007.29 546.826 1008.1 535.702C1008.83 524.803 1009.8 499.244 1010.38 483.505C1010.44 481.901 1010.49 480.43 1010.54 479.05C1010.72 473.702 1010.82 470.285 1010.82 470.285C1010.91 468.872 1011.53 467.55 1012.57 466.608C1013.61 465.666 1014.98 465.18 1016.37 465.257L1035.64 466.664C1037.03 466.789 1038.32 467.467 1039.22 468.551C1040.13 469.634 1040.57 471.036 1040.46 472.451C1040.46 472.451 1040.05 475.825 1039.44 481.072C1039.3 482.441 1039.11 483.992 1038.95 485.639C1037.15 501.287 1034.35 526.621 1033.61 537.568C1032.87 548.65 1032.15 573.721 1031.7 590.899C1031.66 592.552 1031.64 594.119 1031.59 595.584Z" fill="#ED7D2B"/>
<path d="M1023.16 594.985C1023 602.702 1022.87 607.895 1022.87 607.895C1022.79 609.307 1022.16 610.628 1021.12 611.569C1020.08 612.51 1018.72 612.995 1017.33 612.917L1006.48 612.126C1005.09 611.999 1003.81 611.321 1002.9 610.239C1002 609.157 1001.56 607.758 1001.66 606.344C1001.66 606.344 1002.19 601.135 1002.93 593.461C1003.07 591.996 1003.22 590.487 1003.37 588.888C1005 571.775 1007.3 546.842 1008.11 535.718C1008.84 524.819 1009.81 499.26 1010.38 483.521C1010.44 481.917 1010.5 480.446 1010.55 479.066C1010.73 473.718 1010.83 470.301 1010.83 470.301C1010.91 468.888 1011.54 467.566 1012.58 466.624C1013.62 465.682 1014.98 465.196 1016.37 465.273L1027.21 466.065C1028.61 466.188 1029.89 466.864 1030.8 467.947C1031.7 469.03 1032.15 470.431 1032.04 471.846C1032.04 471.846 1031.63 475.226 1031.01 480.473C1030.88 481.842 1030.68 483.393 1030.53 485.04C1028.73 500.688 1025.92 526.022 1025.19 536.969C1024.44 548.051 1023.73 573.122 1023.28 590.3C1023.23 591.937 1023.21 593.498 1023.16 594.985Z" fill="#F99746"/>
<path d="M1039.41 481.072C1039.28 482.441 1039.08 483.992 1038.93 485.639L1010.74 483.574C1010.61 483.575 1010.47 483.552 1010.35 483.505C1010.41 481.901 1010.47 480.43 1010.52 479.05C1010.69 478.988 1010.87 478.97 1011.04 478.997L1039.41 481.072Z" fill="#F9DDBF"/>
<path d="M1002.92 593.445C1003 593.489 1003.09 593.511 1003.18 593.509L1031.58 595.584C1031.64 594.119 1031.66 592.552 1031.68 590.899L1003.49 588.84C1003.47 588.834 1003.44 588.834 1003.42 588.839C1003.4 588.845 1003.38 588.856 1003.36 588.872L1002.92 593.445Z" fill="#F9DDBF"/>
<path d="M1054.6 483.772C1054.46 483.766 1054.32 483.702 1054.22 483.595C1054.13 483.488 1054.07 483.346 1054.08 483.2V420.409C1054.08 420.26 1054.13 420.118 1054.24 420.014C1054.34 419.909 1054.48 419.85 1054.63 419.85C1054.77 419.85 1054.91 419.909 1055.01 420.014C1055.12 420.118 1055.18 420.26 1055.18 420.409V483.211C1055.18 483.286 1055.16 483.361 1055.13 483.43C1055.1 483.499 1055.06 483.562 1055.01 483.614C1054.95 483.666 1054.89 483.707 1054.82 483.735C1054.75 483.762 1054.68 483.775 1054.6 483.772Z" fill="#ADCBFF"/>
<path d="M1054.35 494.34C1053.79 494.337 1053.25 494.112 1052.85 493.712C1052.46 493.312 1052.23 492.77 1052.22 492.201V484.457C1052.22 483.883 1052.45 483.334 1052.84 482.928C1053.24 482.523 1053.78 482.294 1054.35 482.291C1054.91 482.292 1055.46 482.521 1055.86 482.927C1056.26 483.333 1056.48 483.883 1056.48 484.457V492.174C1056.48 492.748 1056.26 493.298 1055.86 493.704C1055.46 494.11 1054.91 494.339 1054.35 494.34Z" fill="#F99746"/>
<path d="M1060.66 544.89C1060.09 544.889 1059.55 544.66 1059.15 544.254C1058.75 543.848 1058.53 543.298 1058.52 542.724V535.007C1058.53 534.433 1058.75 533.883 1059.15 533.477C1059.55 533.071 1060.09 532.842 1060.66 532.841C1061.22 532.849 1061.75 533.081 1062.15 533.486C1062.54 533.891 1062.76 534.437 1062.76 535.007V542.724C1062.76 543.294 1062.54 543.84 1062.15 544.245C1061.75 544.65 1061.22 544.882 1060.66 544.89Z" fill="#F99746"/>
<path d="M22.4874 372.287C17.5436 383.769 9.7462 385.16 6.96103 383.849C4.17586 382.539 -10.5503 370.185 -11.7191 372.469C-12.8879 374.752 -5.32743 386.101 1.68026 388.909C1.68026 388.909 -16.7945 399.364 -24.2866 391.946C-31.7787 384.529 -30.2518 377.373 -34.9692 372.875C-39.6867 368.377 -44.4462 366.746 -43.0194 370.169C-41.5926 373.592 -32.3526 379.624 -31.0732 386.449C-29.7938 393.273 -28.2143 398.113 -36.9963 393.529C-40.7167 391.499 -44.1697 389 -47.2735 386.09C-46.6066 380.386 -45.7625 374.681 -44.741 368.976C-44.2251 366.081 -43.6547 363.195 -43.0299 360.318C-42.8299 359.327 -42.6157 358.336 -42.3876 357.344C-42.0454 355.815 -41.6874 354.285 -41.3346 352.761C-37.0436 351.772 -25.3817 335.407 -25.3817 335.407C-25.3817 335.407 -4.20072 340.434 1.32224 345.921C1.32224 345.921 -21.0592 354.478 -17.6317 356.617C-14.2042 358.756 9.4619 350.943 9.4619 350.943C9.4619 350.943 27.4471 360.815 22.4874 372.287Z" fill="#AEC3FF"/>
<path d="M12.9789 369.378C-16.2575 360.42 -33.2107 359.008 -43.0299 360.339C-42.8298 359.348 -42.6157 358.357 -42.3876 357.366C-21.2698 356.275 11.8364 368.944 12.9789 369.378Z" fill="#AEC3FF"/>
<path d="M107.348 303.8C100.035 321.946 87.8995 324.416 83.4979 322.48C79.0964 320.544 55.5936 301.778 53.8667 305.367C52.1397 308.955 64.3703 326.438 75.4531 330.577C75.4531 330.577 46.9537 347.632 34.9654 336.31C22.977 324.989 25.0988 313.742 17.5541 306.896C10.0094 300.051 2.51733 297.681 4.86551 302.987C7.21369 308.292 21.8819 317.362 24.1406 327.983C26.3993 338.605 29.0476 346.119 15.1427 339.273C1.23794 332.428 -19.1691 314.105 -16.4103 301.377C-16.2892 300.842 -16.1733 300.307 -16.0628 299.772L-13.6514 288.632C-13.6514 288.632 -14.0358 287.664 -14.5623 286.044C-10.0667 278.32 -5.16132 270.851 0.132299 263.668C0.432402 263.261 0.732504 262.85 1.03787 262.443C5.127 256.956 9.51449 251.549 14.2003 246.222C18.1122 246.303 22.161 246.832 25.6727 248.185C25.6727 248.185 0.69565 270.952 5.13929 275.412C9.58293 279.872 31.1746 248.009 31.1746 248.009C31.1746 248.009 64.4808 255.052 73.2944 263.411C73.2944 263.411 38.6193 277.648 44.0211 280.851C49.423 284.055 86.1831 270.957 86.1831 270.957C86.1831 270.957 114.672 285.664 107.348 303.8Z" fill="#AEC3FF"/>
<path d="M92.3168 299.607C-0.346785 273.663 -14.0357 293.681 -16.0733 299.756C-16.2557 300.274 -16.3725 300.813 -16.4208 301.361C-17.9634 301.163 -20.6328 301.896 -23.6338 303.083C-22.3491 300.416 -21.0083 297.753 -19.6113 295.093C-17.4295 293.132 -15.4356 290.965 -13.6567 288.622C11.2362 270.893 89.5422 298.607 92.3168 299.607Z" fill="#AEC3FF"/>
<path d="M1439.1 578.043L1439.18 607.318C1439.18 608.988 1438.53 610.59 1437.37 611.775C1436.21 612.959 1434.64 613.629 1433 613.639L1421.18 613.671C1419.44 613.673 1417.77 612.975 1416.54 611.73C1415.31 610.485 1414.61 608.795 1414.6 607.029L1414.52 578.112C1414.52 575.767 1415.19 573.472 1416.44 571.506C1417.7 569.539 1419.49 567.985 1421.6 567.031C1421.87 566.915 1422.1 566.713 1422.25 566.455C1422.39 566.198 1422.45 565.899 1422.42 565.603C1422.39 565.426 1422.38 565.247 1422.38 565.068V563.523L1431.16 563.496V565.047C1431.16 565.246 1431.14 565.444 1431.12 565.641C1431.07 565.906 1431.12 566.18 1431.24 566.417C1431.37 566.655 1431.57 566.842 1431.81 566.951C1433.96 567.874 1435.8 569.417 1437.09 571.388C1438.39 573.36 1439.08 575.673 1439.1 578.043Z" fill="#FFA969"/>
<path d="M1439.1 578.043L1439.18 607.318C1439.18 608.988 1438.53 610.59 1437.37 611.775C1436.21 612.959 1434.64 613.63 1433 613.639H1425.57C1423.83 613.641 1422.17 612.943 1420.93 611.698C1419.7 610.453 1419 608.763 1418.99 606.997L1418.91 578.075C1418.91 575.73 1419.58 573.436 1420.83 571.47C1422.09 569.504 1423.88 567.951 1425.99 566.999C1426.2 566.91 1426.38 566.775 1426.52 566.603C1426.64 566.461 1426.73 566.295 1426.78 566.117C1426.83 565.938 1426.84 565.75 1426.82 565.566C1426.8 565.388 1426.79 565.21 1426.78 565.031V563.485H1431.17V565.036C1431.17 565.235 1431.15 565.433 1431.13 565.63C1431.08 565.896 1431.13 566.169 1431.25 566.406C1431.38 566.644 1431.58 566.832 1431.82 566.94C1433.97 567.866 1435.8 569.411 1437.1 571.384C1438.39 573.357 1439.09 575.672 1439.1 578.043Z" fill="#EF7E29"/>
<path d="M1434.21 578.053L1434.29 607.334C1434.29 609.004 1433.64 610.606 1432.48 611.79C1431.32 612.975 1429.75 613.645 1428.11 613.655H1425.55C1423.81 613.657 1422.14 612.959 1420.91 611.714C1419.68 610.469 1418.98 608.779 1418.97 607.013L1418.89 578.091C1418.89 575.746 1419.56 573.452 1420.81 571.486C1422.07 569.52 1423.86 567.967 1425.97 567.015C1426.18 566.926 1426.36 566.79 1426.5 566.619C1426.61 566.767 1426.76 566.881 1426.94 566.951C1429.08 567.878 1430.92 569.424 1432.21 571.396C1433.5 573.369 1434.19 575.684 1434.21 578.053Z" fill="#F99746"/>
<path d="M1439.09 580.519L1414.51 580.593L1414.56 597.776L1439.14 597.702L1439.09 580.519Z" fill="#F9DDBF"/>
<path d="M1431.58 561.118L1421.82 561.167L1421.83 563.515L1431.59 563.466L1431.58 561.118Z" fill="#2C3A64"/>
<path d="M1146.65 337.669C1146.76 335.347 1146.66 333.02 1146.35 330.716C1143.69 337.61 1140.03 341.108 1137.4 342.83C1136.79 343.022 1136.16 343.093 1135.52 343.038C1134.12 342.691 1132.74 342.233 1131.4 341.669C1135.25 338.653 1138.98 333.882 1139.22 333.583C1135.76 336.824 1131.55 339.038 1128.64 340.327C1121.49 336.375 1116.58 329.92 1113.9 325.668C1132.27 319.785 1137.67 308.078 1137.67 308.078C1121.35 321.315 1114.12 321.983 1111.59 321.502C1111.57 321.469 1111.56 321.435 1111.54 321.4C1136.1 314.79 1142.9 285.638 1151.19 275.407C1159.48 265.176 1169.53 273.006 1169.53 273.006C1169.53 273.006 1168.51 309.148 1146.65 337.669Z" fill="#A9453D"/>
<path d="M1189.45 329.139C1189.45 329.139 1205.51 337.797 1204.2 345.557C1202.09 357.927 1193.14 384.892 1193.14 384.892L1219.25 371.683L1223.91 377.405C1223.91 377.405 1192.21 409.558 1181.04 402.172C1169.87 394.786 1189.45 329.139 1189.45 329.139Z" fill="#F4A671"/>
<path d="M1223.83 377.426C1223.83 377.426 1232.54 373.02 1230.15 367.554C1227.77 362.088 1222.13 360.724 1221.03 362.741C1219.93 364.757 1219.14 371.683 1219.14 371.683L1223.83 377.426Z" fill="#C0783D"/>
<path d="M1193.37 281.857C1193.37 281.857 1175.76 260.373 1166.44 274.118C1166.44 274.118 1159.49 277.049 1156.96 289.093C1154.39 301.361 1162.42 310.683 1166.58 308.378C1169.24 306.902 1171.25 311.635 1171.25 311.635L1193.37 281.857Z" fill="#A9453D"/>
<path d="M1187.83 328.994C1187.9 329.026 1181.36 332.471 1176.44 331.134C1171.82 329.85 1165.95 328.278 1166.01 328.262C1167.97 327.866 1171.38 320.614 1171.34 308.864L1172.22 309.041L1187.12 312.036C1187.12 312.036 1186.78 316.795 1186.77 321.282C1186.76 325.021 1186.98 328.593 1187.83 328.994Z" fill="#FFB27D"/>
<path d="M1187.12 312.009C1187.12 312.009 1186.78 316.769 1186.77 321.256C1178.43 321.015 1174.03 313.292 1172.22 309.014L1187.12 312.009Z" fill="#F4A671"/>
<path d="M1170.68 307.367C1170.68 307.367 1166.32 300.356 1165.27 294.36C1164.52 290.082 1166.67 274.225 1182.36 276.509C1185.52 276.953 1188.54 278.114 1191.2 279.905C1194.61 282.242 1199.53 287.285 1194.02 301.126L1192.6 305.8L1170.68 307.367Z" fill="#A9453D"/>
<path d="M1189.9 316.255C1189.9 316.255 1170.18 316.587 1170.17 304.11C1170.15 291.633 1167.6 283.252 1180.17 282.536C1192.74 281.819 1195.21 286.558 1196.21 290.718C1197.21 294.879 1195.03 315.849 1189.9 316.255Z" fill="#FFB27D"/>
<path d="M1189.17 282.231C1189.17 282.231 1183.77 296.869 1175.48 299.029C1167.19 301.19 1163.6 298.938 1163.6 298.938C1167.69 295.292 1170.4 290.316 1171.27 284.862C1171.27 284.862 1185.1 275.263 1189.17 282.231Z" fill="#A9453D"/>
<path d="M1187.83 283.418C1187.83 283.418 1191.87 286.686 1192.84 289.863C1193.82 293.039 1194.27 299.58 1196.15 299.356C1196.15 299.356 1200.22 289.408 1195.62 283.782C1190.8 277.813 1187.83 283.418 1187.83 283.418Z" fill="#A9453D"/>
<path d="M1147.56 422.457C1154.47 406.707 1157.77 402.252 1157.89 397.321C1157.9 395.354 1157.78 393.389 1157.53 391.438C1157.09 387.685 1156.38 383.967 1155.43 380.314C1155.41 380.272 1155.4 380.229 1155.39 380.186C1155.31 379.822 1155.12 379.015 1154.87 377.865C1152.98 368.367 1147.94 335.16 1166.03 328.213L1166.56 328.165C1174.45 327.63 1189.49 329.165 1189.49 329.165C1191.63 332.292 1193.58 335.551 1195.33 338.926C1198.71 345.445 1202.42 354.371 1202.97 362.954C1203.53 371.714 1200.61 377.811 1199.36 386.641C1198.27 394.23 1198.42 403.83 1203.04 418.879C1213.3 452.133 1143.73 431.163 1147.56 422.457Z" fill="#FFB27D"/>
<path d="M1188.58 283.911C1188.58 283.911 1184.74 299.238 1174.28 304.148C1174.28 304.148 1184.74 294.735 1185.62 284.616C1186.51 274.498 1188.58 283.911 1188.58 283.911Z" fill="#A9453D"/>
<path d="M1199.37 386.641C1199.37 386.641 1173.12 394.278 1157.53 391.417C1157.09 387.663 1156.38 383.946 1155.43 380.293C1155.41 380.251 1155.4 380.208 1155.39 380.165C1155.31 379.801 1155.12 378.993 1154.87 377.844C1158.34 375.858 1161.96 374.162 1165.7 372.774L1199.37 386.641Z" fill="#F4A671"/>
<path d="M1202.82 369.185C1202.17 374.977 1200.3 380.047 1199.37 386.641C1181.32 389.048 1161.63 382.577 1155.43 380.293C1155.41 380.251 1155.4 380.208 1155.39 380.165C1154.57 376.801 1145.77 335.984 1166.05 328.192C1168.68 329.053 1170.6 332 1174.16 333.401C1180.99 335.997 1188.29 337.059 1195.57 336.514C1197.91 341.038 1200.18 349.13 1201.68 355.045C1202.36 357.635 1202.79 360.283 1202.98 362.955C1203.11 365.032 1203.06 367.117 1202.82 369.185Z" fill="#AEC3FF"/>
<path d="M1187.83 328.994C1187.83 328.994 1192.46 328.791 1193.93 329.796C1195.41 330.802 1202.88 339.712 1203.3 340.915C1203.3 340.915 1194.03 340.113 1193.14 340.712C1193.14 340.712 1196.52 338.712 1187.83 328.994Z" fill="#AEC3FF"/>
<path d="M1261.78 342.52C1261.78 342.52 1276.58 336.102 1277.17 338.107C1277.76 340.113 1278.95 349.13 1275.79 350.333C1272.63 351.536 1261.19 350.333 1261.19 350.333L1261.78 342.52Z" fill="#C0783D"/>
<path d="M1229.23 606.671L1221.99 604.435C1221.99 604.435 1188.54 565.293 1196.06 524.215C1196.16 523.785 1196.12 523.334 1195.94 522.931C1194.49 520.027 1188.27 507.352 1181.8 491.629C1178.71 484.099 1175.56 475.868 1172.85 467.67C1171.27 462.856 1169.82 458 1168.64 453.337C1168.64 453.289 1168.64 453.256 1168.62 453.23C1168.62 453.214 1168.62 453.198 1168.62 453.182C1165.71 441.662 1164.4 431.169 1166.21 423.992L1202.34 415.232C1202.34 415.232 1205.93 430.046 1209.74 449.192C1215.07 476.023 1220.84 511.368 1217.75 526.429C1215 539.756 1229.23 606.671 1229.23 606.671Z" fill="#FFB27D"/>
<path d="M1215.67 373.447C1217.62 375.766 1219.02 378.512 1219.74 381.47C1219.74 381.47 1223.81 377.453 1224.05 377.357C1224.29 377.261 1227.86 375.218 1229.41 372.907C1230.96 370.597 1232 368.629 1229.94 365.142C1227.87 361.655 1221.94 360.634 1221.25 361.334C1220.56 362.035 1218.69 370.752 1218.69 370.752C1218.69 370.752 1218.5 371.437 1215.67 373.447Z" fill="#213F7A"/>
<path d="M1181.8 491.602C1178.71 484.072 1175.56 475.841 1172.85 467.643C1171.27 462.829 1169.81 457.973 1168.64 453.31C1168.64 453.262 1168.64 453.23 1168.61 453.203C1168.61 453.187 1168.61 453.171 1168.61 453.155L1171.34 452.845L1199.07 449.732C1199.07 449.732 1199.25 451.871 1199.49 455.385C1200.07 463.958 1191.15 478.644 1181.8 491.602Z" fill="#F4A671"/>
<path d="M1197.53 425.067L1181.28 461.728L1181.04 461.605C1171.82 487.329 1158.61 520.535 1148.25 531.755C1139.05 541.708 1116.86 606.339 1116.86 606.339L1110.89 604.2C1110.89 604.2 1103.37 549.505 1130.9 518.412C1131.2 518.099 1131.4 517.693 1131.45 517.257C1131.69 514.256 1132.72 501.983 1134.9 486.848C1135.42 483.173 1136.02 479.36 1136.68 475.419C1137.65 469.739 1138.79 463.894 1140.05 458.166L1140.12 457.888C1140.17 456.497 1140.3 454.182 1140.64 451.16C1141.21 445.876 1142.11 440.634 1143.32 435.463C1143.37 435.282 1143.41 435.1 1143.45 434.929C1146.7 421.334 1151.35 414.488 1151.35 414.488C1151.35 414.488 1176.06 421.441 1184.64 422.029C1193.22 422.617 1197.53 425.067 1197.53 425.067Z" fill="#FFB27D"/>
<path d="M1209.72 449.17C1208.48 451.16 1204.46 453.401 1199.48 455.385H1199.42C1193.58 457.701 1187.52 459.384 1181.34 460.407C1176.82 461.081 1173.5 460.942 1173.12 459.449C1170.22 447.935 1164.38 431.105 1166.2 423.944L1202.32 415.178C1202.32 415.178 1205.91 430.019 1209.72 449.17Z" fill="#F99746"/>
<path d="M1110.51 614.554H1114.67C1116.05 614.329 1117.08 613.923 1118.51 613.73C1120.67 613.441 1121.67 614.345 1121.87 614.554L1121.9 614.596H1139.52C1139.96 613.949 1139.52 612.457 1139.12 611.388C1138.98 611.02 1138.76 610.689 1138.47 610.423C1138.18 610.157 1137.84 609.962 1137.47 609.853C1135.6 609.318 1131.91 608.783 1128.52 605.708C1126.62 603.965 1119.35 599.29 1119.35 599.29H1119.3C1119.15 599.29 1118.39 599.531 1115.09 602.366C1113.39 603.831 1110.47 600.296 1110.47 600.296C1110.07 600.668 1109.74 601.117 1109.51 601.617C1109.1 602.469 1108.97 603.432 1109.14 604.366C1109.4 605.97 1108.55 608.976 1107.87 611.008C1107.46 612.238 1107.12 613.11 1107.12 613.11C1107.12 613.11 1106.94 614.099 1110.51 614.554Z" fill="#485CA6"/>
<path d="M1109.54 601.595C1110.53 602.301 1112.62 603.702 1114.01 603.884C1115.88 604.13 1119.39 599.274 1119.39 599.274H1119.35C1119.19 599.274 1118.43 599.515 1115.13 602.349C1113.43 603.815 1110.51 600.28 1110.51 600.28C1110.1 600.649 1109.77 601.096 1109.54 601.595Z" fill="#A9453D"/>
<path d="M1110.51 614.554H1114.67C1116.06 614.329 1117.08 613.923 1118.51 613.73C1120.67 613.442 1121.67 614.345 1121.87 614.554L1121.9 614.597H1139.52C1139.96 613.95 1139.52 612.457 1139.12 611.388C1138.59 610.901 1138.43 613.484 1138.14 613.896C1137.84 614.308 1123.75 614.046 1122.94 613.447C1122.12 612.848 1119.68 611.794 1116.28 612.618C1113.32 613.34 1108.96 611.495 1107.86 611.013C1107.44 612.244 1107.1 613.115 1107.1 613.115C1107.1 613.115 1106.94 614.099 1110.51 614.554Z" fill="#A9453D"/>
<path d="M1218.8 614.554H1222.94C1224.33 614.329 1225.36 613.923 1226.79 613.73C1228.96 613.441 1229.95 614.345 1230.15 614.554L1230.19 614.596H1247.82C1248.26 613.949 1247.82 612.457 1247.42 611.388C1247.28 611.019 1247.06 610.689 1246.78 610.423C1246.49 610.156 1246.15 609.961 1245.77 609.853C1243.9 609.318 1240.21 608.783 1236.82 605.708C1234.92 603.965 1227.65 599.29 1227.65 599.29H1227.61C1227.45 599.29 1226.69 599.531 1223.4 602.366C1221.69 603.831 1218.78 600.296 1218.78 600.296C1218.38 600.668 1218.05 601.117 1217.82 601.617C1217.41 602.469 1217.28 603.432 1217.44 604.366C1217.71 605.97 1216.86 608.976 1216.18 611.008C1215.77 612.238 1215.42 613.11 1215.42 613.11C1215.42 613.11 1215.23 614.099 1218.8 614.554Z" fill="#485CA6"/>
<path d="M1217.82 601.595C1218.81 602.301 1220.91 603.702 1222.29 603.884C1224.17 604.13 1227.67 599.274 1227.67 599.274H1227.63C1227.47 599.274 1226.71 599.515 1223.42 602.349C1221.71 603.815 1218.8 600.28 1218.8 600.28C1218.39 600.649 1218.06 601.096 1217.82 601.595Z" fill="#A9453D"/>
<path d="M1218.8 614.554H1222.94C1224.33 614.329 1225.36 613.923 1226.79 613.73C1228.96 613.442 1229.95 614.345 1230.15 614.554L1230.19 614.597H1247.82C1248.26 613.95 1247.82 612.457 1247.42 611.388C1246.89 610.901 1246.74 613.484 1246.44 613.896C1246.15 614.308 1232.05 614.046 1231.24 613.447C1230.43 612.848 1227.99 611.794 1224.59 612.618C1221.62 613.34 1217.26 611.495 1216.16 611.013C1215.75 612.244 1215.4 613.115 1215.4 613.115C1215.4 613.115 1215.23 614.099 1218.8 614.554Z" fill="#A9453D"/>
<path d="M1202.82 369.185C1171.72 367.661 1158.55 355.039 1158.55 355.039H1201.68C1202.36 357.629 1202.79 360.277 1202.98 362.949C1203.11 365.028 1203.06 367.115 1202.82 369.185Z" fill="#94B0ED"/>
<path d="M1261.19 350.333C1261.19 350.333 1236.19 358.697 1218.02 359.147C1202.72 359.526 1176.26 361.441 1162.18 356.703C1159.52 355.809 1157.65 354.644 1156.88 353.135C1151.99 343.669 1160.04 333.882 1160.04 333.882C1160.04 333.882 1164.58 334.353 1171.42 335.016C1188.67 336.701 1210.9 341.835 1221.38 341.514C1236.02 341.065 1249.39 342.118 1261.82 342.519L1261.19 350.333Z" fill="#FFB27D"/>
<path d="M1162.16 356.702C1159.5 355.809 1157.63 354.643 1156.86 353.135C1151.97 343.669 1160.02 333.882 1160.02 333.882C1160.02 333.882 1164.56 334.353 1171.4 335.016C1169.79 336.674 1161.38 346.092 1162.16 356.702Z" fill="#AEC3FF"/>
<path d="M1257.84 342.365C1257.84 342.365 1258.5 347.943 1256.61 351.777C1256.61 351.777 1260.87 350.44 1261.24 350.456C1261.61 350.472 1270.19 351.167 1273.2 350.831C1276.21 350.494 1277.81 350.734 1278.11 345.172C1278.4 339.61 1278.25 337.359 1277.22 337.305C1276.19 337.252 1271.2 338.161 1262.03 342.167C1262.03 342.167 1261.49 342.445 1257.84 342.365Z" fill="#213F7A"/>
<path d="M1151.3 414.445C1151.3 414.445 1142.08 425.73 1140.09 457.856C1140.09 457.856 1152.51 460.428 1155.17 459.626C1157.84 458.824 1162.47 447.325 1162.47 447.325C1162.47 447.325 1159.91 458.647 1162.38 460.749C1164.85 462.851 1180.42 464.755 1180.42 464.755L1198.96 422.879C1198.96 422.879 1173.17 419.858 1151.3 414.445Z" fill="#F99746"/>
<path d="M1150.19 415.291C1150.19 415.291 1172.83 426.864 1188.36 423.404C1203.89 419.944 1203.06 418.874 1203.06 418.874L1200.49 409.584C1194.62 412.59 1188.1 414.036 1181.54 413.788C1170.74 413.339 1154.76 406.274 1154.76 406.274L1150.19 415.291Z" fill="#EF7E29"/>
</svg>
