<svg width="1362" height="631" viewBox="0 0 1362 631" fill="none" xmlns="http://www.w3.org/2000/svg">
<path d="M28.1814 629L1319.72 628.63C1319.72 628.63 1344.51 578.055 1356.11 510.837C1357.42 503.401 1358.5 495.67 1359.45 487.869C1359.59 486.541 1359.74 485.144 1359.89 483.747C1360.9 474.47 1361.55 465.045 1361.83 455.398C1362.2 444.155 1361.96 432.899 1361.11 421.683C1361.03 420.133 1360.89 418.588 1360.75 417.043C1359.73 405.831 1358.03 394.693 1355.67 383.693C1352.58 369.482 1348.19 355.598 1342.54 342.222C1334.14 322.355 1322.75 303.933 1308.78 287.613C1241.28 208.541 1148.98 204.493 1054.25 206.774L1046.21 206.996C992.633 208.477 938.555 211.414 887.808 203.387C885.124 203.021 882.46 202.577 879.835 202.064C860.477 198.608 841.702 193.374 823.652 185.771C774.552 165.159 733.396 130.703 674.17 86.3836C670.111 83.3621 665.978 80.2715 661.773 77.1809L656.12 72.9844C565.139 6.2059 332.221 -52.6141 200.356 77.1809C197.381 80.1432 194.411 83.2189 191.606 86.3836C181.476 97.3565 172.309 109.206 164.207 121.797C153.546 138.287 144.125 156.766 136.075 177.378C135.277 179.442 134.48 181.501 133.683 183.639C130.858 191.37 128.175 199.467 125.71 207.786C125.059 209.993 124.407 212.204 123.824 214.411C120.907 224.863 118.389 235.759 116.143 247.099C114.908 253.429 113.824 259.985 112.74 266.611C112.594 267.712 112.448 268.743 112.302 269.849C111.816 272.866 111.359 275.956 111 279.052C110.489 283.1 109.984 287.297 109.478 291.493C109.186 294.51 108.822 297.383 108.389 300.252C108.243 301.432 108.097 302.538 107.903 303.638C106.887 310.338 105.652 316.746 104.203 322.784V322.903C103.625 325.475 102.974 327.978 102.317 330.481C100.373 337.551 98.1169 344.251 95.7203 350.58C54.282 458.341 -49.7465 457.605 28.1814 629Z" fill="#EBF3FA"/>
<path d="M250.341 627.4C250.906 627.398 251.448 627.17 251.847 626.764C252.247 626.358 252.472 625.807 252.473 625.233V337.311C252.472 336.737 252.247 336.186 251.847 335.781C251.448 335.375 250.906 335.146 250.341 335.145C249.776 335.146 249.234 335.375 248.835 335.781C248.435 336.186 248.21 336.737 248.209 337.311V625.233C248.21 625.807 248.435 626.358 248.835 626.764C249.234 627.17 249.776 627.398 250.341 627.4Z" fill="#DCEAFF"/>
<path d="M161.882 627.4C162.447 627.398 162.989 627.17 163.388 626.764C163.788 626.358 164.013 625.807 164.014 625.233V337.311C164.013 336.737 163.788 336.186 163.388 335.781C162.989 335.375 162.447 335.146 161.882 335.145C161.317 335.147 160.776 335.376 160.377 335.781C159.977 336.187 159.752 336.737 159.75 337.311V625.233C159.752 625.807 159.977 626.357 160.377 626.763C160.776 627.169 161.317 627.398 161.882 627.4Z" fill="#DCEAFF"/>
<path d="M165.434 394.319H251.052C251.429 394.318 251.79 394.166 252.056 393.895C252.323 393.624 252.473 393.257 252.473 392.875C252.472 392.492 252.322 392.125 252.056 391.855C251.789 391.584 251.428 391.432 251.052 391.43H165.434C165.057 391.432 164.696 391.584 164.43 391.855C164.164 392.125 164.013 392.492 164.012 392.875C164.013 393.257 164.164 393.624 164.43 393.894C164.696 394.165 165.057 394.317 165.434 394.319Z" fill="#DCEAFF"/>
<path d="M165.434 363.839H251.052C251.428 363.838 251.789 363.686 252.055 363.416C252.322 363.146 252.472 362.78 252.473 362.397C252.473 362.015 252.323 361.648 252.056 361.377C251.79 361.106 251.429 360.954 251.052 360.953H165.434C165.057 360.955 164.696 361.107 164.43 361.378C164.164 361.648 164.013 362.015 164.012 362.397C164.013 362.78 164.164 363.146 164.43 363.416C164.696 363.686 165.057 363.838 165.434 363.839Z" fill="#DCEAFF"/>
<path d="M165.434 424.798H251.052C251.429 424.798 251.79 424.645 252.056 424.375C252.323 424.104 252.473 423.737 252.473 423.354C252.472 422.972 252.322 422.605 252.056 422.335C251.789 422.064 251.428 421.912 251.052 421.91H165.434C165.057 421.912 164.696 422.064 164.43 422.335C164.164 422.605 164.013 422.972 164.012 423.354C164.013 423.737 164.164 424.103 164.43 424.374C164.696 424.644 165.057 424.797 165.434 424.798Z" fill="#DCEAFF"/>
<path d="M165.434 455.278H251.052C251.428 455.277 251.789 455.124 252.056 454.854C252.322 454.583 252.472 454.217 252.473 453.834C252.473 453.451 252.323 453.084 252.056 452.814C251.79 452.543 251.429 452.391 251.052 452.39H165.434C165.057 452.391 164.696 452.544 164.43 452.814C164.164 453.085 164.013 453.452 164.012 453.834C164.013 454.217 164.164 454.583 164.43 454.854C164.696 455.124 165.057 455.277 165.434 455.278Z" fill="#DCEAFF"/>
<path d="M165.434 485.758H251.052C251.428 485.757 251.789 485.605 252.055 485.335C252.322 485.065 252.472 484.699 252.473 484.316C252.473 483.934 252.323 483.567 252.056 483.296C251.79 483.025 251.429 482.873 251.052 482.872H165.434C165.057 482.874 164.696 483.026 164.43 483.297C164.164 483.567 164.013 483.934 164.012 484.316C164.013 484.699 164.164 485.065 164.43 485.335C164.696 485.605 165.057 485.757 165.434 485.758Z" fill="#DCEAFF"/>
<path d="M165.434 516.235H251.052C251.429 516.234 251.79 516.082 252.056 515.811C252.323 515.541 252.473 515.174 252.473 514.791C252.472 514.408 252.322 514.042 252.056 513.771C251.789 513.501 251.428 513.348 251.052 513.347H165.434C165.057 513.348 164.696 513.501 164.43 513.771C164.164 514.042 164.013 514.408 164.012 514.791C164.013 515.174 164.164 515.54 164.43 515.811C164.696 516.081 165.057 516.234 165.434 516.235Z" fill="#DCEAFF"/>
<path d="M165.434 548.07H251.052C251.428 548.069 251.789 547.916 252.056 547.646C252.322 547.375 252.472 547.008 252.473 546.626C252.472 546.243 252.322 545.877 252.056 545.606C251.789 545.336 251.428 545.183 251.052 545.182H165.434C165.057 545.183 164.696 545.336 164.43 545.606C164.164 545.877 164.013 546.243 164.012 546.626C164.013 547.008 164.164 547.375 164.43 547.646C164.696 547.916 165.057 548.069 165.434 548.07Z" fill="#DCEAFF"/>
<path d="M165.434 580.585H251.052C251.429 580.584 251.79 580.432 252.056 580.161C252.323 579.89 252.473 579.523 252.473 579.141C252.472 578.758 252.322 578.392 252.055 578.122C251.789 577.852 251.428 577.7 251.052 577.699H165.434C165.057 577.7 164.696 577.852 164.43 578.122C164.164 578.392 164.013 578.758 164.012 579.141C164.013 579.523 164.164 579.89 164.43 580.16C164.696 580.431 165.057 580.583 165.434 580.585Z" fill="#DCEAFF"/>
<path d="M556.379 404.157V625.23C556.398 625.793 556.632 626.327 557.031 626.719C557.43 627.11 557.963 627.329 558.518 627.329C559.072 627.329 559.605 627.11 560.004 626.719C560.403 626.327 560.637 625.793 560.656 625.23V404.039L556.379 404.157Z" fill="#DCEAFF"/>
<path d="M467.925 401.534V625.23C467.924 625.513 467.979 625.794 468.085 626.055C468.191 626.317 468.347 626.554 468.544 626.755C468.741 626.955 468.975 627.113 469.233 627.221C469.49 627.329 469.766 627.384 470.044 627.384C470.324 627.387 470.601 627.334 470.86 627.228C471.119 627.121 471.354 626.962 471.552 626.762C471.749 626.561 471.905 626.322 472.01 626.059C472.115 625.796 472.168 625.514 472.164 625.23V402.238C470.737 402.044 469.31 401.808 467.925 401.534Z" fill="#DCEAFF"/>
<path d="M473.601 424.798H559.217C559.594 424.798 559.955 424.645 560.221 424.375C560.488 424.104 560.638 423.737 560.638 423.354C560.637 422.972 560.487 422.605 560.22 422.335C559.954 422.064 559.593 421.912 559.217 421.91H473.601C473.224 421.912 472.864 422.064 472.597 422.335C472.331 422.605 472.181 422.972 472.18 423.354C472.181 423.737 472.331 424.103 472.597 424.374C472.864 424.644 473.224 424.797 473.601 424.798Z" fill="#DCEAFF"/>
<path d="M473.601 455.278H559.217C559.593 455.277 559.954 455.124 560.22 454.854C560.487 454.583 560.637 454.217 560.638 453.834C560.638 453.451 560.488 453.084 560.221 452.814C559.955 452.543 559.594 452.391 559.217 452.39H473.601C473.224 452.391 472.864 452.544 472.597 452.814C472.331 453.085 472.181 453.452 472.18 453.834C472.181 454.217 472.331 454.583 472.597 454.854C472.864 455.124 473.224 455.277 473.601 455.278Z" fill="#DCEAFF"/>
<path d="M473.601 485.758H559.217C559.593 485.757 559.954 485.605 560.22 485.335C560.487 485.065 560.637 484.699 560.638 484.316C560.638 483.934 560.488 483.567 560.221 483.296C559.955 483.025 559.594 482.873 559.217 482.872H473.601C473.224 482.874 472.864 483.026 472.597 483.297C472.331 483.567 472.181 483.934 472.18 484.316C472.181 484.699 472.331 485.065 472.598 485.335C472.864 485.605 473.225 485.757 473.601 485.758Z" fill="#DCEAFF"/>
<path d="M473.601 516.235H559.217C559.594 516.234 559.955 516.082 560.221 515.811C560.488 515.541 560.638 515.174 560.638 514.791C560.637 514.408 560.487 514.042 560.22 513.771C559.954 513.501 559.593 513.348 559.217 513.347H473.601C473.224 513.348 472.864 513.501 472.597 513.771C472.331 514.042 472.181 514.408 472.18 514.791C472.181 515.174 472.331 515.54 472.597 515.811C472.864 516.081 473.224 516.234 473.601 516.235Z" fill="#DCEAFF"/>
<path d="M473.601 548.07H559.217C559.593 548.069 559.954 547.916 560.22 547.646C560.487 547.375 560.637 547.008 560.638 546.626C560.637 546.243 560.487 545.877 560.22 545.606C559.954 545.336 559.593 545.183 559.217 545.182H473.601C473.224 545.183 472.864 545.336 472.597 545.606C472.331 545.877 472.181 546.243 472.18 546.626C472.181 547.008 472.331 547.375 472.597 547.646C472.864 547.916 473.224 548.069 473.601 548.07Z" fill="#DCEAFF"/>
<path d="M473.601 580.585H559.217C559.594 580.584 559.955 580.432 560.221 580.161C560.488 579.89 560.638 579.523 560.638 579.141C560.637 578.758 560.487 578.392 560.22 578.122C559.954 577.852 559.593 577.7 559.217 577.699H473.601C473.225 577.7 472.864 577.852 472.598 578.122C472.331 578.392 472.181 578.758 472.18 579.141C472.181 579.523 472.331 579.89 472.597 580.16C472.864 580.431 473.224 580.583 473.601 580.585Z" fill="#DCEAFF"/>
<path d="M145.333 483.92V570.045H146.17V483.965L145.752 483.946C145.615 483.939 145.472 483.933 145.333 483.92Z" fill="#ADCBFF"/>
<path d="M77.595 527.707C82.9948 514.704 92.0518 503.609 103.631 495.813C115.21 488.016 128.797 483.864 142.689 483.878C143.576 483.878 144.46 483.895 145.341 483.93C145.48 483.93 145.622 483.93 145.759 483.946L146.178 483.965C161.171 484.73 175.533 490.331 187.178 499.954C198.824 509.578 207.146 522.722 210.936 537.479C214.726 552.235 213.787 567.835 208.255 582.012C202.722 596.189 192.885 608.205 180.171 616.314C167.458 624.424 152.531 628.205 137.558 627.107C122.586 626.01 108.347 620.092 96.9111 610.213C85.4751 600.333 77.4373 587.007 73.9651 572.17C70.4929 557.333 71.7671 541.758 77.6028 527.707H77.595ZM95.3282 603.744C103.011 611.548 112.447 617.336 122.824 620.609C133.2 623.881 144.204 624.539 154.886 622.527C165.569 620.515 175.609 615.892 184.14 609.058C192.672 602.224 199.438 593.384 203.856 583.3C208.274 573.217 210.211 562.192 209.499 551.179C208.787 540.165 205.448 529.492 199.769 520.082C194.091 510.672 186.245 502.807 176.907 497.165C167.569 491.523 157.02 488.274 146.17 487.698L145.752 487.677L145.333 487.659C144.452 487.626 143.568 487.608 142.681 487.607C129.437 487.607 116.49 491.598 105.478 499.073C94.4659 506.549 85.883 517.173 80.8145 529.604C75.7461 542.035 74.4197 555.714 77.0031 568.91C79.5865 582.107 85.9636 594.229 95.3282 603.744Z" fill="#C5DBFF"/>
<path d="M167.84 613.963C167.964 619.674 168.062 623.516 168.062 623.516C168.137 624.576 168.623 625.562 169.413 626.259C170.202 626.957 171.231 627.308 172.275 627.237L186.919 626.186C187.962 626.11 188.933 625.617 189.619 624.816C190.305 624.014 190.65 622.969 190.579 621.909C190.579 621.909 190.179 618.054 189.618 612.372C189.512 611.29 189.401 610.174 189.284 608.99C188.044 596.342 186.302 577.872 185.699 569.641C185.144 561.574 184.407 542.658 183.973 531.008C183.924 529.818 183.882 528.731 183.846 527.713C183.709 523.774 183.634 521.224 183.634 521.224C183.559 520.164 183.074 519.178 182.284 518.481C181.495 517.784 180.465 517.433 179.421 517.506L164.777 518.557C163.734 518.632 162.763 519.125 162.076 519.927C161.39 520.728 161.045 521.774 161.117 522.834C161.117 522.834 161.422 525.334 161.892 529.217C161.996 530.231 162.151 531.378 162.259 532.597C163.627 544.179 165.759 562.929 166.317 571.027C166.883 579.23 167.426 597.783 167.767 610.497C167.783 611.718 167.798 612.876 167.84 613.963Z" fill="#ED7D2B"/>
<path d="M174.244 613.506C174.368 619.22 174.467 623.061 174.467 623.061C174.542 624.121 175.028 625.107 175.817 625.804C176.607 626.501 177.636 626.852 178.68 626.78L186.919 626.191C187.962 626.115 188.933 625.622 189.619 624.821C190.305 624.019 190.65 622.974 190.579 621.914C190.579 621.914 190.179 618.059 189.618 612.377C189.512 611.295 189.401 610.18 189.284 608.995C188.044 596.347 186.302 577.877 185.699 569.646C185.144 561.579 184.407 542.664 183.973 531.013C183.924 529.824 183.882 528.737 183.846 527.718C183.709 523.779 183.634 521.23 183.634 521.23C183.559 520.169 183.074 519.183 182.284 518.486C181.495 517.789 180.465 517.438 179.421 517.511L171.182 518.097C170.138 518.173 169.167 518.666 168.481 519.469C167.795 520.271 167.45 521.317 167.522 522.377C167.522 522.377 167.827 524.874 168.297 528.758C168.401 529.771 168.556 530.919 168.664 532.137C170.031 543.719 172.164 562.47 172.722 570.57C173.288 578.77 173.831 597.326 174.172 610.038C174.19 611.269 174.203 612.419 174.244 613.506Z" fill="#F99746"/>
<path d="M161.892 529.214C161.996 530.228 162.151 531.375 162.259 532.594L183.676 531.068C183.777 531.065 183.877 531.046 183.973 531.013C183.924 529.823 183.882 528.736 183.846 527.718C183.716 527.672 183.577 527.659 183.44 527.678L161.892 529.214Z" fill="#F9DDBF"/>
<path d="M189.62 612.377C189.559 612.41 189.491 612.427 189.421 612.427L167.84 613.963C167.798 612.876 167.785 611.718 167.767 610.495L189.184 608.969C189.201 608.965 189.22 608.965 189.237 608.97C189.255 608.975 189.271 608.983 189.284 608.995L189.62 612.377Z" fill="#F9DDBF"/>
<path d="M150.35 531.213C150.46 531.212 150.567 531.167 150.645 531.088C150.723 531.008 150.768 530.9 150.768 530.788V484.312C150.768 484.199 150.724 484.091 150.646 484.011C150.567 483.931 150.461 483.886 150.35 483.886C150.239 483.886 150.132 483.931 150.053 484.011C149.975 484.091 149.931 484.199 149.931 484.312V530.788C149.932 530.9 149.976 531.008 150.054 531.088C150.133 531.167 150.239 531.212 150.35 531.213Z" fill="#ADCBFF"/>
<path d="M150.541 539.032C150.97 539.031 151.382 538.857 151.685 538.549C151.989 538.24 152.16 537.822 152.161 537.386V531.762C152.16 531.325 151.989 530.907 151.685 530.599C151.382 530.291 150.97 530.117 150.541 530.115C150.111 530.117 149.7 530.291 149.396 530.599C149.093 530.907 148.922 531.325 148.92 531.762V537.386C148.922 537.822 149.093 538.24 149.396 538.549C149.7 538.857 150.111 539.031 150.541 539.032Z" fill="#F99746"/>
<path d="M145.752 576.444C146.181 576.443 146.592 576.27 146.896 575.962C147.199 575.654 147.371 575.236 147.372 574.8V569.173C147.371 568.737 147.2 568.319 146.896 568.011C146.592 567.702 146.181 567.528 145.752 567.527C145.322 567.528 144.911 567.702 144.607 568.011C144.303 568.319 144.132 568.737 144.131 569.173V574.8C144.132 575.236 144.304 575.654 144.607 575.962C144.911 576.27 145.322 576.443 145.752 576.444Z" fill="#F99746"/>
<g opacity="0.5">
<path opacity="0.5" d="M112.372 269.419C114.107 267.938 115.23 267.044 115.23 267.044C114.462 266.695 113.675 266.388 112.873 266.125C112.703 267.217 112.533 268.313 112.372 269.419Z" fill="#C8DBF4"/>
<path opacity="0.5" d="M102.374 329.976C100.518 336.788 98.326 343.501 95.8065 350.089C97.2648 351.077 98.6598 352 100.011 352.771C112.785 360.084 110.705 352.805 109.188 342.603C108.527 338.159 105.611 333.853 102.374 329.976Z" fill="#C8DBF4"/>
<path opacity="0.5" d="M104.303 322.371C110.87 329.314 108.318 339.783 118.958 351.141C129.652 362.583 157.661 348.114 157.661 348.114C147.424 343.536 136.827 326.258 138.703 322.929C140.58 319.601 161.739 338.796 165.803 340.894C169.866 342.993 181.503 341.388 189.485 324.598C197.466 307.809 171.31 292.204 171.31 292.204C171.31 292.204 135.724 302.436 130.79 299.073C125.856 295.71 159.537 284.288 159.537 284.288C151.643 275.834 120.485 267.177 120.485 267.177C120.485 267.177 116.236 272.698 111.113 278.535C110.582 282.64 110.087 286.796 109.63 291.004C109.306 293.993 108.942 296.92 108.537 299.784C108.376 300.93 108.211 302.056 108.051 303.181C106.986 309.922 105.737 316.292 104.303 322.371Z" fill="#C8DBF4"/>
<path opacity="0.5" d="M108.518 299.814C108.357 300.96 108.192 302.085 108.032 303.211C123.178 304.436 144.745 309.033 175.446 319.73C173.128 318.747 138.042 303.883 108.518 299.814Z" fill="#C8DBF4"/>
</g>
<g opacity="0.5">
<path opacity="0.5" d="M123.926 213.968C121.052 224.401 118.5 235.296 116.27 246.654C127.834 253.005 141.226 257.597 151.648 259.32C174.294 263.064 167.392 253.508 159.741 239.365C152.814 226.571 131.952 219.958 123.926 213.968Z" fill="#D4E4F8"/>
<path opacity="0.5" d="M125.798 207.321C129.74 207.647 135.437 209.297 141.528 212.2C155.138 218.709 156.795 235.637 178.596 246.57C200.397 257.504 233.82 220.946 233.82 220.946C216.351 219.83 191.633 200.25 192.6 194.358C193.568 188.467 234.836 205.05 241.914 205.909C248.991 206.768 265.217 198.008 268.055 169.035C270.894 140.063 224.191 131.411 224.191 131.411C224.191 131.411 177.357 165.919 168.33 163.687C159.304 161.455 202.701 126.24 202.701 126.24C194.812 122.29 178.679 121.302 164.301 121.302C153.096 138.806 143.671 157.422 136.171 176.862C135.364 178.926 134.572 181.017 133.794 183.134C130.942 190.907 128.277 198.969 125.798 207.321Z" fill="#D4E4F8"/>
<path opacity="0.5" d="M136.18 176.877C135.374 178.941 134.581 181.032 133.803 183.149C156.708 176.186 191.696 170.67 245.078 169.544C245.078 169.544 183.248 166.388 136.18 176.877Z" fill="#D4E4F8"/>
</g>
<g opacity="0.7">
<path opacity="0.7" d="M1278.13 472.686C1279.37 487.095 1287.37 491.544 1290.9 491.159C1294.44 490.774 1315.02 482.789 1315.47 485.727C1315.92 488.665 1303.52 498.236 1294.83 498.68C1294.83 498.68 1311.23 517.045 1322.12 511.746C1333.01 506.448 1333.94 498.048 1340.74 494.892C1347.53 491.737 1353.32 491.747 1350.52 494.966C1347.72 498.186 1335.43 501.297 1331.54 508.299C1327.66 515.302 1324.17 519.983 1335.43 518.26C1341.55 517.326 1349.75 514.433 1356.09 510.438C1357.39 502.971 1358.52 495.292 1359.44 487.46C1359.6 486.093 1359.75 484.725 1359.92 483.347C1360.9 474.073 1361.59 464.582 1361.87 454.982C1357.91 453.239 1352.52 451.432 1347.71 451.728C1347.71 451.728 1360.4 473.337 1356.29 475.485C1352.19 477.634 1343.87 450.336 1343.87 450.336C1343.87 450.336 1318.88 447.866 1310.85 451.817C1310.85 451.817 1332.2 469.594 1327.71 470.626C1323.21 471.658 1300.14 454.256 1300.14 454.256C1300.14 454.256 1276.89 458.276 1278.13 472.686Z" fill="#C8DBF4"/>
<path opacity="0.7" d="M1289.55 473.076C1332.15 474.493 1351.1 481.244 1359.46 487.441C1359.62 486.073 1359.77 484.705 1359.94 483.327C1338.79 471.155 1289.55 473.076 1289.55 473.076Z" fill="#C8DBF4"/>
<path opacity="0.7" d="M1210.25 365.941C1211.66 388.524 1224.02 395.783 1229.54 395.319C1235.06 394.855 1267.57 383.176 1268.16 387.753C1268.75 392.331 1249.01 406.879 1235.42 407.225C1235.42 407.225 1260.37 436.573 1277.6 428.701C1294.83 420.83 1296.6 407.724 1307.33 403.057C1318.07 398.39 1327.14 398.613 1322.63 403.551C1318.13 408.489 1298.81 412.884 1292.47 423.649C1286.12 434.415 1280.51 441.639 1298.2 439.373C1315.89 437.106 1344.87 424.711 1346.46 409.743C1346.53 409.096 1346.6 408.474 1346.66 407.882L1348.07 394.795C1351.03 391.271 1353.58 387.412 1355.68 383.294C1352.6 369.077 1348.21 355.188 1342.55 341.813C1336.37 338.85 1327.65 335.561 1319.84 335.848C1319.84 335.848 1338.87 370.119 1332.38 373.324C1325.88 376.529 1313.88 333.586 1313.88 333.586C1313.88 333.586 1274.9 328.781 1262.2 334.613C1262.2 334.613 1294.93 363.191 1287.86 364.667C1280.79 366.144 1245.36 338.025 1245.36 338.025C1245.36 338.025 1208.85 343.364 1210.25 365.941Z" fill="#D4E4F8"/>
<path opacity="0.7" d="M1346.66 407.867C1346.68 408.494 1346.61 409.12 1346.46 409.729C1349.72 410.405 1356.01 416.079 1361.15 421.21C1361.03 419.664 1360.91 418.124 1360.76 416.573C1351.21 405.136 1348.07 394.761 1348.07 394.761C1326.95 365.537 1228.11 366.993 1228.11 366.993C1338.94 373.383 1346.66 400.46 1346.66 407.867Z" fill="#D4E4F8"/>
</g>
<path d="M314.365 427.395C314.365 427.395 329.283 427.695 333.424 438.657C337.564 449.62 339.485 462.386 342.728 467.49C345.972 472.595 334.905 482.846 313.39 483.804C291.876 484.763 280.79 480.367 282.861 471.826C284.931 463.284 282.744 423.94 314.365 427.395Z" fill="#2B478B"/>
<path d="M275.593 589.273C276.244 586.122 285.342 570.454 285.993 568.475C286.645 566.495 282.243 546.182 279.167 531.948C276.092 517.714 284.742 493.662 284.742 493.662C284.742 493.662 290.586 492.231 298.852 489.752C300.075 489.382 301.158 488.64 301.952 487.625C302.747 486.61 303.215 485.372 303.295 484.078C303.6 479.215 303.313 473.625 303.313 473.625L321.206 474.032C320.689 477.739 321.056 481.98 321.511 485.438C321.646 486.434 322.071 487.367 322.732 488.116C323.393 488.865 324.26 489.395 325.22 489.639C331.615 491.28 334.129 492.937 341.061 496.204C341.061 496.204 340.961 496.96 340.78 498.346L340.909 498.239C340.909 498.239 341.235 508.479 341.017 521.652C340.824 533.534 333.75 563.06 332.369 568.716C332.328 569.094 332.289 569.475 332.25 569.853C337.011 577.772 343.799 589.252 343.799 589.252C343.799 589.252 274.944 592.408 275.593 589.273Z" fill="#FFB27D"/>
<path d="M252.794 604.377C269.304 617.918 292.972 625.283 292.972 625.283C292.972 625.283 312.026 625.64 333.633 625.283C354.62 624.936 375.142 599.627 375.142 599.627C375.142 599.627 357.644 599.401 352.845 595.402C349.498 592.616 345.458 587.981 341.534 582.948C338.709 579.332 335.947 575.512 333.54 572.014C333.54 572.014 328.583 576.767 308.438 576.255C288.294 575.743 283.391 573.558 283.391 573.558C283.391 573.558 281.015 576.415 277.878 580.031C274.091 584.389 269.204 589.854 266.056 592.747C264.665 594.018 252.794 604.377 252.794 604.377Z" fill="#F99746"/>
<path d="M311.62 445.303C311.62 445.303 304.037 445.164 302.315 447.745C300.594 450.326 300.359 453.209 299.49 454.664C298.963 455.6 298.712 456.672 298.769 457.749C298.769 457.749 292.24 440.768 307.314 444.15C308.399 444.394 311.62 445.303 311.62 445.303Z" fill="#B5453C"/>
<path d="M405.669 549.404C405.589 549.378 405.506 549.351 405.411 549.33C405.468 549.343 405.545 549.375 405.669 549.404Z" fill="#5153A0"/>
<path d="M252.794 604.519C269.304 617.97 292.972 625.283 292.972 625.283C292.972 625.283 312.026 625.64 333.633 625.283C354.62 624.942 375.142 599.813 375.142 599.813C375.142 599.813 357.644 599.587 352.845 595.612C349.498 592.844 345.458 588.242 341.534 583.242C340.635 583.796 321.666 595.365 310.431 594.795C299.015 594.218 278.203 580.556 277.865 580.354C274.078 584.684 269.191 590.111 266.043 592.986C264.665 594.228 252.794 604.519 252.794 604.519Z" fill="#ED7D2B"/>
<path d="M250.514 603.752C255.541 608.173 270.444 613.034 284.489 616.88C288.425 617.957 292.3 618.955 295.861 619.842C299.079 620.864 305.616 622.97 312.618 625.446C322.499 628.941 326.833 627.284 331.718 626.391C336.603 625.498 342.144 628.993 349.397 626.299C356.649 623.605 354.825 609.092 354.825 609.092C352.367 607.457 342.816 606.992 336.35 611.702C329.883 616.413 321.222 615.539 321.222 615.539C320.888 615.573 320.1 615.171 319.02 614.488C319.02 614.488 312.734 610.749 301.142 601.375C297.415 598.358 293.13 594.756 288.338 590.507C279.196 582.407 271.308 571.749 262.197 569.785C246.671 566.437 241.15 572.565 241.15 572.565C241.15 572.565 237.317 592.156 250.514 603.752Z" fill="#F2A672"/>
<path d="M274.525 612.564C274.525 612.564 274.854 625.202 279.418 626.706C285.691 628.773 290.62 625.461 295.797 626.425C300.974 627.389 305.174 628.762 315.606 625.06C322.53 622.599 329.027 620.488 332.61 619.341C334.365 618.863 336.184 618.359 338.037 617.826C351.896 613.856 367.668 608.544 372.71 603.752C384.912 592.156 380.237 571.576 380.237 571.576C380.237 571.576 376.264 566.432 361.904 569.78C353.478 571.744 344.776 580.228 336.357 588.283C332.863 591.623 329.552 594.717 326.518 597.508C315.941 607.223 308.684 613.262 308.684 613.262L308.717 613.325C307.614 614.029 306.807 614.433 306.466 614.397C306.466 614.397 300.956 616.621 291.38 613.346C284.709 611.057 277.113 610.82 274.525 612.564Z" fill="#FFB27D"/>
<path d="M320.958 477.954C320.958 477.954 317.428 486.273 311.62 485.779C305.812 485.286 303.429 477.768 303.429 477.768L320.958 477.954Z" fill="#E8945B"/>
<path d="M301.281 475.743C306.019 480.32 311.907 486.417 324.528 475.069C326.999 472.85 327.864 468.31 327.994 463.423C328.151 457.647 328.467 455.231 327.82 451.899C327.045 447.913 322.708 440.561 315.737 439.965C302.941 438.875 298.648 447.317 298.345 453.829C297.691 467.903 296.474 471.091 301.281 475.743Z" fill="#FFB27D"/>
<path d="M325.218 489.649L329.32 519C329.32 519 332.494 524.777 337.358 532.439C340.8 537.85 345.083 544.192 349.689 550.071C350.516 551.121 351.351 552.171 352.196 553.187C359.156 561.59 366.608 568.417 372.839 569.205C373.028 569.228 373.222 569.244 373.418 569.257H373.713C375.618 569.325 377.74 568.879 379.976 568.07L380.332 567.939C380.384 567.923 380.435 567.904 380.485 567.881C393.568 562.892 411.87 545.234 411.87 545.234L410.908 543.309L407.308 540.35C395.395 547.39 378.386 552.494 375.137 552.673C374.01 552.736 370.485 546.573 366.205 538.318C358.164 522.826 347.471 499.945 345.034 497.146C344.176 496.159 342.664 495.232 340.847 494.386C334.758 491.55 325.218 489.649 325.218 489.649Z" fill="#FFB27D"/>
<path d="M213.66 546.072C213.66 546.072 238.074 570.778 251.008 569.179C256.883 568.456 263.841 562.352 270.449 554.603C271.028 553.925 271.607 553.235 272.179 552.534C284.151 537.911 294.53 518.987 294.53 518.987L295.911 509.652L298.852 489.744C298.852 489.744 290.824 491.269 284.748 493.664C282.163 494.683 279.932 495.854 278.818 497.135C276.115 500.242 263.259 528.025 255.128 543.086C252.026 548.831 249.607 552.725 248.71 552.676C245.461 552.497 228.55 547.385 216.645 540.334L213.828 545.736L213.66 546.072Z" fill="#FFB27D"/>
<path d="M278.818 497.143C279.932 495.865 283.272 493.974 286.74 492.722L293.163 491.044C293.163 491.044 293.628 504.53 312.194 504.698C330.759 504.866 330.524 490.897 330.524 490.897L340.847 494.386C342.656 495.232 344.176 496.159 345.034 497.146C347.471 499.945 358.164 522.815 366.205 538.318C366.181 538.494 365.473 543.832 360.736 548.34C358.712 550.265 355.951 552.035 352.206 553.182C347.776 547.844 343.553 541.873 339.96 536.435C339.821 536.225 339.702 536.02 339.552 535.81C339.552 535.81 337.645 557.441 338.048 562.123C339.025 573.495 334.303 573.104 334.303 573.104C311.271 581.506 283.386 573.553 283.386 573.553C283.386 573.553 279.036 573.493 281.731 561.212C283.075 555.094 281.473 544.37 280.816 541.256C280.801 541.188 280.788 541.12 280.772 541.049C277.558 545.742 274.112 550.267 270.449 554.608C267.115 553.904 263.975 552.459 261.253 550.378C258.724 548.414 256.636 545.924 255.128 543.076C263.259 528.033 276.115 500.25 278.818 497.143Z" fill="#F9DDBF"/>
<path d="M407.339 547.592C407.339 547.592 414.997 553.933 417.572 554.461C420.146 554.989 429.125 555.286 429.125 555.286C429.125 555.286 428.804 553.156 424.679 552.224C420.554 551.292 418.494 544.914 416.228 542.847C415.027 541.757 413.593 540.964 412.039 540.532C410.486 540.1 408.855 540.041 407.274 540.358L407.339 547.592Z" fill="#FFB27D"/>
<path d="M409.164 540.156C409.164 540.156 415.827 540.077 418.125 541.135C419.531 541.784 421.25 544.402 424.814 545.468C426.044 545.838 425.008 546.665 424.423 546.854C423.222 547.246 415.768 546.001 415.768 546.001L409.164 540.156Z" fill="#FFB27D"/>
<path d="M417.931 553.122C418.295 553.229 427.773 557.938 427.773 557.938C427.773 557.938 428.132 555.049 426.783 554.684C425.434 554.319 417.931 553.122 417.931 553.122Z" fill="#FFB27D"/>
<path d="M426.209 546.652C426.209 546.652 425.951 550.725 425.32 551.476C424.69 552.227 421.482 552.182 421.482 552.182C421.482 552.182 419.905 549.942 419.874 549.75C419.843 549.559 423.883 549.714 424.01 549.522C424.136 549.33 424.622 546.397 426.209 546.652Z" fill="#FFB27D"/>
<path d="M214.872 547.345C214.872 547.345 205.937 551.63 203.314 551.515C200.69 551.399 191.905 549.496 191.905 549.496C191.905 549.496 192.719 547.508 196.943 547.61C201.166 547.713 204.513 541.65 207.369 540.571C212.717 538.546 216.645 540.34 216.645 540.34L214.872 547.345Z" fill="#FFB27D"/>
<path d="M214.875 539.83C214.875 539.83 208.413 537.992 205.935 538.449C204.417 538.735 202.127 540.854 198.416 541.02C197.124 541.078 197.945 542.136 198.468 542.461C199.54 543.134 207.072 543.748 207.072 543.748L214.875 539.83Z" fill="#FFB27D"/>
<path d="M203.283 550.129C202.905 550.145 192.588 552.4 192.588 552.4C192.588 552.4 192.926 549.512 194.322 549.483C195.718 549.454 203.283 550.129 203.283 550.129Z" fill="#FFB27D"/>
<path d="M196.777 541.829C196.777 541.829 196.054 545.843 196.498 546.726C196.943 547.608 200.057 548.348 200.057 548.348C200.057 548.348 202.125 546.56 202.192 546.382C202.259 546.203 198.315 545.368 198.248 545.153C198.181 544.938 198.377 541.968 196.777 541.829Z" fill="#FFB27D"/>
<path d="M316.376 441.708C316.376 441.708 322.385 443.418 323.008 450.725C323.646 458.261 328.211 459.201 328.211 459.201C328.211 459.201 331.829 457.626 330.485 452.574C329.141 447.522 328.203 442.462 325.218 440.613C322.232 438.765 317.376 438.513 317.376 438.513L316.376 441.708Z" fill="#2B478B"/>
<path d="M316.376 441.708C316.376 441.708 311.801 439.87 309.694 445.358C307.588 450.846 310.777 458.309 301.796 460.706C292.814 463.103 289.863 452.382 289.744 448.858C289.625 445.335 294.471 434.133 306.758 433.072C319.046 432.011 321.989 440.041 316.376 441.708Z" fill="#2B478B"/>
<path d="M317.409 472.306C317.409 472.306 315.99 475.168 311.622 475.168C310.474 475.201 309.341 474.896 308.359 474.29C307.377 473.685 306.588 472.805 306.086 471.755C309.858 471.153 313.711 471.34 317.409 472.306Z" fill="white"/>
<path d="M455.372 505.483C455.521 505.252 461.642 496.148 472.544 494.678C481.375 493.488 489.375 500.084 490.414 509.072C491.448 518.107 489.67 529.7 475.095 533.376L455.372 505.483Z" fill="#2C3A64"/>
<path d="M464.395 549.167H464.413C466.716 550.221 469.331 550.325 471.709 549.458C474.086 548.59 476.038 546.819 477.155 544.517C477.155 544.517 475.41 540.193 475.087 533.368C474.941 530.088 475.143 526.8 475.692 523.564L461.278 529.32C461.42 530.396 461.497 531.479 461.51 532.565C461.544 534.642 459.776 543.653 459.768 543.674C458.592 547.285 460.985 547.605 464.395 549.167Z" fill="#FFB27D"/>
<path d="M460.362 540.589C468.184 541.164 475.095 533.376 475.095 533.376L461.518 532.573C461.551 534.65 460.936 537.289 460.362 540.589Z" fill="#EA9C68"/>
<path d="M457.202 535.209C457.202 535.209 472.355 540.951 478.951 528.907C486.069 515.923 480.678 505.399 475.457 504.199C465.048 501.807 458.53 505.273 456.256 509.4C453.981 513.528 448.83 532.118 457.202 535.209Z" fill="#FFB27D"/>
<path d="M464.061 528.752C464.061 528.752 463.25 530.328 459.233 528.989C459.233 528.989 455.873 527.875 456.434 526.071C456.434 526.071 460.081 525.641 464.061 528.752Z" fill="white"/>
<path d="M468.993 505.436C468.993 505.436 467.031 520 480.499 525.653C485.855 527.909 489.458 505.698 478.271 500.825C467.085 495.951 455.721 500.851 454.113 508.597C452.505 516.343 453.467 517.999 453.467 517.999C453.467 517.999 459.29 503.38 468.993 505.436Z" fill="#2C3A64"/>
<path d="M486.661 508.093C487.199 506.144 486.813 505.588 486.198 505.414C485.583 505.241 484.973 505.512 484.436 507.46C484.129 508.73 484.178 510.063 484.578 511.307C485.553 510.453 486.275 509.34 486.661 508.093Z" fill="#F99746"/>
<path d="M482.195 508.077C480.644 506.798 479.998 506.932 479.595 507.436C479.191 507.94 479.191 508.618 480.735 509.897C481.758 510.689 482.979 511.176 484.26 511.301C483.881 510.052 483.166 508.935 482.195 508.077Z" fill="#F99746"/>
<path d="M488.196 509.786C490.168 509.508 490.662 509.967 490.75 510.611C490.838 511.254 490.492 511.832 488.517 512.113C487.237 512.252 485.944 512.025 484.785 511.456C485.747 510.588 486.928 510.009 488.196 509.786Z" fill="#F99746"/>
<path d="M487.284 514.266C488.181 516.072 487.909 516.695 487.341 516.986C486.772 517.278 486.118 517.131 485.219 515.324C484.677 514.138 484.471 512.823 484.624 511.525C485.745 512.169 486.666 513.118 487.284 514.266Z" fill="#F99746"/>
<path d="M480.773 512.417C479.083 513.486 478.995 514.161 479.334 514.712C479.672 515.264 480.305 515.479 481.996 514.408C483.065 513.68 483.913 512.663 484.443 511.472C483.157 511.434 481.886 511.762 480.773 512.417Z" fill="#F99746"/>
<path d="M485.451 511.309C485.458 511.14 485.414 510.973 485.326 510.829C485.239 510.685 485.111 510.57 484.96 510.5C484.808 510.429 484.639 510.406 484.475 510.433C484.31 510.461 484.157 510.537 484.035 510.652C483.913 510.768 483.828 510.917 483.789 511.082C483.751 511.247 483.762 511.419 483.82 511.578C483.879 511.737 483.982 511.874 484.117 511.973C484.253 512.072 484.414 512.128 484.58 512.134C484.804 512.142 485.021 512.059 485.184 511.905C485.347 511.75 485.443 511.536 485.451 511.309Z" fill="#FFB93E"/>
<path d="M498.22 610.219C500.804 608.347 492.792 604.765 489.91 601.068C487.842 598.411 485.806 595.601 484.035 593.033C484.035 593.033 480.393 596.523 465.591 596.15C450.789 595.777 447.186 594.165 447.186 594.165C447.186 594.165 445.441 596.266 443.136 598.923C440.355 602.126 436.762 606.141 434.449 608.268C433.431 609.203 478.209 624.661 498.22 610.219Z" fill="#77A4E5"/>
<path d="M426.809 610.145C430.515 613.661 442.107 617.555 452.293 620.465C453.653 620.856 454.992 621.226 456.281 621.575C458.287 622.216 461.536 623.269 465.219 624.529C466.372 624.921 467.568 625.336 468.781 625.769C476.447 628.484 479.53 627.473 483.337 626.761C487.144 626.05 490.763 628.481 495.371 626.958C498.731 625.848 498.959 616.565 498.959 616.565C497.056 615.284 491.463 615.46 486.565 617.143C479.53 619.554 475.483 617.931 475.483 617.931C475.224 617.957 474.637 617.668 473.828 617.143L473.854 617.098C473.854 617.098 472.079 616.195 469.321 614.785C460.815 610.434 442.924 601.262 438.734 598.889C425.612 591.458 422.425 596.381 422.425 596.381C422.425 596.381 417.838 601.627 426.809 610.145Z" fill="#F2A672"/>
<path d="M536.441 585.891C536.382 585.87 536.319 585.852 536.26 585.837C536.291 585.847 536.353 585.868 536.441 585.891Z" fill="#5153A0"/>
<path d="M482.371 562.43C482.371 562.43 496.384 594.488 503.88 595.499C511.22 596.486 530.638 586.267 530.638 586.267L528.747 582.541C519.574 583.646 510.913 584.97 508.53 584.783C507.703 584.718 499.163 571.072 493.063 551.436C492.389 549.272 482.371 562.43 482.371 562.43Z" fill="#FFB27D"/>
<path d="M398.929 585.891C398.988 585.87 399.05 585.852 399.112 585.837C399.084 585.847 399.016 585.868 398.929 585.891Z" fill="#5153A0"/>
<path d="M452.231 563.005C452.231 563.005 437.134 594.551 429.608 595.302C422.239 596.032 403.183 585.135 403.183 585.135L405.199 581.478C414.328 582.906 422.937 584.534 425.328 584.429C426.155 584.395 435.149 571.056 441.921 551.651C442.666 549.511 452.231 563.005 452.231 563.005Z" fill="#FFB27D"/>
<path d="M433.862 563.599C436.447 566.765 440.114 570.265 444.338 571.213C444.338 571.213 443.821 591.308 445.511 594.181C448.543 599.351 478.594 601.578 486.865 592.705C488.201 591.272 487.84 573.256 487.84 573.256C487.846 573.265 487.852 573.273 487.858 573.282C494.909 572.185 499.297 568.672 502.055 565.103C497.514 556.656 493.151 548.382 491.877 547.03C491.244 546.361 490.21 545.796 488.814 545.074C484.521 542.85 476.377 542.036 476.377 542.036C476.377 542.036 477.535 549.525 467.473 548.999C457.935 548.501 460.205 541.542 460.205 541.542C460.205 541.542 450.934 543.32 449.042 544.029C446.53 544.969 444.041 546.161 443.221 547.03C442.032 548.304 438.111 555.695 433.862 563.599Z" fill="#AFCDFB"/>
<path d="M527.907 586.306C527.907 586.306 532.174 588.822 533.484 588.877C534.795 588.932 539.243 588.352 539.243 588.352C539.243 588.352 538.92 587.328 536.816 587.196C534.712 587.065 533.197 584.085 531.923 583.258C531.248 582.814 530.48 582.536 529.681 582.445C528.882 582.353 528.073 582.452 527.317 582.733L527.907 586.306Z" fill="#FFB27D"/>
<path d="M528.229 582.496C528.229 582.496 531.509 581.924 532.724 582.265C533.466 582.473 534.518 583.625 536.356 583.867C536.991 583.951 536.544 584.442 536.273 584.581C535.709 584.87 531.938 584.844 531.938 584.844L528.229 582.496Z" fill="#FFB27D"/>
<path d="M533.556 588.189C533.745 588.213 538.783 589.777 538.783 589.777C538.783 589.777 538.733 588.32 538.041 588.252C537.348 588.184 533.556 588.189 533.556 588.189Z" fill="#FFB27D"/>
<path d="M537.139 584.339C537.139 584.339 537.33 586.367 537.072 586.787C536.813 587.207 535.234 587.443 535.234 587.443C535.234 587.443 534.285 586.464 534.254 586.372C534.223 586.28 536.229 586.033 536.268 585.931C536.306 585.828 536.327 584.339 537.139 584.339Z" fill="#FFB27D"/>
<path d="M405.126 585.188C405.126 585.188 400.859 587.706 399.551 587.761C398.244 587.816 393.793 587.236 393.793 587.236C393.793 587.236 394.113 586.212 396.22 586.08C398.326 585.949 399.838 582.969 401.11 582.142C401.785 581.698 402.553 581.419 403.352 581.328C404.151 581.237 404.96 581.336 405.716 581.617L405.126 585.188Z" fill="#FFB27D"/>
<path d="M404.803 581.378C404.803 581.378 401.524 580.808 400.309 581.147C399.567 581.357 398.515 582.509 396.69 582.751C396.054 582.835 396.502 583.326 396.776 583.465C397.336 583.754 401.11 583.728 401.11 583.728L404.803 581.378Z" fill="#FFB27D"/>
<path d="M399.477 587.07C399.29 587.097 394.253 588.662 394.253 588.662C394.253 588.662 394.3 587.204 394.992 587.136C395.685 587.068 399.477 587.07 399.477 587.07Z" fill="#FFB27D"/>
<path d="M395.894 583.224C395.894 583.224 395.703 585.251 395.961 585.671C396.22 586.091 397.791 586.325 397.791 586.325C397.791 586.325 398.74 585.345 398.771 585.256C398.802 585.167 396.796 584.917 396.758 584.815C396.719 584.712 396.698 583.224 395.894 583.224Z" fill="#FFB27D"/>
<path d="M445.511 585.587C445.511 585.689 445.532 585.791 445.54 585.896L445.511 585.587Z" fill="#F9DDBF"/>
<path d="M484.443 500.307C484.443 500.307 488.292 497.96 495.697 498.894C503.102 499.829 502.001 511.196 508.155 514.313C514.309 517.43 517.459 526.237 509.729 530.879C501.998 535.522 493.345 533.71 493.503 523.572C493.66 513.433 495.053 497.905 485.609 503.427C476.165 508.949 484.443 500.307 484.443 500.307Z" fill="#2C3A64"/>
<path d="M465.219 624.529C466.372 624.921 467.568 625.336 468.781 625.769C476.447 628.484 479.53 627.473 483.337 626.761C487.144 626.05 490.763 628.481 495.371 626.958C498.731 625.848 498.959 616.565 498.959 616.565C497.056 615.284 491.463 615.46 486.565 617.143C479.53 619.554 475.483 617.931 475.483 617.931C475.224 617.957 474.637 617.668 473.828 617.143L473.854 617.098C473.854 617.098 472.079 616.195 469.321 614.785C468.398 618.117 466.948 622.085 465.219 624.529Z" fill="#ED7D2B"/>
<path d="M433.17 616.613C433.17 616.613 433.428 625.9 436.773 627.003C441.384 628.518 445.002 626.084 448.807 626.785C452.611 627.486 455.697 628.5 463.363 625.774C465.852 624.884 468.274 624.059 470.394 623.348C472.609 622.607 474.511 621.993 475.855 621.562C477.147 621.21 478.481 620.838 479.84 620.444C490.021 617.519 501.608 613.617 505.309 610.085C514.27 601.554 509.675 596.302 509.675 596.302C509.675 596.302 506.48 591.384 493.368 598.836C489.018 601.307 469.879 611.151 461.836 615.266L458.266 617.104L458.29 617.148C457.481 617.674 456.889 617.965 456.641 617.936C456.641 617.936 452.591 619.575 445.553 617.175C440.652 615.502 435.069 615.331 433.17 616.613Z" fill="#FFB27D"/>
<path d="M433.17 616.613C433.17 616.613 433.428 625.9 436.773 627.003C441.384 628.518 445.002 626.084 448.807 626.785C452.611 627.486 455.697 628.5 463.363 625.774C465.852 624.884 468.274 624.059 470.393 623.348C466.845 620.985 463.516 617.277 461.846 615.271L458.277 617.109L458.3 617.154C457.491 617.679 456.899 617.97 456.651 617.941C456.651 617.941 452.601 619.58 445.563 617.18C440.652 615.502 435.069 615.331 433.17 616.613Z" fill="#F99746"/>
<path d="M606.223 491.296C606.223 491.296 619.663 488.898 627.084 494.948C634.504 500.998 630.974 511.593 637.337 520.035C643.7 528.477 643.525 535.852 633.271 536.296C623.018 536.74 625.313 540.497 615.856 540.689C606.399 540.881 604.722 537.097 596.102 537.457C587.482 537.816 583.062 531.386 584.471 528.046C585.88 524.706 590.372 515.56 589.408 510.157C587.86 501.468 597.066 494.263 606.223 491.296Z" fill="#ED7D2B"/>
<path d="M608.265 549.167H608.283C610.586 550.221 613.202 550.325 615.579 549.458C617.956 548.59 619.909 546.819 621.025 544.517C621.025 544.517 619.281 540.193 618.958 533.368C618.814 530.089 619.019 526.803 619.57 523.569L605.156 529.325C605.3 530.4 605.378 531.484 605.391 532.57C605.422 534.647 603.654 543.659 603.646 543.68C602.463 547.285 604.859 547.605 608.265 549.167Z" fill="#FFB27D"/>
<path d="M642.09 610.219C644.675 608.347 636.662 604.765 633.781 601.068C631.713 598.411 629.676 595.601 627.906 593.033C627.906 593.033 624.264 596.523 609.462 596.15C594.66 595.777 591.057 594.165 591.057 594.165C591.057 594.165 589.312 596.266 587.007 598.923C584.226 602.126 580.633 606.141 578.32 608.268C577.301 609.203 622.08 624.661 642.09 610.219Z" fill="#ED7D2B"/>
<path d="M642.829 616.563C642.829 616.563 642.594 625.85 639.242 626.958C634.633 628.481 631.01 626.05 627.208 626.761C623.406 627.473 620.317 628.484 612.651 625.769C607.562 623.965 602.786 622.416 600.152 621.568C598.86 621.218 597.526 620.848 596.164 620.457C585.978 617.548 574.388 613.654 570.679 610.135C561.708 601.622 566.286 596.366 566.286 596.366C566.286 596.366 569.472 591.442 582.595 598.873C588.141 602.024 617.712 617.083 617.712 617.083L617.689 617.127C618.498 617.653 619.09 617.941 619.343 617.915C619.343 617.915 623.393 619.546 630.428 617.127C635.344 615.471 640.927 615.284 642.829 616.563Z" fill="#F2A672"/>
<path d="M680.312 585.891C680.252 585.87 680.19 585.852 680.131 585.837C680.162 585.847 680.224 585.868 680.312 585.891Z" fill="#5153A0"/>
<path d="M626.241 562.43C626.241 562.43 640.255 594.488 647.75 595.499C655.093 596.486 674.618 585.429 674.618 585.429L671.619 583.423C662.449 584.528 654.786 584.97 652.4 584.783C651.573 584.718 643.034 571.072 636.934 551.436C636.262 549.272 626.241 562.43 626.241 562.43Z" fill="#FFB27D"/>
<path d="M542.789 585.891C542.848 585.87 542.91 585.852 542.972 585.837C542.949 585.847 542.89 585.868 542.789 585.891Z" fill="#5153A0"/>
<path d="M596.102 563.005C596.102 563.005 581.005 594.551 573.479 595.302C566.11 596.032 547.596 584.345 547.596 584.345L549.069 581.477C558.198 582.906 566.808 584.534 569.198 584.429C570.026 584.395 579.02 571.056 585.792 551.651C586.536 549.511 596.102 563.005 596.102 563.005Z" fill="#FFB27D"/>
<path d="M577.733 563.599C580.318 566.765 583.985 570.265 588.208 571.213C588.208 571.213 587.691 591.308 589.382 594.181C592.414 599.351 622.465 601.578 630.736 592.705C632.072 591.272 631.71 573.256 631.71 573.256C631.718 573.264 631.724 573.273 631.728 573.282C638.779 572.185 643.171 568.672 645.926 565.103C641.385 556.656 637.022 548.382 635.747 547.03C635.114 546.361 634.08 545.796 632.687 545.074C628.392 542.85 620.247 542.036 620.247 542.036C620.247 542.036 621.405 549.525 611.343 548.999C601.806 548.501 604.075 541.542 604.075 541.542C604.075 541.542 594.804 543.32 592.912 544.029C590.4 544.969 587.911 546.161 587.092 547.03C585.903 548.304 581.972 555.695 577.733 563.599Z" fill="#F9DDBF"/>
<path d="M674.605 585.421C674.605 585.421 678.52 582.376 679.071 581.165C679.621 579.955 680.808 575.559 680.808 575.559C680.808 575.559 679.753 575.47 678.833 577.397C677.913 579.324 674.623 579.605 673.374 580.485C672.714 580.952 672.17 581.568 671.785 582.284C671.399 583.001 671.182 583.799 671.152 584.615L674.605 585.421Z" fill="#FFB27D"/>
<path d="M671.273 583.665C671.273 583.665 672.005 580.37 672.777 579.359C673.248 578.739 674.698 578.193 675.62 576.557C675.938 575.993 676.215 576.599 676.238 576.909C676.285 577.547 674.832 581.081 674.832 581.081L671.273 583.665Z" fill="#FFB27D"/>
<path d="M678.482 580.832C678.577 580.666 681.922 576.533 681.922 576.533C681.922 576.533 680.578 576.008 680.252 576.646C679.926 577.284 678.482 580.832 678.482 580.832Z" fill="#FFB27D"/>
<path d="M676.347 576.003C676.347 576.003 678.267 576.593 678.551 576.998C678.836 577.402 678.445 578.972 678.445 578.972C678.445 578.972 677.192 579.498 677.099 579.498C677.006 579.498 677.543 577.515 677.463 577.439C677.383 577.363 676.042 576.756 676.347 576.003Z" fill="#FFB27D"/>
<path d="M548.015 584.589C548.015 584.589 543.735 582.1 543.032 580.976C542.329 579.852 540.581 575.656 540.581 575.656C540.581 575.656 541.615 575.425 542.784 577.211C543.952 578.996 547.245 578.828 548.599 579.532C549.314 579.905 549.934 580.441 550.411 581.099C550.887 581.757 551.207 582.519 551.344 583.323L548.015 584.589Z" fill="#FFB27D"/>
<path d="M551.098 582.386C551.098 582.386 549.943 579.219 549.044 578.321C548.496 577.773 546.976 577.426 545.859 575.932C545.469 575.407 545.275 576.053 545.293 576.365C545.33 577.003 547.234 580.304 547.234 580.304L551.098 582.386Z" fill="#FFB27D"/>
<path d="M543.58 580.566C543.466 580.414 539.607 576.769 539.607 576.769C539.607 576.769 540.874 576.081 541.277 576.656C541.68 577.231 543.58 580.566 543.58 580.566Z" fill="#FFB27D"/>
<path d="M545.063 575.488C545.063 575.488 543.254 576.336 543.011 576.772C542.768 577.208 543.375 578.718 543.375 578.718C543.375 578.718 544.686 579.062 544.779 579.043C544.872 579.025 544.076 577.137 544.146 577.05C544.215 576.964 545.466 576.194 545.063 575.488Z" fill="#FFB27D"/>
<path d="M589.382 585.587C589.382 585.689 589.403 585.791 589.41 585.896L589.382 585.587Z" fill="#F9DDBF"/>
<path d="M577.04 616.613C577.04 616.613 577.299 625.9 580.643 627.003C585.254 628.518 588.873 626.081 592.677 626.788C596.482 627.494 599.57 628.5 607.234 625.771C612.32 623.962 617.092 622.405 619.725 621.57C621.018 621.216 622.351 620.846 623.711 620.452C633.892 617.527 645.479 613.625 649.18 610.093C658.141 601.554 653.545 596.303 653.545 596.303C653.545 596.303 650.351 591.382 637.239 598.837C631.695 601.988 602.147 617.096 602.147 617.096L602.171 617.143C601.362 617.668 600.77 617.96 600.519 617.931C600.519 617.931 596.471 619.567 589.433 617.169C584.523 615.5 578.94 615.331 577.04 616.613Z" fill="#FFB27D"/>
<path d="M618.966 533.83C618.966 533.83 615.176 538.741 611.527 538.759C606.841 538.785 605.208 534.639 605.208 534.639L618.966 533.83Z" fill="#EA9C68"/>
<path d="M601.933 531.722C606.091 535.739 611.261 541.091 622.338 531.131C624.507 529.18 625.267 525.194 625.38 520.907C625.517 515.828 625.797 513.717 625.228 510.792C624.556 507.292 620.741 500.838 614.631 500.315C603.396 499.36 599.64 506.78 599.361 512.486C598.78 524.835 597.702 527.636 601.933 531.722Z" fill="#FFB27D"/>
<path d="M615.856 528.755C615.856 528.755 615.598 530.504 611.377 530.593C611.377 530.593 607.831 530.669 607.784 528.776C607.784 528.776 611.095 527.145 615.856 528.755Z" fill="white"/>
<path d="M618.965 502.681C617.57 501.783 620.278 507.373 616.301 510.338C612.323 513.302 606.753 508.991 603.923 513.93C601.093 518.869 599.594 522.012 596.944 519.226C594.295 516.44 600.563 495.331 613.561 495.61C626.559 495.888 633.463 515.277 632.124 517.79C630.785 520.303 623.817 521.114 622.491 516.443C621.165 511.772 623.122 505.349 618.965 502.681Z" fill="#ED7D2B"/>
<path d="M79.6032 500.428C79.6032 500.428 74.6924 495.106 67.3263 499.097C59.9601 503.088 56.4011 519.861 57.9338 532.019C59.4665 544.176 48.3707 543.428 49.8103 548.949C51.2499 554.471 50.3996 558.229 58.7944 557.614C67.1893 557 85.416 559.219 84.3047 546.941C83.1933 534.663 79.6032 500.428 79.6032 500.428Z" fill="#2C3A64"/>
<path d="M86.8607 550.231H86.8426C84.4197 550.957 81.814 550.698 79.5755 549.509C77.3369 548.32 75.6407 546.294 74.8448 543.858C74.8448 543.858 77.1529 539.817 78.3806 533.093C78.9708 529.867 79.2143 526.586 79.1069 523.306L92.6167 531.008C92.3296 532.054 92.1061 533.117 91.9473 534.19C91.6371 536.244 92.1773 545.415 92.1825 545.436C92.8623 549.17 90.4456 549.157 86.8607 550.231Z" fill="#FFB27D"/>
<path d="M92.0095 542.293C84.1833 541.768 78.3808 533.103 78.3808 533.103L91.9371 534.19C91.627 536.243 91.8829 538.945 92.0095 542.293Z" fill="#EA9C68"/>
<path d="M92.3428 538.01C92.3428 538.01 76.8609 538.732 74.3176 525.79C71.5727 511.826 79.5308 503.831 84.638 504.291C94.8241 505.212 99.7711 510.317 100.663 514.759C101.554 519.202 100.872 537.693 92.3428 538.01Z" fill="#FFB27D"/>
<path d="M87.967 530.47C87.967 530.47 88.2668 532.213 92.4901 532.195C92.4901 532.195 96.0361 532.182 96.0361 530.288C96.0361 530.288 92.6891 528.742 87.967 530.47Z" fill="white"/>
<path d="M90.2208 506.895C90.2208 506.895 87.768 520.978 73.6326 522.154C68.011 522.621 71.1875 500.948 82.9734 499.835C94.7594 498.721 103.855 506.683 103.074 514.342C102.294 522.002 100.916 523.251 100.916 523.251C100.916 523.251 99.8175 507.927 90.2208 506.895Z" fill="#2C3A64"/>
<path d="M53.9558 610.219C51.3711 608.347 59.3835 604.765 62.268 601.068C64.3357 598.411 66.3723 595.601 68.1402 593.033C68.1402 593.033 71.7819 596.523 86.5841 596.15C101.386 595.777 104.989 594.165 104.989 594.165C104.989 594.165 106.736 596.266 109.042 598.923C111.823 602.126 115.413 606.141 117.729 608.268C118.745 609.203 73.9685 624.661 53.9558 610.219Z" fill="#2C3A64"/>
<path d="M53.2169 616.563C53.2169 616.563 53.4546 625.85 56.8069 626.958C61.4127 628.479 65.0389 626.05 68.8409 626.761C72.6429 627.473 75.7315 628.484 83.3975 625.769C88.4866 623.965 93.2604 622.416 95.8941 621.568C96.884 621.305 97.9024 621.016 98.9388 620.725L99.8822 620.462C110.068 617.553 121.658 613.659 125.369 610.143C134.34 601.625 129.763 596.371 129.763 596.371C129.763 596.371 126.574 591.448 113.454 598.878C110.575 600.509 101.237 605.346 92.9115 609.626C85.186 613.596 78.3342 617.088 78.3342 617.088L78.3575 617.133C77.5485 617.658 76.9566 617.947 76.7059 617.92C76.7059 617.92 72.6558 619.551 65.6205 617.133C60.7019 615.471 55.1191 615.284 53.2169 616.563Z" fill="#F2A672"/>
<path d="M15.7345 585.891C15.794 585.87 15.856 585.852 15.918 585.837C15.8844 585.847 15.825 585.868 15.7345 585.891Z" fill="#5153A0"/>
<path d="M69.8022 562.43C69.8022 562.43 55.7884 594.488 48.293 595.499C40.9527 596.486 21.5369 586.267 21.5369 586.267L23.4289 582.541C32.6017 583.646 41.2628 584.97 43.6433 584.783C44.4703 584.718 53.0125 571.072 59.1122 551.436C59.7868 549.272 69.8022 562.43 69.8022 562.43Z" fill="#FFB27D"/>
<path d="M153.247 585.891C153.188 585.87 153.126 585.852 153.066 585.837C153.097 585.847 153.159 585.868 153.247 585.891Z" fill="#5153A0"/>
<path d="M99.9441 563.005C99.9441 563.005 115.041 594.551 122.567 595.302C129.939 596.032 148.995 585.135 148.995 585.135L146.977 581.478C137.848 582.906 129.238 584.534 126.85 584.429C126.02 584.395 117.028 571.056 110.254 551.651C109.51 549.511 99.9441 563.005 99.9441 563.005Z" fill="#FFB27D"/>
<path d="M118.316 563.599C115.731 566.765 112.061 570.265 107.838 571.213C107.838 571.213 108.355 591.308 106.667 594.181C103.632 599.351 73.5836 601.578 65.3128 592.705C63.974 591.272 64.3385 573.256 64.3385 573.256L64.3178 573.282C57.2695 572.185 52.8782 568.672 50.123 565.103C54.6616 556.656 59.0244 548.382 60.3012 547.03C60.9319 546.361 61.9684 545.796 63.3615 545.074C67.6545 542.85 75.7986 542.036 75.7986 542.036C75.7986 542.036 74.6433 549.525 84.7026 548.999C94.2425 548.501 91.9732 541.542 91.9732 541.542C91.9732 541.542 101.242 543.32 103.134 544.029C105.648 544.969 108.137 546.161 108.954 547.03C110.146 548.304 114.074 555.695 118.316 563.599Z" fill="#F99746"/>
<path d="M24.2691 586.306C24.2691 586.306 20.0045 588.822 18.6941 588.877C17.3837 588.932 12.9356 588.352 12.9356 588.352C12.9356 588.352 13.2561 587.328 15.3625 587.196C17.469 587.065 18.981 584.085 20.2526 583.258C20.9278 582.814 21.6954 582.535 22.4946 582.444C23.2939 582.353 24.1031 582.452 24.8584 582.732L24.2691 586.306Z" fill="#FFB27D"/>
<path d="M23.946 582.496C23.946 582.496 20.6661 581.924 19.4513 582.265C18.7095 582.473 17.6575 583.625 15.8199 583.867C15.1866 583.951 15.6312 584.442 15.9052 584.581C16.466 584.87 20.2396 584.844 20.2396 584.844L23.946 582.496Z" fill="#FFB27D"/>
<path d="M18.6267 588.189C18.4406 588.213 13.4031 589.777 13.4031 589.777C13.4031 589.777 13.4496 588.32 14.1423 588.252C14.835 588.184 18.6267 588.189 18.6267 588.189Z" fill="#FFB27D"/>
<path d="M15.0395 584.339C15.0395 584.339 14.8457 586.367 15.1041 586.787C15.3626 587.207 16.9417 587.443 16.9417 587.443C16.9417 587.443 17.8903 586.464 17.9213 586.372C17.9523 586.28 15.9492 586.033 15.9079 585.931C15.8665 585.828 15.8407 584.339 15.0395 584.339Z" fill="#FFB27D"/>
<path d="M147.052 585.188C147.052 585.188 151.316 587.706 152.627 587.761C153.937 587.816 158.385 587.236 158.385 587.236C158.385 587.236 158.062 586.212 155.958 586.08C153.854 585.949 152.34 582.969 151.066 582.142C150.391 581.698 149.624 581.419 148.825 581.328C148.026 581.237 147.217 581.336 146.462 581.617L147.052 585.188Z" fill="#FFB27D"/>
<path d="M147.374 581.378C147.374 581.378 150.652 580.808 151.867 581.147C152.611 581.357 153.66 582.509 155.501 582.751C156.134 582.835 155.687 583.326 155.415 583.465C154.852 583.754 151.081 583.728 151.081 583.728L147.374 581.378Z" fill="#FFB27D"/>
<path d="M152.699 587.07C152.888 587.097 157.925 588.662 157.925 588.662C157.925 588.662 157.879 587.204 157.183 587.136C156.488 587.068 152.699 587.07 152.699 587.07Z" fill="#FFB27D"/>
<path d="M156.281 583.224C156.281 583.224 156.475 585.251 156.217 585.671C155.958 586.091 154.379 586.325 154.379 586.325C154.379 586.325 153.428 585.345 153.397 585.256C153.366 585.167 155.372 584.917 155.413 584.815C155.454 584.712 155.48 583.224 156.281 583.224Z" fill="#FFB27D"/>
<path d="M53.2167 616.563C53.2167 616.563 53.4544 625.85 56.8067 626.958C61.4125 628.479 65.0388 626.05 68.8407 626.761C72.6427 627.473 75.7314 628.484 83.3974 625.769C88.4865 623.965 93.2603 622.416 95.894 621.567C96.8839 621.305 97.9023 621.016 98.9387 620.725C96.0594 617.224 93.9789 612.438 92.9011 609.617C85.1756 613.588 78.3237 617.08 78.3237 617.08L78.347 617.125C77.538 617.65 76.9461 617.939 76.6954 617.912C76.6954 617.912 72.6453 619.543 65.61 617.125C60.7018 615.47 55.119 615.284 53.2167 616.563Z" fill="#F2CCAA"/>
<path d="M46.8664 610.085C50.5546 613.593 62.0536 617.487 72.1957 620.404L72.3301 620.444C73.6922 620.837 75.0285 621.21 76.3182 621.559C78.9493 622.405 83.7232 623.962 88.8097 625.761C96.4731 628.489 99.5566 627.483 103.364 626.777C107.171 626.07 110.789 628.507 115.398 626.992C118.758 625.887 119.001 616.605 119.001 616.605C117.101 615.321 111.518 615.489 106.607 617.164C99.5721 619.561 95.522 617.928 95.522 617.928C95.2635 617.954 94.6794 617.666 93.8704 617.14L93.8936 617.093C93.8936 617.093 85.7908 612.95 77.2745 608.549C69.5206 604.547 61.4437 600.333 58.8022 598.834C45.6929 591.382 42.4984 596.3 42.4984 596.3C42.4984 596.3 37.9081 601.554 46.8664 610.085Z" fill="#FFB27D"/>
<path d="M72.2009 620.404L72.3353 620.444C73.6974 620.837 75.0336 621.21 76.3233 621.559C78.9545 622.405 83.7283 623.962 88.8148 625.761C96.4783 628.489 99.5617 627.483 103.369 626.777C107.176 626.07 110.794 628.507 115.403 626.992C118.763 625.887 119.006 616.605 119.006 616.605C117.106 615.321 111.523 615.489 106.613 617.164C99.5772 619.561 95.5271 617.928 95.5271 617.928C95.2686 617.954 94.6845 617.666 93.8755 617.14L93.8988 617.093C93.8988 617.093 85.796 612.95 77.2796 608.549C76.8428 611.884 75.6203 617.227 72.2009 620.404Z" fill="#F9DDBF"/>
<path opacity="0.5" d="M210.763 604.463L210.706 623.408C210.706 624.489 211.128 625.525 211.878 626.292C212.628 627.058 213.646 627.492 214.709 627.499L222.352 627.52C223.477 627.521 224.556 627.069 225.354 626.263C226.152 625.458 226.603 624.364 226.609 623.222L226.663 604.508C226.664 602.99 226.231 601.505 225.417 600.233C224.604 598.96 223.443 597.955 222.078 597.34C221.905 597.262 221.761 597.131 221.668 596.963C221.575 596.796 221.538 596.603 221.561 596.413C221.577 596.299 221.585 596.184 221.585 596.069V595.066L215.898 595.05V596.04C215.898 596.169 215.906 596.298 215.924 596.426C215.952 596.598 215.924 596.774 215.843 596.927C215.762 597.081 215.633 597.203 215.477 597.274C214.084 597.871 212.895 598.871 212.057 600.149C211.219 601.427 210.769 602.928 210.763 604.463Z" fill="#AED3FF"/>
<path d="M210.763 604.463L210.706 623.408C210.706 624.489 211.128 625.525 211.878 626.292C212.628 627.058 213.646 627.492 214.709 627.499H219.514C220.639 627.499 221.718 627.047 222.515 626.242C223.313 625.436 223.764 624.343 223.771 623.201L223.825 604.487C223.825 602.97 223.392 601.485 222.578 600.213C221.764 598.941 220.605 597.935 219.24 597.319C219.111 597.259 218.996 597.169 218.907 597.056C218.83 596.964 218.774 596.856 218.74 596.741C218.707 596.625 218.698 596.503 218.713 596.384C218.729 596.269 218.736 596.153 218.736 596.037V595.037H215.893V596.04C215.893 596.169 215.901 596.298 215.919 596.426C215.947 596.598 215.919 596.774 215.838 596.927C215.757 597.081 215.628 597.203 215.472 597.274C214.08 597.872 212.892 598.872 212.055 600.15C211.218 601.428 210.768 602.928 210.763 604.463Z" fill="#AFCDFB"/>
<path opacity="0.3" d="M213.911 604.474L213.856 623.416C213.856 624.497 214.277 625.535 215.027 626.301C215.777 627.068 216.796 627.502 217.86 627.507H219.514C220.639 627.507 221.718 627.055 222.515 626.25C223.313 625.444 223.764 624.351 223.771 623.209L223.825 604.495C223.825 602.978 223.392 601.493 222.578 600.221C221.764 598.949 220.605 597.944 219.24 597.327C219.111 597.267 218.996 597.177 218.907 597.064C218.833 597.16 218.736 597.234 218.625 597.28C217.233 597.879 216.044 598.88 215.206 600.158C214.368 601.437 213.917 602.938 213.911 604.474Z" fill="#CED4EA"/>
<path d="M210.756 606.087L226.659 606.135L226.626 617.255L210.723 617.207L210.756 606.087Z" fill="white"/>
<path d="M217.046 596.14H223.36V597.657H217.046V596.14Z" fill="#2C3A64"/>
<path opacity="0.5" d="M673.243 608.861L673.199 624.193C673.199 625.067 673.539 625.906 674.146 626.526C674.753 627.146 675.577 627.497 676.437 627.502L682.622 627.52C683.532 627.521 684.405 627.155 685.051 626.504C685.697 625.853 686.062 624.968 686.068 624.044L686.112 608.898C686.112 607.671 685.761 606.469 685.103 605.44C684.445 604.41 683.507 603.597 682.403 603.098C682.261 603.037 682.143 602.931 682.066 602.796C681.989 602.661 681.958 602.504 681.976 602.35C681.988 602.256 681.995 602.163 681.997 602.069V601.257H677.401V602.069C677.401 602.173 677.409 602.278 677.425 602.381C677.448 602.52 677.425 602.662 677.359 602.786C677.294 602.909 677.189 603.007 677.063 603.064C675.939 603.546 674.978 604.352 674.299 605.382C673.621 606.413 673.253 607.622 673.243 608.861Z" fill="#AED3FF"/>
<path d="M673.243 608.861L673.199 624.193C673.199 625.068 673.539 625.906 674.146 626.526C674.753 627.146 675.577 627.497 676.437 627.502H680.314C681.224 627.502 682.098 627.136 682.743 626.484C683.389 625.832 683.754 624.947 683.759 624.023L683.803 608.88C683.804 607.652 683.454 606.45 682.796 605.421C682.138 604.391 681.199 603.578 680.094 603.079C679.995 603.03 679.907 602.959 679.836 602.872C679.774 602.798 679.727 602.711 679.7 602.617C679.673 602.524 679.666 602.425 679.678 602.328C679.691 602.235 679.697 602.141 679.696 602.047V601.239H677.399V602.05C677.399 602.155 677.406 602.259 677.422 602.363C677.445 602.501 677.422 602.643 677.357 602.767C677.291 602.891 677.187 602.989 677.06 603.045C675.934 603.529 674.972 604.338 674.293 605.372C673.615 606.406 673.25 607.619 673.243 608.861Z" fill="#AFCDFB"/>
<path opacity="0.3" d="M675.791 608.869L675.747 624.201C675.747 625.075 676.088 625.914 676.695 626.534C677.301 627.154 678.125 627.505 678.986 627.51H680.325C681.235 627.51 682.108 627.144 682.753 626.492C683.399 625.84 683.764 624.955 683.77 624.03L683.814 608.888C683.815 607.66 683.465 606.458 682.806 605.429C682.148 604.399 681.209 603.586 680.105 603.088C680.005 603.038 679.917 602.967 679.846 602.88C679.786 602.956 679.708 603.016 679.619 603.053C678.49 603.536 677.526 604.344 676.846 605.378C676.165 606.412 675.799 607.626 675.791 608.869Z" fill="#CED4EA"/>
<path d="M673.232 610.175L686.101 610.214L686.075 619.212L673.206 619.173L673.232 610.175Z" fill="white"/>
<path d="M677.129 599.943L682.239 599.969L682.233 601.198L677.123 601.172L677.129 599.943Z" fill="#2C3A64"/>
<path d="M535.516 422.005V519.368H536.464V422.044L535.989 422.023C535.834 422.015 535.673 422.007 535.516 422.005Z" fill="#ADCBFF"/>
<path d="M541.189 474.688C541.314 474.687 541.434 474.636 541.522 474.546C541.61 474.456 541.659 474.334 541.659 474.207V421.671C541.664 421.605 541.655 421.539 541.634 421.477C541.612 421.414 541.578 421.357 541.534 421.309C541.49 421.26 541.436 421.221 541.377 421.195C541.317 421.169 541.253 421.155 541.188 421.155C541.123 421.155 541.058 421.169 540.999 421.195C540.939 421.221 540.885 421.26 540.841 421.309C540.797 421.357 540.763 421.414 540.741 421.477C540.72 421.539 540.711 421.605 540.716 421.671V474.205C540.716 474.268 540.728 474.331 540.751 474.389C540.775 474.448 540.81 474.501 540.854 474.546C540.897 474.591 540.95 474.627 541.007 474.651C541.065 474.675 541.127 474.688 541.189 474.688Z" fill="#ADCBFF"/>
<path d="M541.403 483.529C541.889 483.527 542.353 483.331 542.697 482.983C543.04 482.635 543.234 482.163 543.236 481.67V475.307C543.235 474.814 543.041 474.342 542.698 473.993C542.354 473.645 541.889 473.449 541.403 473.448C540.919 473.45 540.454 473.646 540.111 473.994C539.768 474.343 539.575 474.815 539.574 475.307V481.67C539.576 482.162 539.769 482.634 540.112 482.982C540.454 483.33 540.919 483.527 541.403 483.529Z" fill="#F99746"/>
<path d="M535.989 525.827C536.474 525.826 536.939 525.629 537.282 525.281C537.625 524.933 537.819 524.461 537.821 523.968V517.606C537.82 517.113 537.626 516.64 537.283 516.292C536.939 515.944 536.474 515.748 535.989 515.747C535.504 515.748 535.039 515.945 534.696 516.293C534.353 516.641 534.16 517.113 534.159 517.606V523.968C534.161 524.46 534.354 524.932 534.697 525.28C535.04 525.628 535.504 525.825 535.989 525.827Z" fill="#F99746"/>
<path d="M3.47058 629H1360.53C1361.34 629 1362 629.4 1362 629.894V630.106C1362 630.6 1361.34 631 1360.53 631H3.47058C2.65833 631 2 630.6 2 630.106V629.894C2 629.4 2.65833 629 3.47058 629Z" fill="#2E3552"/>
</svg>
