<svg width="1361" height="656" viewBox="0 0 1361 656" fill="none" xmlns="http://www.w3.org/2000/svg">
<path d="M1176.07 292.371C965.977 303.366 991.889 -163.519 628.102 61.2723C549.112 110.083 373.302 7.57312 303.064 221.145C286.363 271.929 160.929 275.468 79.8622 316.193C-47.295 380.075 -11.3867 652.67 108.742 653.772C228.87 654.873 1111.43 651.634 1111.43 651.634C1111.43 651.634 1247.7 648.371 1305.93 565.231C1411.42 414.616 1363.87 282.536 1176.07 292.371Z" fill="#EBF2F9"/>
<path d="M1229.52 423.573H1228.18V579.378H1229.52V423.573Z" fill="#ADCBFF"/>
<path d="M1234 653.11C1206.1 653.079 1179.2 642.505 1158.53 623.439C1137.85 604.373 1124.88 578.174 1122.11 549.925C1119.35 521.675 1127 493.388 1143.57 470.551C1160.15 447.714 1184.47 431.954 1211.82 426.329C1239.17 420.704 1267.6 425.614 1291.59 440.107C1315.58 454.601 1333.43 477.644 1341.67 504.767C1349.91 531.891 1347.95 561.161 1336.18 586.9C1324.41 612.639 1303.66 633.013 1277.96 644.069C1264.05 650.06 1249.1 653.135 1234 653.11ZM1234 429.276C1209.23 429.277 1185.23 438.015 1166.08 454.003C1146.94 469.99 1133.83 492.238 1129 516.954C1124.17 541.671 1127.91 567.327 1139.59 589.552C1151.26 611.777 1170.15 629.195 1193.03 638.839C1215.92 648.482 1241.38 649.755 1265.08 642.439C1288.78 635.124 1309.26 619.673 1323.02 598.72C1336.78 577.766 1342.97 552.606 1340.55 527.527C1338.12 502.447 1327.22 479 1309.7 461.181C1299.79 451.034 1287.99 442.99 1274.99 437.514C1262 432.037 1248.06 429.237 1234 429.276Z" fill="#C5DBFF"/>
<path d="M1221.5 423.302C1221.32 423.302 1221.15 423.374 1221.03 423.502C1220.9 423.63 1220.83 423.803 1220.83 423.984V498.387C1220.83 498.481 1220.84 498.574 1220.87 498.662C1220.9 498.75 1220.95 498.831 1221.01 498.899C1221.07 498.967 1221.15 499.022 1221.23 499.059C1221.32 499.096 1221.41 499.116 1221.5 499.116C1221.59 499.116 1221.68 499.096 1221.77 499.059C1221.85 499.022 1221.93 498.967 1221.99 498.899C1222.05 498.831 1222.1 498.75 1222.13 498.662C1222.16 498.574 1222.17 498.481 1222.17 498.387V423.984C1222.17 423.803 1222.1 423.631 1221.97 423.503C1221.85 423.375 1221.68 423.303 1221.5 423.302Z" fill="#ADCBFF"/>
<path d="M1221.5 496.469C1220.81 496.471 1220.16 496.749 1219.67 497.243C1219.19 497.737 1218.91 498.406 1218.91 499.104V508.11C1218.91 508.809 1219.18 509.48 1219.67 509.974C1220.16 510.468 1220.81 510.745 1221.5 510.745C1222.19 510.745 1222.85 510.468 1223.33 509.974C1223.82 509.48 1224.09 508.809 1224.09 508.11V499.104C1224.09 498.406 1223.82 497.737 1223.33 497.243C1222.85 496.749 1222.19 496.471 1221.5 496.469Z" fill="#E69D43"/>
<path d="M1228.85 573.417C1228.17 573.419 1227.51 573.697 1227.02 574.191C1226.54 574.685 1226.26 575.354 1226.26 576.053V585.062C1226.26 585.761 1226.53 586.431 1227.02 586.925C1227.51 587.42 1228.16 587.697 1228.85 587.697C1229.54 587.697 1230.2 587.42 1230.68 586.925C1231.17 586.431 1231.44 585.761 1231.44 585.062V576.053C1231.44 575.354 1231.17 574.685 1230.68 574.191C1230.2 573.697 1229.54 573.419 1228.85 573.417Z" fill="#E69D43"/>
<path d="M1280.77 265.753H1108.36C1107 265.753 1105.7 266.303 1104.74 267.282C1103.77 268.262 1103.23 269.59 1103.23 270.975C1103.23 272.36 1103.77 273.688 1104.74 274.667C1105.7 275.646 1107 276.196 1108.36 276.196H1133.31V651.231C1133.34 652.395 1133.81 653.5 1134.63 654.311C1135.45 655.123 1136.55 655.577 1137.7 655.577C1138.84 655.577 1139.94 655.123 1140.76 654.311C1141.58 653.5 1142.05 652.395 1142.08 651.231V600.146H1250.93V651.231C1250.96 652.395 1251.43 653.5 1252.25 654.311C1253.07 655.123 1254.17 655.577 1255.31 655.577C1256.46 655.577 1257.56 655.123 1258.38 654.311C1259.19 653.5 1259.67 652.395 1259.7 651.231V276.196H1280.78C1282.14 276.196 1283.44 275.646 1284.41 274.667C1285.37 273.688 1285.91 272.36 1285.91 270.975C1285.91 269.59 1285.37 268.262 1284.41 267.282C1283.44 266.303 1282.14 265.753 1280.78 265.753H1280.77ZM1142.08 411.68H1250.92V499.111H1142.08V411.68ZM1250.92 404.88H1142.08V317.449H1250.92V404.88ZM1142.08 593.345V505.911H1250.92V593.345H1142.08ZM1250.92 310.649H1142.08V276.196H1250.92V310.649Z" fill="#C5DBFF"/>
<path d="M826.596 628.279H579.773L534.61 503.613H560.349C560.546 503.613 560.743 503.594 560.936 503.555L612.247 493.425C612.997 493.28 613.667 492.855 614.125 492.234C614.583 491.612 614.797 490.839 614.723 490.066C614.65 489.292 614.296 488.575 613.73 488.053C613.164 487.532 612.427 487.245 611.663 487.248H528.675L506.528 426.119C505.968 424.561 504.935 423.224 503.577 422.305C502.219 421.386 500.609 420.932 498.98 421.008C497.351 421.085 495.788 421.689 494.52 422.732C493.252 423.775 492.344 425.203 491.928 426.807L450.64 428.328L449.84 426.119C449.493 425.159 448.962 424.279 448.28 423.527C447.598 422.776 446.777 422.169 445.864 421.74C444.02 420.875 441.913 420.79 440.008 421.505C438.103 422.219 436.555 423.675 435.704 425.551C434.853 427.427 434.77 429.57 435.473 431.509L506.775 628.279H472.282C469.036 628.29 465.925 629.606 463.63 631.943C461.334 634.279 460.041 637.444 460.032 640.747C460.041 644.05 461.334 647.216 463.63 649.552C465.925 651.888 469.036 653.205 472.282 653.215H826.596C829.843 653.206 832.955 651.889 835.251 649.553C837.547 647.217 838.841 644.051 838.85 640.747C838.841 637.443 837.547 634.278 835.251 631.941C832.955 629.605 829.843 628.289 826.596 628.279ZM579.795 493.483L560.057 497.378H532.35L530.937 493.483H579.795ZM505.077 467.162L516.027 497.378H475.672L466.014 470.714L505.077 467.162ZM477.938 503.613H518.287L563.466 628.279H523.111L477.938 503.613Z" fill="#C5DBFF"/>
<path d="M1109.07 327.257C1109.07 327.257 1091.24 380.312 1083.05 390.381C1074.86 400.449 1046.09 415.326 1045.84 416.653C1045.25 419.815 1047.62 424.746 1050.32 424.762C1059.88 424.813 1079.25 417.422 1088.22 408.674C1097.72 399.413 1112.75 346.503 1112.75 346.503L1109.07 327.257Z" fill="#D68D5D"/>
<path d="M785.053 347.762C785.18 345.195 785.074 342.623 784.736 340.076C781.806 347.671 777.779 351.524 774.919 353.419C773.967 353.649 773.237 353.742 772.859 353.649C771.311 353.267 769.794 352.763 768.324 352.141C772.558 348.821 776.661 343.564 776.912 343.234C773.104 346.787 768.486 349.244 765.29 350.662C757.422 346.312 752.026 339.198 749.103 334.516C769.301 328.028 775.246 315.141 775.246 315.141C757.279 329.72 749.329 330.428 746.552 329.924C746.513 329.853 746.498 329.814 746.498 329.814C773.503 322.532 780.987 290.418 790.096 279.164C799.205 267.911 810.269 276.516 810.269 276.516C810.269 276.516 809.091 316.342 785.053 347.762Z" fill="#233862"/>
<path d="M832.124 338.359C832.124 338.359 849.776 347.901 848.31 356.442C845.974 370.066 836.142 399.771 836.142 399.771L864.852 385.221L869.984 391.524C869.984 391.524 835.12 426.945 822.837 418.811C810.554 410.676 832.124 338.359 832.124 338.359Z" fill="#C0783D"/>
<path d="M836.424 286.285C836.424 286.285 817.064 262.614 806.819 277.759C806.819 277.759 799.17 280.989 796.406 294.228C793.584 307.739 802.414 318.008 806.981 315.47C809.907 313.855 812.125 319.058 812.125 319.058L836.424 286.285Z" fill="#233862"/>
<path d="M830.34 338.2C830.416 338.236 823.224 342.033 817.816 340.528C812.738 339.117 806.279 337.383 806.349 337.367C808.504 336.931 812.249 328.942 812.205 315.996L813.179 316.193L829.556 319.493C829.556 319.493 829.181 324.738 829.172 329.675C829.159 333.825 829.407 337.758 830.34 338.2Z" fill="#CE8E55"/>
<path d="M829.556 319.493C829.556 319.493 829.181 324.738 829.172 329.675C820.006 329.413 815.163 320.908 813.179 316.193L829.556 319.493Z" fill="#C0783D"/>
<path d="M811.488 314.378C811.488 314.378 806.682 306.657 805.53 300.057C804.708 295.342 807.066 277.873 824.322 280.388C827.798 280.88 831.121 282.158 834.047 284.127C837.792 286.711 843.2 292.259 837.154 307.507L835.567 312.657L811.488 314.378Z" fill="#88B374"/>
<path d="M832.615 324.169C832.615 324.169 810.932 324.534 810.916 310.791C810.9 297.047 808.095 287.841 821.939 287.027C835.783 286.213 838.478 291.454 839.579 296.04C840.68 300.625 838.255 323.72 832.615 324.169Z" fill="#CE8E55"/>
<path d="M786.049 441.153C793.667 423.803 797.291 418.898 797.418 413.44C797.426 411.273 797.291 409.108 797.015 406.959C796.523 402.826 795.749 398.732 794.698 394.708C794.698 394.672 794.676 394.624 794.663 394.566C794.565 394.165 794.346 393.274 794.108 392.008C792.032 381.546 786.491 344.972 806.381 337.315C806.584 337.293 806.781 337.277 806.974 337.264C815.648 336.663 832.19 338.365 832.19 338.365C834.543 341.817 836.681 345.416 838.592 349.141C842.311 356.326 846.387 366.152 846.993 375.62C847.628 385.275 844.4 391.989 843.019 401.712C841.829 410.072 841.705 420.441 846.802 437.004C858.066 473.616 781.851 450.741 786.049 441.153Z" fill="#CE8E55"/>
<path d="M838.935 288.387C835.586 284.26 833.057 285.158 831.635 286.398C831.19 285.709 830.594 285.135 829.892 284.722C817.372 279.594 812.141 289.565 812.141 289.565C810.691 299.427 803.702 305.065 803.702 305.065C803.702 305.065 807.654 307.548 816.766 305.165C819.546 304.439 822.031 302.43 824.141 299.999C821.737 303.988 818.809 307.625 815.439 310.81C826.322 305.692 830.692 290.292 831.127 288.661C832.451 289.872 835.059 292.497 835.856 295.074C836.938 298.571 837.424 305.776 839.487 305.53C839.487 305.556 843.959 294.6 838.935 288.387Z" fill="#233862"/>
<path d="M843.035 401.699C843.035 401.699 814.154 410.127 797.015 406.959C796.523 402.826 795.749 398.732 794.698 394.708C794.698 394.672 794.676 394.624 794.663 394.566C794.565 394.165 794.346 393.274 794.108 392.008C799.579 388.75 806.025 386.422 806.025 386.422L843.035 401.699Z" fill="#C0783D"/>
<path d="M811.564 339.966C811.564 339.966 828.918 348.133 837.376 348.362C845.834 348.592 818.397 355.525 811.564 339.966Z" fill="#C0783D"/>
<path d="M846.825 382.472C846.107 388.853 844.054 394.436 843.016 401.699C823.173 404.347 801.515 397.22 794.698 394.708C794.698 394.672 794.676 394.624 794.663 394.566C793.755 390.859 784.082 345.905 806.381 337.315C809.768 338.464 812.828 340.435 815.299 343.057C821.631 349.606 832.273 349.741 838.592 349.141C841.172 354.123 843.921 360.378 845.574 366.901C846.316 369.756 846.793 372.675 846.999 375.62C847.144 377.905 847.085 380.198 846.825 382.472Z" fill="#ACD29A"/>
<path d="M830.34 338.2C830.34 338.2 835.418 337.981 837.052 339.085C838.687 340.189 846.92 350.009 847.354 351.333C847.354 351.333 837.16 350.448 836.183 351.11C836.183 351.11 839.899 348.905 830.34 338.2Z" fill="#88B374"/>
<path d="M875.579 643.975L867.905 641.599C867.905 641.599 831.121 598.483 839.385 553.222C839.499 552.749 839.454 552.252 839.258 551.808C837.671 548.604 830.822 534.645 823.707 517.326C820.308 509.034 816.845 499.966 813.868 490.937C812.113 485.606 810.526 480.281 809.225 475.147C809.225 475.098 809.202 475.063 809.196 475.03C809.19 474.998 809.196 474.976 809.196 474.976C806 462.291 804.55 450.734 806.552 442.829L845.907 433.174C845.907 433.174 850.221 449.491 854.41 470.587C860.282 500.137 866.62 539.069 863.227 555.657C860.215 570.359 875.579 643.975 875.579 643.975Z" fill="#CE8E55"/>
<path d="M860.957 387.168C860.957 387.168 864.376 391.017 865.432 396.022C865.432 396.022 869.904 391.595 870.171 391.501C870.438 391.407 874.36 389.163 876.068 386.599C877.775 384.035 878.924 381.907 876.636 378.045C874.348 374.183 867.851 373.082 867.092 373.847C866.334 374.612 864.274 384.219 864.274 384.219C864.274 384.219 864.039 384.939 860.957 387.168Z" fill="#B2CBFD"/>
<path d="M823.71 517.314C820.311 509.021 816.848 499.954 813.871 490.925C812.116 485.593 810.529 480.268 809.228 475.134C809.228 475.085 809.205 475.05 809.199 475.018C809.193 474.985 809.199 474.963 809.199 474.963L812.205 474.64L842.695 471.21C842.695 471.21 842.889 473.552 843.152 477.439C843.787 486.84 833.99 503.037 823.71 517.314Z" fill="#C0783D"/>
<path d="M841.01 444.034L823.142 484.399L822.869 484.26C812.735 512.593 798.205 549.166 786.808 561.531C776.699 572.491 752.293 643.685 752.293 643.685L745.73 641.337C745.73 641.337 737.459 581.087 767.705 546.841C768.043 546.499 768.26 546.051 768.321 545.569C768.581 542.262 769.717 528.742 772.107 512.073C772.688 508.027 773.342 503.8 774.072 499.479C775.138 493.224 776.366 486.785 777.779 480.478C777.801 480.372 777.823 480.268 777.848 480.155C777.906 478.628 778.166 476.045 778.512 472.728C779.095 466.918 780.044 461.152 781.352 455.465C781.4 455.265 781.444 455.065 781.495 454.861C785.066 439.891 790.169 432.351 790.169 432.351C790.169 432.351 817.327 439.968 826.776 440.63C836.224 441.292 841.01 444.034 841.01 444.034Z" fill="#CE8E55"/>
<path d="M854.413 470.574C853.045 472.767 848.608 475.237 843.146 477.423L843.079 477.449C836.748 479.974 829.058 482.115 823.196 482.984C818.232 483.724 814.572 483.546 814.166 481.928C810.973 469.244 804.546 450.721 806.549 442.816L847.091 437.21C847.091 437.21 850.224 449.481 854.413 470.574Z" fill="#ACD29A"/>
<path d="M817.746 483.43C816.562 483.73 795.104 508.398 772.107 512.057C772.688 508.011 773.342 503.784 774.072 499.463C775.138 493.208 776.366 486.769 777.779 480.462C777.801 480.356 777.823 480.252 777.848 480.139C777.906 478.612 778.166 476.028 778.512 472.712C788.033 463.231 797.9 454.951 797.9 454.951L817.746 483.43Z" fill="#C0783D"/>
<path d="M745.314 653.065H749.881C751.407 652.82 752.537 652.371 754.105 652.161C756.489 651.838 757.596 652.836 757.803 653.065L757.844 653.111H777.236C777.725 652.403 777.255 650.76 776.798 649.559C776.644 649.154 776.399 648.791 776.084 648.498C775.77 648.205 775.392 647.99 774.982 647.87C772.926 647.266 768.87 646.727 765.144 643.307C763.055 641.386 755.057 636.245 755.057 636.245H755.013C754.838 636.245 754.004 636.51 750.363 639.635C748.484 641.25 745.285 637.356 745.285 637.356C744.845 637.764 744.488 638.257 744.235 638.806C743.781 639.744 743.636 640.806 743.819 641.835C744.108 643.614 743.184 646.917 742.429 649.152C741.978 650.505 741.597 651.467 741.597 651.467C741.597 651.467 741.388 652.565 745.314 653.065Z" fill="#ACD29A"/>
<path d="M744.244 638.789C745.333 639.571 747.634 641.111 749.16 641.311C751.22 641.589 755.073 636.238 755.073 636.238H755.029C754.854 636.238 754.019 636.503 750.379 639.629C748.5 641.243 745.301 637.349 745.301 637.349C744.86 637.754 744.501 638.243 744.244 638.789Z" fill="#88B374"/>
<path d="M745.314 653.065H749.881C751.407 652.82 752.537 652.371 754.105 652.161C756.489 651.838 757.596 652.836 757.803 653.065L757.844 653.111H777.236C777.725 652.403 777.255 650.76 776.798 649.559C776.208 649.026 776.043 651.874 775.716 652.326C775.389 652.778 759.897 652.491 759.002 651.829C758.107 651.167 755.422 650.011 751.68 650.918C748.424 651.709 743.625 649.681 742.438 649.142C741.988 650.495 741.607 651.457 741.607 651.457C741.607 651.457 741.388 652.565 745.314 653.065Z" fill="#88B374"/>
<path d="M864.709 653.065H869.273C870.803 652.82 871.933 652.371 873.5 652.161C875.881 651.838 876.992 652.836 877.195 653.065L877.239 653.111H896.631C897.117 652.403 896.65 650.76 896.19 649.559C896.037 649.153 895.793 648.79 895.478 648.497C895.163 648.203 894.785 647.989 894.375 647.87C892.318 647.266 888.265 646.727 884.536 643.307C882.447 641.386 874.449 636.245 874.449 636.245H874.408C874.234 636.245 873.396 636.51 869.759 639.635C867.88 641.25 864.68 637.356 864.68 637.356C864.24 637.764 863.883 638.257 863.63 638.806C863.177 639.744 863.03 640.805 863.211 641.835C863.503 643.614 862.576 646.917 861.824 649.152C861.37 650.505 860.989 651.467 860.989 651.467C860.989 651.467 860.783 652.565 864.709 653.065Z" fill="#ACD29A"/>
<path d="M863.639 638.789C864.728 639.571 867.029 641.111 868.556 641.311C870.615 641.589 874.465 636.238 874.465 636.238H874.424C874.249 636.238 873.411 636.503 869.774 639.629C867.895 641.243 864.696 637.349 864.696 637.349C864.255 637.754 863.896 638.243 863.639 638.789Z" fill="#88B374"/>
<path d="M864.709 653.065H869.273C870.803 652.82 871.933 652.371 873.5 652.161C875.881 651.838 876.992 652.836 877.195 653.065L877.239 653.111H896.631C897.117 652.403 896.65 650.76 896.19 649.559C895.603 649.026 895.435 651.874 895.111 652.326C894.787 652.778 879.293 652.491 878.398 651.829C877.503 651.167 874.817 650.011 871.076 650.918C867.819 651.709 863.02 649.681 861.833 649.142C861.38 650.495 860.999 651.457 860.999 651.457C860.999 651.457 860.783 652.565 864.709 653.065Z" fill="#88B374"/>
<path d="M846.825 382.472C812.621 380.796 798.142 366.891 798.142 366.891H845.574C846.316 369.746 846.793 372.665 846.999 375.61C847.145 377.898 847.086 380.195 846.825 382.472Z" fill="#88B374"/>
<path d="M911.018 361.706C911.018 361.706 883.52 370.918 863.512 371.416C846.691 371.832 817.588 373.944 802.103 368.726C799.176 367.738 797.126 366.465 796.272 364.796C790.902 354.369 799.744 343.587 799.744 343.587C799.744 343.587 804.737 344.107 812.259 344.836C831.229 346.69 855.667 352.347 867.2 352.002C883.304 351.505 898.002 352.648 911.669 353.106L911.018 361.706Z" fill="#CE8E55"/>
<path d="M802.052 369.21C799.014 368.186 796.882 366.853 795.996 365.128C790.42 354.298 796.45 345.898 799.995 343.102C802.572 341.064 806.343 342.563 812.598 344.394C810.78 346.315 801.163 357.071 802.052 369.21Z" fill="#ACD29A"/>
<path d="M907.33 352.932C907.33 352.932 908.054 359.067 905.981 363.297C905.981 363.297 910.656 361.821 911.059 361.844C911.462 361.867 920.879 362.629 924.215 362.257C927.55 361.886 929.293 362.148 929.61 356.022C929.927 349.896 929.772 347.416 928.636 347.361C927.499 347.306 922.018 348.298 911.932 352.712C911.938 352.712 911.342 353.016 907.33 352.932Z" fill="#B2CBFD"/>
<path d="M843.146 477.423L843.08 477.449C836.748 479.974 829.058 482.115 823.196 482.984C819.07 476.235 807.904 456.266 821.161 457.37C837.106 458.694 843.146 477.423 843.146 477.423Z" fill="#88B374"/>
<path d="M790.169 432.328C790.169 432.328 780.013 444.76 777.845 480.142C777.845 480.142 791.493 482.978 794.428 482.08C797.364 481.182 802.455 468.517 802.455 468.517C802.455 468.517 799.633 480.985 802.347 483.304C805.061 485.622 822.193 487.718 822.193 487.718L842.581 441.592C842.581 441.592 814.217 438.286 790.169 432.328Z" fill="#ACD29A"/>
<path d="M789.842 432.767C789.842 432.767 813.842 446.007 830.924 442.203C848.005 438.399 847.091 437.21 847.091 437.21L844.152 426.877C844.152 426.877 835.316 432.108 823.44 431.614C811.564 431.12 794.476 422.96 794.476 422.96L789.842 432.767Z" fill="#88B374"/>
<path d="M1062.18 319.997L1040.49 598.957L1040.35 600.798C1039.8 607.568 1036.65 613.844 1031.57 618.253C1026.49 622.663 1019.9 624.848 1013.24 624.332L963.249 620.309C956.594 619.754 950.426 616.542 946.091 611.375C941.757 606.208 939.608 599.505 940.115 592.731L961.945 311.928C962.491 305.157 965.647 298.882 970.726 294.472C975.804 290.061 982.391 287.875 989.049 288.39L1012 290.24L1039.05 292.417C1045.7 292.971 1051.87 296.184 1056.2 301.352C1060.54 306.52 1062.69 313.223 1062.18 319.997Z" fill="#B84C42"/>
<path d="M1056.59 599.319V640.691C1056.58 643.982 1055.29 647.135 1053.01 649.462C1050.72 651.79 1047.62 653.101 1044.39 653.111H935.78C932.546 653.101 929.447 651.79 927.16 649.462C924.873 647.135 923.585 643.982 923.577 640.691V599.319C923.587 596.029 924.876 592.877 927.162 590.551C929.448 588.224 932.546 586.913 935.78 586.903H1044.39C1047.62 586.913 1050.72 588.224 1053.01 590.551C1055.29 592.877 1056.58 596.029 1056.59 599.319Z" fill="#E2923D"/>
<path d="M1062.18 319.997L1040.49 598.957C1025.55 596.991 1011.79 586.903 1011.79 586.903C1011.79 586.903 1027.88 382.986 1032.42 337.302C1036.04 300.961 1019.09 292.271 1011.99 290.24L1039.03 292.416C1045.69 292.968 1051.86 296.179 1056.2 301.347C1060.54 306.516 1062.69 313.221 1062.18 319.997Z" fill="#942E2A"/>
<path d="M1056.59 599.319V640.691C1056.58 643.982 1055.29 647.135 1053.01 649.462C1050.72 651.79 1047.62 653.101 1044.39 653.111H1031.5L1011.79 586.912H1044.39C1047.62 586.922 1050.72 588.233 1053 590.557C1055.29 592.881 1056.58 596.031 1056.59 599.319Z" fill="#D57912"/>
<path d="M1133.71 635.163C1133.71 635.163 1135.81 652.52 1132.46 653.318C1131.17 653.64 1092.61 653.234 1092.61 653.234C1092.61 653.234 1092.61 648.545 1098.93 647.502C1105.25 646.459 1116.34 642.639 1118.22 634.13C1120.1 625.621 1133.71 635.163 1133.71 635.163Z" fill="#233862"/>
<path d="M1095.55 544.729C1095.55 559.532 1112.37 637.685 1112.37 637.685C1112.37 637.685 1129.32 640.785 1136.65 633.377C1136.65 633.377 1135.06 560.882 1132.52 545.462C1132.01 542.34 1132.84 537.732 1134.43 532.132C1140.71 510.067 1158.98 472.638 1154.79 450.434C1149.53 422.618 1112.39 452.581 1112.39 452.581C1112.39 452.581 1110.77 460.05 1108.53 470.791C1103.53 494.619 1095.55 534.528 1095.55 544.729Z" fill="#2B478B"/>
<path d="M1108.49 470.804L1134.39 532.132C1140.67 510.067 1158.94 472.638 1154.75 450.434C1149.49 422.618 1112.35 452.581 1112.35 452.581C1112.35 452.581 1110.73 460.063 1108.49 470.804Z" fill="#233862"/>
<path d="M1026.25 390.251C1026.25 390.251 1016.05 390.09 1010.5 386.547C1004.94 383.005 993.676 383.153 991.41 384.933C989.144 386.712 989.506 387.778 992.289 389.386C995.073 390.994 1004.45 398.557 1012.15 397.833C1019.84 397.11 1028.97 399.542 1028.97 399.542L1026.25 390.251Z" fill="#E49963"/>
<path d="M1227.95 619.621C1227.95 619.621 1234.95 626.221 1233.58 630.923C1232.22 635.625 1225.9 638.741 1225.05 644.486C1224.2 650.23 1220.78 653.343 1217.71 653.343H1203.06C1203.06 653.343 1200.8 649.31 1206.26 648.096C1211.72 646.882 1213.78 640.142 1213.44 633.887C1213.1 627.632 1213.95 619.294 1213.95 619.294L1225.56 616.517L1227.95 619.621Z" fill="#233862"/>
<path d="M1111.68 435.961C1111.68 435.961 1155.74 522.393 1180.32 567.208C1204.91 612.023 1212.59 624.529 1212.59 624.529C1212.59 624.529 1226.67 618.794 1227.95 614.887C1227.95 614.887 1215.31 540.748 1194.88 514.562C1185.58 502.64 1186 469.031 1183.25 450.221C1181.43 437.84 1173.15 415.991 1173.15 415.991L1111.68 435.961Z" fill="#2B478B"/>
<path d="M1094.27 308.227C1091.53 311.568 1089.41 315.394 1088.03 319.513C1103.31 318.441 1122.3 297.257 1122.3 297.257C1122.3 297.257 1111.21 294.138 1103.4 281.67C1103 281.043 1102.62 280.378 1102.25 279.732C1100.97 277.435 1099.9 275.029 1099.04 272.541L1094.51 280.614L1086.97 294.06C1086.97 294.06 1088.56 298.045 1092.18 304.581C1092.82 305.72 1093.51 306.935 1094.27 308.227Z" fill="#E49963"/>
<path d="M1083.36 341.923C1083.84 349.483 1086.08 360.934 1089.12 373.634C1090.3 378.552 1091.6 383.661 1092.96 388.811C1095.18 397.155 1097.48 405.548 1099.86 413.45L1099.95 413.731C1100.12 414.535 1100.39 415.388 1100.63 416.169C1102.7 423.147 1104.68 429.606 1106.4 435.089C1109.7 445.577 1109.72 451.419 1112.35 452.601C1117.65 454.984 1138.48 452.426 1150.97 446.921C1161.52 442.351 1177.59 428.569 1177.51 421.633C1177.42 413.592 1166.81 389.383 1159.78 361.118C1151.11 326.588 1131.85 299.017 1115.83 293.331C1114.63 292.937 1113.35 295.497 1108.7 300.041C1104.4 304.239 1098.99 306.851 1093.87 307.41L1090.81 312.606C1086.68 320.01 1082.6 329.601 1083.36 341.923Z" fill="#80BDCC"/>
<path d="M1089.12 373.637C1090.3 378.555 1091.6 383.664 1092.96 388.814C1095.18 397.159 1097.48 405.551 1099.86 413.453L1099.95 413.734C1100.12 414.538 1100.39 415.391 1100.63 416.172C1102.7 423.15 1104.68 429.609 1106.4 435.092C1139.77 391.966 1120.84 340.322 1120.84 340.322L1089.12 373.637Z" fill="#5F9AA8"/>
<path d="M1131.25 328.948C1131.25 328.948 1099.74 403.378 1080.15 405.38C1070.48 406.368 1030.03 400.213 1018.38 397.801C1018.38 397.801 1015.65 398.68 1018.86 389.46C1018.86 389.46 1063.7 384.794 1071.66 378.158C1083.52 368.299 1079.79 326.662 1093.63 318.153C1107.47 309.644 1126.88 309.748 1131.25 328.948Z" fill="#E49963"/>
<path d="M1086.96 294.057C1086.96 294.057 1088.54 298.042 1092.17 304.578C1101.54 297.564 1103.14 286.304 1103.39 281.67C1103.46 280.378 1103.42 279.581 1103.42 279.581L1102.23 279.716L1094.5 280.611L1086.96 294.057Z" fill="#D68D5D"/>
<path d="M1082.68 295.394C1082.68 295.394 1106.6 290.228 1103.2 275.102C1099.8 259.976 1100.6 249.146 1085.18 251.813C1069.76 254.48 1068.1 260.936 1068.04 266.26C1067.98 271.585 1076.36 296.35 1082.68 295.394Z" fill="#E49963"/>
<path d="M1103.43 276.145C1103.43 276.145 1095.6 257.212 1073.95 262.324C1059.12 265.828 1063.01 250.515 1063.88 247.986C1063.88 247.986 1075.4 245.784 1087.32 243.85C1112.32 239.791 1104.77 272.331 1103.43 276.145Z" fill="#2B478B"/>
<path d="M1079.25 351.624C1079.25 351.624 1108.06 361.095 1112.75 371.215L1134.99 327.256L1118.7 308.136L1093.95 315.028C1093.95 315.028 1083.27 321.809 1079.25 351.624Z" fill="#80BDCC"/>
<path d="M1351.67 655.907H56.3323C55.7142 655.906 55.1218 655.759 54.6847 655.497C54.2476 655.235 54.0014 654.88 54 654.509V654.509C54.0014 654.138 54.2476 653.783 54.6847 653.521C55.1218 653.259 55.7142 653.111 56.3323 653.111H1351.67C1352.29 653.111 1352.88 653.259 1353.32 653.521C1353.75 653.783 1354 654.138 1354 654.509C1354 654.88 1353.75 655.235 1353.32 655.497C1352.88 655.759 1352.29 655.906 1351.67 655.907Z" fill="#2E3552"/>
</svg>
