<svg width="1306" height="855" viewBox="0 0 1306 855" fill="none" xmlns="http://www.w3.org/2000/svg">
<path d="M803.187 463.235C799.845 455.89 801.942 447.401 807.872 444.274C813.801 441.147 821.318 444.565 824.66 451.91C828.002 459.255 825.904 467.744 819.975 470.871C814.045 473.998 806.529 470.58 803.187 463.235Z" fill="#A9453D"/>
<path d="M133.353 293.386C333.282 338.307 216.056 -158.48 488.403 52.3897C596.694 136.25 752.685 34.7716 902.037 90.2385C1039.21 141.175 1005.41 308.321 992.143 363.011C965.331 473.48 1098.85 429.425 1176.25 476.882C1297.65 551.337 1191.15 851.496 1076.47 852.745C961.78 853.994 119.192 850.253 119.192 850.253C119.192 850.253 69.142 808.091 42.5664 721.192C-11.8925 543.047 -42.6991 253.829 133.353 293.386Z" fill="#EBF2F9"/>
<path d="M948.789 440.723H1121.19C1122.55 440.723 1123.86 441.305 1124.82 442.341C1125.78 443.378 1126.32 444.783 1126.32 446.248C1126.32 447.714 1125.78 449.119 1124.82 450.155C1123.86 451.191 1122.55 451.773 1121.19 451.773H1096.25V848.606C1096.22 849.836 1095.74 851.006 1094.92 851.865C1094.1 852.723 1093 853.204 1091.86 853.204C1090.72 853.204 1089.62 852.723 1088.8 851.865C1087.98 851.006 1087.5 849.836 1087.47 848.606V794.551H978.622V848.606C978.592 849.836 978.116 851.006 977.296 851.865C976.477 852.723 975.378 853.204 974.235 853.204C973.091 853.204 971.992 852.723 971.173 851.865C970.353 851.006 969.878 849.836 969.847 848.606V451.773H948.789C947.428 451.773 946.122 451.191 945.16 450.155C944.197 449.119 943.657 447.714 943.657 446.248C943.657 444.783 944.197 443.378 945.16 442.341C946.122 441.305 947.428 440.723 948.789 440.723ZM1087.48 595.132H978.622V687.647H1087.48V595.132ZM978.622 587.936H1087.48V495.42H978.622V587.936ZM1087.48 787.355V694.839H978.622V787.355H1087.48ZM978.622 488.228H1087.48V451.773H978.622V488.228Z" fill="#C5DBFF"/>
<path d="M720.544 825.73H473.73L428.554 693.818H454.297C454.493 693.816 454.688 693.796 454.881 693.756L506.195 683.038C506.945 682.884 507.615 682.434 508.073 681.776C508.531 681.118 508.745 680.3 508.671 679.481C508.598 678.663 508.243 677.903 507.676 677.352C507.109 676.801 506.371 676.497 505.608 676.501H422.622L400.472 611.82C399.91 610.177 398.876 608.769 397.521 607.801C396.166 606.833 394.559 606.355 392.935 606.436C391.31 606.517 389.751 607.154 388.485 608.252C387.219 609.351 386.31 610.856 385.892 612.548L344.604 614.157L343.804 611.82C343.081 609.8 341.648 608.167 339.816 607.274C337.983 606.382 335.898 606.301 334.011 607.049C332.124 607.798 330.586 609.315 329.729 611.274C328.873 613.233 328.766 615.476 329.433 617.519L400.736 825.73H366.23C362.983 825.74 359.871 827.133 357.575 829.605C355.279 832.077 353.985 835.427 353.976 838.922C353.986 842.418 355.28 845.767 357.577 848.238C359.872 850.709 362.984 852.102 366.23 852.112H720.544C723.79 852.102 726.901 850.709 729.196 848.238C731.492 845.766 732.785 842.417 732.795 838.922C732.785 835.427 731.492 832.078 729.196 829.606C726.901 827.134 723.79 825.741 720.544 825.73ZM473.739 683.099L454.005 687.22H426.294L424.885 683.099H473.739ZM399.025 655.248L409.962 687.22H369.623L359.959 658.997L399.025 655.248ZM371.876 693.818H412.234L457.41 825.73H417.055L371.876 693.818Z" fill="#C5DBFF"/>
<path d="M721.329 569.71H716.644V544.648H721.329V569.71Z" fill="#2E3552"/>
<path d="M722.747 547.73H715.01C714.147 547.73 713.448 546.977 713.448 546.049V543.243C713.448 542.315 714.147 541.562 715.01 541.562H722.747C723.61 541.562 724.309 542.315 724.309 543.243V546.049C724.309 546.977 723.61 547.73 722.747 547.73Z" fill="#2E3552"/>
<path d="M722.747 570.906H715.01C714.147 570.906 713.448 570.154 713.448 569.225V566.42C713.448 565.491 714.147 564.739 715.01 564.739H722.747C723.61 564.739 724.309 565.491 724.309 566.42V569.225C724.309 570.154 723.61 570.906 722.747 570.906Z" fill="#2E3552"/>
<path d="M634.424 540.004C634.424 540.004 650.972 549.469 649.598 557.943C647.408 571.46 638.191 600.924 638.191 600.924L665.105 586.491L669.916 592.744C669.916 592.744 637.226 627.873 625.718 619.805C614.21 611.738 634.424 540.004 634.424 540.004Z" fill="#C0783D"/>
<path d="M638.458 488.351C638.458 488.351 620.31 464.874 610.703 479.895C610.703 479.895 603.536 483.096 600.943 496.231C598.296 509.632 606.577 519.807 610.855 517.299C613.6 515.686 615.679 520.859 615.679 520.859L638.458 488.351Z" fill="#2E3552"/>
<path d="M632.754 539.847C632.824 539.881 626.089 543.65 621.011 542.157C616.25 540.756 610.198 539.034 610.265 539.02C612.283 538.59 615.793 530.666 615.752 517.835L616.666 518.027L632.018 521.3C632.018 521.3 631.669 526.504 631.659 531.404C631.647 535.508 631.885 539.41 632.754 539.847Z" fill="#CE8E55"/>
<path d="M632.018 521.29C632.018 521.29 631.669 526.494 631.659 531.394C623.068 531.13 618.526 522.694 616.666 518.016L632.018 521.29Z" fill="#C0783D"/>
<path d="M615.063 516.219C615.063 516.219 610.563 508.559 609.481 502.012C608.709 497.338 610.922 480.007 627.098 482.501C630.355 482.989 633.469 484.257 636.21 486.212C639.724 488.765 644.78 494.279 639.124 509.403L637.651 514.511L615.063 516.219Z" fill="#2E3552"/>
<path d="M634.887 525.93C634.887 525.93 614.575 526.292 614.546 512.662C614.517 499.032 611.899 489.896 624.877 489.086C637.854 488.276 640.381 493.476 641.412 498.024C642.444 502.572 640.175 525.486 634.887 525.93Z" fill="#CE8E55"/>
<path d="M591.235 641.967C598.363 624.756 601.772 619.89 601.892 614.475C601.903 612.327 601.779 610.181 601.521 608.051C601.061 603.95 600.336 599.889 599.35 595.897C599.35 595.86 599.331 595.812 599.318 595.757C599.226 595.357 599.036 594.479 598.798 593.218C596.852 582.841 591.663 546.564 610.303 538.968L610.858 538.917C618.99 538.323 634.497 540.011 634.497 540.011C636.703 543.435 638.707 547.004 640.498 550.699C643.989 557.823 647.798 567.575 648.373 576.95C648.953 586.518 645.941 593.184 644.65 602.833C643.532 611.123 643.418 621.394 648.195 637.836C658.744 674.164 587.296 651.476 591.235 641.967Z" fill="#CE8E55"/>
<path d="M640.809 490.449C637.674 486.349 635.3 487.247 633.97 488.477C633.552 487.794 632.992 487.224 632.335 486.813C620.592 481.729 615.692 491.628 615.692 491.628C614.333 501.41 607.783 507.004 607.783 507.004C607.783 507.004 611.486 509.467 620.027 507.103C622.633 506.378 624.962 504.39 626.94 501.977C624.688 505.934 621.945 509.542 618.786 512.7C628.987 507.622 633.084 492.349 633.491 490.733C634.732 491.932 637.179 494.536 637.934 497.091C638.946 500.563 639.403 507.708 641.336 507.465C641.327 507.468 645.532 496.599 640.809 490.449Z" fill="#2E3552"/>
<path d="M644.646 602.834C644.646 602.834 617.59 611.178 601.521 608.052C601.061 603.951 600.336 599.889 599.35 595.897C599.35 595.86 599.331 595.812 599.318 595.757C599.226 595.357 599.036 594.479 598.798 593.218C603.927 589.986 609.969 587.679 609.969 587.679L644.646 602.834Z" fill="#C0783D"/>
<path d="M615.152 541.617C615.152 541.617 631.418 549.715 639.35 549.933C647.281 550.152 621.557 557.03 615.152 541.617Z" fill="#C0783D"/>
<path d="M648.204 583.76C647.535 590.088 645.611 595.627 644.646 602.833C626.045 605.458 605.742 598.391 599.35 595.897C599.35 595.86 599.331 595.812 599.318 595.757C598.468 592.077 589.4 547.487 610.303 538.969C613.478 540.108 616.347 542.063 618.663 544.665C624.591 551.157 634.57 551.307 640.498 550.699C642.917 555.64 645.494 561.848 647.036 568.313C647.732 571.141 648.18 574.033 648.372 576.951C648.507 579.221 648.451 581.501 648.204 583.76Z" fill="#739CF3"/>
<path d="M632.754 539.847C632.754 539.847 637.515 539.628 639.045 540.725C640.575 541.822 648.296 551.56 648.703 552.872C648.703 552.872 639.146 551.997 638.229 552.653C638.232 552.653 641.724 550.466 632.754 539.847Z" fill="#6488D3"/>
<path d="M675.159 843.146L667.968 840.788C667.968 840.788 633.471 798.023 641.235 753.121C641.339 752.653 641.297 752.16 641.114 751.72C639.622 748.546 633.205 734.698 626.543 717.517C623.369 709.293 620.113 700.3 617.339 691.344C615.692 686.055 614.206 680.779 612.988 675.681L612.959 675.569V675.51C609.963 662.929 608.602 651.466 610.48 643.624L647.379 634.057C647.379 634.057 651.422 650.243 655.348 671.164C660.852 700.478 666.793 739.092 663.6 755.561C660.766 770.124 675.159 843.146 675.159 843.146Z" fill="#CE8E55"/>
<path d="M661.455 588.428C661.455 588.428 664.657 592.245 665.651 597.213C665.651 597.213 669.843 592.819 670.094 592.716C670.345 592.614 674.02 590.4 675.623 587.854C677.226 585.308 678.292 583.2 676.156 579.37C674.02 575.539 667.904 574.446 667.209 575.211C666.514 575.977 664.575 585.489 664.575 585.489C664.575 585.489 664.343 586.21 661.455 588.428Z" fill="#C0783D"/>
<path d="M626.537 717.507C623.363 709.283 620.107 700.29 617.333 691.334C615.686 686.045 614.2 680.769 612.982 675.671L612.953 675.558V675.5L615.771 675.159L644.351 671.742C644.351 671.742 644.535 674.062 644.78 677.916C645.361 687.282 636.172 703.351 626.537 717.507Z" fill="#C0783D"/>
<path d="M642.755 644.806L626.004 684.866L625.75 684.729C616.251 712.833 602.629 749.117 591.946 761.373C582.469 772.246 559.592 842.862 559.592 842.862L553.438 840.508C553.438 840.508 545.687 780.747 574.039 746.78C574.354 746.439 574.557 745.996 574.617 745.519C574.858 742.239 575.924 728.827 578.165 712.29C578.708 708.278 579.32 704.089 580.009 699.804C581.006 693.599 582.158 687.21 583.481 680.957C583.503 680.851 583.526 680.748 583.545 680.649C583.602 679.132 583.837 676.573 584.179 673.272C584.726 667.508 585.614 661.788 586.839 656.147C586.887 655.952 586.928 655.75 586.975 655.552C590.324 640.702 595.107 633.223 595.107 633.223C595.107 633.223 620.577 640.802 629.422 641.458C638.267 642.114 642.755 644.806 642.755 644.806Z" fill="#CE8E55"/>
<path d="M655.32 671.147C654.051 673.324 649.877 675.774 644.758 677.943L644.694 677.967C638.759 680.475 631.551 682.594 626.058 683.458C621.402 684.189 617.974 684.015 617.593 682.413C614.597 669.828 608.573 651.456 610.452 643.614L648.455 638.055C648.455 638.055 651.394 650.226 655.32 671.147Z" fill="#C65447"/>
<path d="M620.948 683.889C619.837 684.186 599.721 708.654 578.165 712.28C578.708 708.268 579.32 704.079 580.009 699.794C581.006 693.589 582.158 687.2 583.481 680.947C583.503 680.841 583.526 680.738 583.545 680.639C583.602 679.122 583.837 676.563 584.179 673.262C593.104 663.859 602.353 655.648 602.353 655.648L620.948 683.889Z" fill="#C0783D"/>
<path d="M553.051 851.845H557.329C558.76 851.599 559.82 851.162 561.29 850.947C563.512 850.632 564.549 851.63 564.756 851.845C564.77 851.858 564.783 851.873 564.794 851.89H582.973C583.43 851.186 582.992 849.559 582.561 848.36C582.417 847.958 582.188 847.598 581.893 847.307C581.598 847.017 581.244 846.804 580.859 846.686C578.933 846.084 575.131 845.548 571.655 842.158C569.697 840.252 562.201 835.154 562.201 835.154H562.159C561.994 835.154 561.207 835.417 557.802 838.516C556.037 840.115 553.041 836.257 553.041 836.257C552.628 836.663 552.293 837.152 552.054 837.696C551.631 838.627 551.495 839.679 551.664 840.699C551.937 842.463 551.061 845.739 550.362 847.957C549.937 849.3 549.582 850.253 549.582 850.253C549.582 850.253 549.366 851.346 553.051 851.845Z" fill="#485CA6"/>
<path d="M552.045 837.686C553.067 838.461 555.218 839.985 556.653 840.187C558.586 840.46 562.198 835.154 562.198 835.154H562.156C561.991 835.154 561.204 835.417 557.799 838.516C556.034 840.115 553.038 836.257 553.038 836.257C552.624 836.659 552.286 837.144 552.045 837.686Z" fill="#A9453D"/>
<path d="M553.051 851.845H557.329C558.76 851.599 559.82 851.162 561.29 850.947C563.512 850.632 564.549 851.63 564.756 851.845C564.77 851.858 564.783 851.873 564.794 851.89H582.973C583.43 851.186 582.992 849.559 582.561 848.36C582.008 847.831 581.853 850.656 581.548 851.094C581.243 851.531 566.72 851.258 565.879 850.602C565.038 849.946 562.524 848.798 559.017 849.7C555.964 850.485 551.467 848.47 550.353 847.937C549.928 849.279 549.572 850.233 549.572 850.233C549.572 850.233 549.366 851.346 553.051 851.845Z" fill="#A9453D"/>
<path d="M664.673 851.845H668.952C670.386 851.599 671.446 851.162 672.916 850.947C675.137 850.632 676.175 851.63 676.378 851.845L676.419 851.89H694.596C695.056 851.186 694.615 849.559 694.186 848.36C694.041 847.958 693.812 847.598 693.517 847.308C693.221 847.017 692.867 846.804 692.482 846.686C690.556 846.084 686.769 845.548 683.278 842.158C681.32 840.252 673.823 835.154 673.823 835.154H673.785C673.62 835.154 672.833 835.417 669.424 838.516C667.663 840.115 664.664 836.257 664.664 836.257C664.252 836.664 663.918 837.152 663.68 837.696C663.254 838.626 663.117 839.679 663.289 840.699C663.562 842.463 662.686 845.739 661.988 847.957C661.563 849.3 661.207 850.253 661.207 850.253C661.207 850.253 660.992 851.346 664.673 851.845Z" fill="#485CA6"/>
<path d="M663.67 837.686C664.692 838.461 666.844 839.985 668.279 840.187C670.208 840.46 673.82 835.154 673.82 835.154H673.782C673.617 835.154 672.83 835.417 669.421 838.516C667.66 840.115 664.661 836.257 664.661 836.257C664.248 836.66 663.912 837.145 663.67 837.686Z" fill="#A9453D"/>
<path d="M664.673 851.845H668.952C670.386 851.599 671.446 851.162 672.916 850.947C675.137 850.632 676.175 851.63 676.378 851.845L676.419 851.89H694.596C695.056 851.186 694.615 849.559 694.186 848.36C693.634 847.831 693.479 850.656 693.174 851.094C692.869 851.531 678.343 851.258 677.505 850.602C676.667 849.946 674.15 848.798 670.643 849.7C667.59 850.485 663.089 848.47 661.979 847.937C661.553 849.279 661.198 850.233 661.198 850.233C661.198 850.233 660.992 851.346 664.673 851.845Z" fill="#A9453D"/>
<path d="M648.204 583.76C616.149 582.096 602.571 568.306 602.571 568.306H647.033C647.729 571.134 648.176 574.026 648.369 576.944C648.506 579.217 648.45 581.498 648.204 583.76Z" fill="#6488D3"/>
<path d="M708.373 563.16C708.373 563.16 682.599 572.3 663.845 572.792C648.068 573.206 620.792 575.3 606.278 570.124C603.536 569.147 601.61 567.872 600.81 566.229C595.779 555.882 604.066 545.188 604.066 545.188C604.066 545.188 608.748 545.703 615.809 546.431C633.583 548.27 656.501 553.88 667.314 553.528C682.408 553.036 696.195 554.188 708.999 554.625L708.373 563.16Z" fill="#CE8E55"/>
<path d="M606.237 570.606C603.381 569.581 601.391 568.265 600.559 566.557C595.332 555.814 600.985 547.484 604.308 544.709C606.726 542.686 610.265 544.173 616.123 545.997C614.429 547.897 605.403 558.565 606.237 570.606Z" fill="#739CF3"/>
<path d="M704.923 554.461C704.923 554.461 705.606 560.553 703.654 564.739C703.654 564.739 708.037 563.276 708.414 563.297C708.792 563.317 717.618 564.079 720.751 563.707C723.884 563.334 725.512 563.598 725.807 557.526C726.102 551.454 725.959 548.984 724.893 548.933C723.826 548.881 718.691 549.862 709.236 554.242C709.246 554.259 708.691 554.543 704.923 554.461Z" fill="#CE8E55"/>
<path d="M644.758 677.95L644.694 677.974C638.759 680.482 631.551 682.6 626.058 683.465C622.182 676.771 611.721 656.964 624.153 658.057C639.096 659.362 644.758 677.95 644.758 677.95Z" fill="#B5453C"/>
<path d="M595.097 633.21C595.097 633.21 585.576 645.541 583.545 680.64C583.545 680.64 596.345 683.452 599.096 682.574C601.848 681.695 606.618 669.111 606.618 669.111C606.618 669.111 603.974 681.48 606.517 683.78C609.059 686.079 625.121 688.157 625.121 688.157L644.231 642.415C644.231 642.415 617.641 639.121 595.097 633.21Z" fill="#C65447"/>
<path d="M594.789 633.65C594.789 633.65 617.288 646.785 633.3 643.006C649.312 639.227 648.455 638.055 648.455 638.055L645.7 627.804C645.7 627.804 637.417 632.994 626.286 632.502C615.156 632.01 599.137 623.926 599.137 623.926L594.789 633.65Z" fill="#B5453C"/>
<path d="M683.544 586.358L679.62 593.538C679.183 594.339 678.226 594.606 677.483 594.135L675.237 592.712C674.493 592.241 674.245 591.211 674.683 590.411L678.606 583.231C679.044 582.431 680.001 582.164 680.744 582.634L682.99 584.057C683.733 584.528 683.981 585.558 683.544 586.358Z" fill="#2E3552"/>
<path d="M666.378 577.552L662.325 574.986L659.948 579.332L665.168 582.64C665.527 581.041 665.968 579.069 666.378 577.552Z" fill="#2E3552"/>
<path d="M674.709 582.961C674.455 584.147 673.836 585.22 673.103 586.378C672.888 586.717 672.65 587.039 672.392 587.341L680.009 592.03L682.383 587.683L674.709 582.961Z" fill="#2E3552"/>
<path d="M666.108 573.801L664.483 572.776L663.848 572.796L661.804 572.858C661.779 572.899 661.747 572.936 661.722 572.981L657.799 580.156C657.59 580.54 657.53 580.998 657.635 581.429C657.739 581.861 657.998 582.23 658.354 582.455L660.598 583.877C660.775 583.989 660.97 584.063 661.174 584.094C661.377 584.124 661.583 584.112 661.782 584.057C661.981 584.002 662.167 583.905 662.331 583.772C662.495 583.639 662.633 583.473 662.737 583.282L666.657 576.107C666.762 575.917 666.831 575.706 666.86 575.487C666.889 575.268 666.878 575.045 666.827 574.831C666.776 574.617 666.686 574.416 666.563 574.239C666.439 574.062 666.285 573.913 666.108 573.801Z" fill="#2E3552"/>
<path d="M1089.57 524.136H1094.57V550.873H1089.57V524.136Z" fill="#2E3552"/>
<path d="M1088.06 520.846H1096.32C1097.24 520.846 1097.98 521.649 1097.98 522.64V525.629C1097.98 526.62 1097.24 527.423 1096.32 527.423H1088.06C1087.14 527.423 1086.4 526.62 1086.4 525.629V522.64C1086.4 521.649 1087.14 520.846 1088.06 520.846Z" fill="#2E3552"/>
<path d="M1088.06 545.57H1096.32C1097.24 545.57 1097.98 546.373 1097.98 547.364V550.354C1097.98 551.344 1097.24 552.147 1096.32 552.147H1088.06C1087.14 552.147 1086.4 551.344 1086.4 550.354V547.364C1086.4 546.373 1087.14 545.57 1088.06 545.57Z" fill="#2E3552"/>
<path d="M1229.35 529.132C1229.22 526.416 1229.33 523.694 1229.67 520.999C1232.6 529.036 1236.62 533.112 1239.48 535.118C1240.44 535.361 1241.17 535.46 1241.54 535.361C1243.1 534.957 1244.62 534.421 1246.09 533.758C1241.86 530.246 1237.75 524.683 1237.5 524.334C1241.31 528.093 1245.93 530.693 1249.13 532.193C1256.99 527.591 1262.39 520.063 1265.31 515.109C1245.11 508.244 1239.17 494.608 1239.17 494.608C1257.12 510.045 1265.06 510.79 1267.86 510.257C1267.9 510.182 1267.91 510.141 1267.91 510.141C1240.91 502.436 1233.42 468.455 1224.31 456.55C1215.2 444.646 1204.14 453.745 1204.14 453.745C1204.14 453.745 1205.31 495.885 1229.35 529.132Z" fill="#A9453D"/>
<path d="M1182.28 519.182C1182.28 519.182 1164.63 529.279 1166.09 538.316C1168.43 552.732 1178.26 584.167 1178.26 584.167L1149.53 568.774L1144.42 575.444C1144.42 575.444 1179.28 612.917 1191.57 604.31C1203.85 595.703 1182.28 519.182 1182.28 519.182Z" fill="#C0783D"/>
<path d="M1177.98 464.081C1177.98 464.081 1197.34 439.035 1207.59 455.061C1207.59 455.061 1215.23 458.477 1218 472.487C1220.82 486.783 1211.99 497.649 1207.42 494.963C1204.5 493.255 1202.28 498.759 1202.28 498.759L1177.98 464.081Z" fill="#A9453D"/>
<path d="M1184.06 519.014C1183.99 519.052 1191.18 523.07 1196.59 521.478C1201.66 519.985 1208.12 518.15 1208.05 518.133C1205.9 517.671 1202.15 509.218 1202.2 495.52L1201.22 495.728L1184.85 499.22C1184.85 499.22 1185.22 504.769 1185.23 509.994C1185.24 514.384 1185 518.546 1184.06 519.014Z" fill="#CE8E55"/>
<path d="M1184.85 499.22C1184.85 499.22 1185.22 504.769 1185.23 509.994C1194.4 509.717 1199.24 500.717 1201.22 495.728L1184.85 499.22Z" fill="#C0783D"/>
<path d="M1202.91 493.808C1202.91 493.808 1207.72 485.638 1208.88 478.654C1209.7 473.666 1207.35 455.18 1190.09 457.842C1186.61 458.362 1183.29 459.715 1180.37 461.799C1176.62 464.532 1171.21 470.406 1177.26 486.537L1178.83 491.987L1202.91 493.808Z" fill="#A9453D"/>
<path d="M1181.79 504.168C1181.79 504.168 1203.47 504.554 1203.49 490.022C1203.5 475.49 1206.31 465.738 1192.46 464.877C1178.62 464.016 1175.92 469.562 1174.82 474.414C1173.72 479.266 1176.15 503.689 1181.79 504.168Z" fill="#CE8E55"/>
<path d="M1228.35 627.951C1220.74 609.592 1217.11 604.402 1216.98 598.627C1216.97 596.335 1217.11 594.044 1217.38 591.77C1217.87 587.396 1218.64 583.064 1219.69 578.806C1219.69 578.769 1219.72 578.717 1219.73 578.656C1219.83 578.232 1220.03 577.289 1220.29 575.95C1222.36 564.879 1227.9 526.18 1208.01 518.078C1207.81 518.054 1207.61 518.037 1207.42 518.024C1198.74 517.388 1182.2 519.189 1182.2 519.189C1179.85 522.842 1177.71 526.65 1175.8 530.591C1172.08 538.193 1168.01 548.591 1167.4 558.609C1166.78 568.826 1169.99 575.929 1171.37 586.217C1172.56 595.064 1172.69 606.035 1167.59 623.56C1156.34 662.301 1232.56 638.096 1228.35 627.951Z" fill="#CE8E55"/>
<path d="M1175.47 466.319C1178.82 461.956 1181.35 462.902 1182.77 464.215C1183.22 463.486 1183.81 462.879 1184.51 462.441C1197.03 457.015 1202.26 467.567 1202.26 467.567C1203.71 478.002 1210.7 483.968 1210.7 483.968C1210.7 483.968 1206.75 486.596 1197.64 484.074C1194.86 483.305 1192.38 481.18 1190.27 478.607C1192.67 482.828 1195.6 486.677 1198.97 490.047C1188.08 484.631 1183.71 468.335 1183.28 466.61C1181.96 467.891 1179.35 470.669 1178.55 473.396C1177.47 477.096 1176.98 484.72 1174.92 484.46C1174.92 484.474 1170.44 472.88 1175.47 466.319Z" fill="#A9453D"/>
<path d="M1171.38 586.204C1171.38 586.204 1200.24 595.088 1217.38 591.77C1217.87 587.396 1218.64 583.064 1219.69 578.806C1219.69 578.769 1219.72 578.717 1219.73 578.656C1219.83 578.232 1220.03 577.289 1220.29 575.95C1214.81 572.502 1208.37 570.038 1208.37 570.038L1171.38 586.204Z" fill="#C0783D"/>
<path d="M1202.85 520.884C1202.85 520.884 1185.5 529.525 1177.04 529.767C1168.58 530.01 1196.01 537.346 1202.85 520.884Z" fill="#C0783D"/>
<path d="M1167.58 565.877C1168.3 572.628 1170.35 578.536 1171.39 586.221C1191.23 589.026 1212.89 581.482 1219.7 578.823C1219.7 578.786 1219.73 578.734 1219.74 578.673C1220.65 574.75 1230.32 527.184 1208.02 518.095C1204.64 519.312 1201.57 521.397 1199.1 524.17C1192.78 531.099 1182.14 531.257 1175.81 530.607C1173.23 535.88 1170.48 542.502 1168.83 549.4C1168.09 552.421 1167.61 555.51 1167.4 558.626C1167.26 561.044 1167.32 563.47 1167.58 565.877Z" fill="#ACD29A"/>
<path d="M1184.06 519.014C1184.06 519.014 1178.98 518.782 1177.35 519.95C1175.72 521.119 1167.48 531.51 1167.05 532.911C1167.05 532.911 1177.24 531.975 1178.22 532.675C1178.22 532.675 1174.5 530.341 1184.06 519.014Z" fill="#88B374"/>
<path d="M1138.82 842.562L1146.5 840.047C1146.5 840.047 1183.28 794.425 1175.02 746.534C1174.9 746.034 1174.95 745.507 1175.14 745.037C1176.73 741.648 1183.58 726.877 1190.7 708.552C1194.09 699.777 1197.56 690.183 1200.53 680.629C1202.29 674.988 1203.88 669.354 1205.18 663.921C1205.18 663.87 1205.2 663.832 1205.21 663.798C1205.21 663.764 1205.21 663.74 1205.21 663.74C1208.4 650.318 1209.85 638.089 1207.85 629.725L1168.5 619.508C1168.5 619.508 1164.18 636.774 1159.99 659.096C1154.12 690.364 1147.78 731.558 1151.18 749.11C1154.19 764.667 1138.82 842.562 1138.82 842.562Z" fill="#CE8E55"/>
<path d="M1153.44 570.828C1153.44 570.828 1150.03 574.901 1148.97 580.197C1148.97 580.197 1144.5 575.512 1144.23 575.413C1143.96 575.314 1140.04 572.939 1138.33 570.226C1136.63 567.513 1135.48 565.261 1137.77 561.175C1140.05 557.088 1146.55 555.923 1147.31 556.733C1148.07 557.543 1150.13 567.708 1150.13 567.708C1150.13 567.708 1150.36 568.473 1153.44 570.828Z" fill="#C0783D"/>
<path d="M1190.69 708.538C1194.09 699.764 1197.55 690.169 1200.53 680.616C1202.29 674.974 1203.87 669.34 1205.17 663.907C1205.17 663.856 1205.2 663.818 1205.2 663.784C1205.21 663.75 1205.2 663.726 1205.2 663.726L1202.2 663.384L1171.71 659.756C1171.71 659.756 1171.51 662.233 1171.25 666.347C1170.62 676.293 1180.42 693.432 1190.69 708.538Z" fill="#C0783D"/>
<path d="M1173.39 630.989L1191.26 673.724L1191.54 673.577C1201.67 703.556 1216.2 742.256 1227.59 755.339C1237.7 766.936 1262.11 842.268 1262.11 842.268L1268.67 839.756C1268.67 839.756 1276.94 776.015 1246.7 739.768C1246.36 739.406 1246.14 738.932 1246.08 738.422V738.405C1245.82 734.906 1244.69 720.6 1242.3 702.962C1241.71 698.681 1241.06 694.208 1240.33 689.636C1239.26 683.018 1238.04 676.204 1236.62 669.531C1236.6 669.418 1236.58 669.309 1236.55 669.19C1236.5 667.573 1236.24 664.84 1235.89 661.331C1235.31 655.183 1234.36 649.081 1233.05 643.064C1233 642.852 1232.96 642.64 1232.91 642.425C1229.34 626.585 1224.23 618.606 1224.23 618.606C1224.23 618.606 1197.06 626.697 1187.62 627.398C1178.17 628.098 1173.39 630.989 1173.39 630.989Z" fill="#CE8E55"/>
<path d="M1159.99 659.082C1161.36 661.402 1165.8 664.016 1171.26 666.33L1171.32 666.357C1177.65 669.029 1185.34 671.294 1191.21 672.213C1196.17 672.996 1199.83 672.808 1200.24 671.096C1203.43 657.675 1209.86 638.075 1207.85 629.711L1167.3 623.779C1167.3 623.779 1164.18 636.763 1159.99 659.082Z" fill="#739CF3"/>
<path d="M1196.66 672.671C1197.84 672.989 1219.3 699.09 1242.3 702.962C1241.71 698.68 1241.06 694.208 1240.33 689.636C1239.26 683.017 1238.04 676.204 1236.62 669.531C1236.6 669.418 1236.58 669.309 1236.55 669.189C1236.5 667.573 1236.24 664.84 1235.89 661.33C1226.37 651.298 1216.51 642.538 1216.51 642.538L1196.66 672.671Z" fill="#C0783D"/>
<path d="M1269.09 851.842H1264.52C1262.99 851.582 1261.87 851.104 1260.3 850.885C1257.91 850.543 1256.81 851.599 1256.6 851.842L1256.56 851.89H1237.17C1236.68 851.141 1237.15 849.402 1237.6 848.131C1237.76 847.703 1238 847.319 1238.32 847.009C1238.63 846.699 1239.01 846.471 1239.42 846.344C1241.48 845.705 1245.53 845.131 1249.24 841.513C1251.33 839.483 1259.33 834.043 1259.33 834.043H1259.37C1259.55 834.043 1260.38 834.324 1264.02 837.628C1265.9 839.336 1269.1 835.236 1269.1 835.236C1269.54 835.668 1269.9 836.19 1270.15 836.77C1270.61 837.763 1270.75 838.886 1270.57 839.975C1270.28 841.858 1271.2 845.353 1271.96 847.718C1272.41 849.149 1272.79 850.164 1272.79 850.164C1272.79 850.164 1273.01 851.312 1269.09 851.842Z" fill="#485CA6"/>
<path d="M1270.16 836.736C1269.07 837.563 1266.77 839.193 1265.24 839.404C1263.18 839.695 1259.33 834.036 1259.33 834.036H1259.37C1259.55 834.036 1260.38 834.317 1264.02 837.621C1265.9 839.329 1269.1 835.229 1269.1 835.229C1269.54 835.653 1269.9 836.164 1270.16 836.736Z" fill="#A9453D"/>
<path d="M1269.09 851.842H1264.52C1262.99 851.582 1261.87 851.104 1260.3 850.885C1257.91 850.543 1256.81 851.599 1256.6 851.842L1256.56 851.89H1237.17C1236.68 851.141 1237.15 849.402 1237.6 848.131C1238.19 847.567 1238.36 850.581 1238.69 851.059C1239.01 851.538 1254.51 851.234 1255.4 850.533C1256.3 849.833 1258.98 848.606 1262.72 849.57C1265.98 850.407 1270.78 848.261 1271.96 847.69C1272.42 849.122 1272.8 850.137 1272.8 850.137C1272.8 850.137 1273.01 851.312 1269.09 851.842Z" fill="#A9453D"/>
<path d="M1150.01 851.842H1145.45C1143.92 851.582 1142.79 851.104 1141.22 850.885C1138.84 850.543 1137.73 851.599 1137.53 851.842L1137.48 851.89H1118.09C1117.6 851.141 1118.07 849.402 1118.53 848.131C1118.68 847.702 1118.93 847.317 1119.24 847.007C1119.56 846.697 1119.93 846.47 1120.35 846.344C1122.4 845.705 1126.45 845.131 1130.18 841.513C1132.27 839.483 1140.27 834.043 1140.27 834.043H1140.31C1140.49 834.043 1141.32 834.324 1144.96 837.628C1146.84 839.336 1150.04 835.236 1150.04 835.236C1150.48 835.668 1150.84 836.19 1151.09 836.77C1151.54 837.763 1151.69 838.886 1151.51 839.975C1151.22 841.858 1152.14 845.353 1152.9 847.718C1153.35 849.149 1153.73 850.164 1153.73 850.164C1153.73 850.164 1153.94 851.312 1150.01 851.842Z" fill="#485CA6"/>
<path d="M1151.08 836.736C1149.99 837.563 1147.69 839.193 1146.16 839.404C1144.11 839.695 1140.25 834.036 1140.25 834.036H1140.3C1140.47 834.036 1141.31 834.317 1144.95 837.621C1146.83 839.329 1150.02 835.229 1150.02 835.229C1150.46 835.653 1150.82 836.164 1151.08 836.736Z" fill="#A9453D"/>
<path d="M1150.01 851.842H1145.45C1143.92 851.582 1142.79 851.104 1141.22 850.885C1138.84 850.543 1137.73 851.599 1137.53 851.842L1137.48 851.89H1118.09C1117.6 851.141 1118.07 849.402 1118.53 848.131C1119.12 847.567 1119.29 850.581 1119.61 851.059C1119.93 851.538 1135.43 851.234 1136.32 850.533C1137.22 849.833 1139.9 848.606 1143.64 849.57C1146.9 850.407 1151.7 848.261 1152.89 847.69C1153.34 849.122 1153.72 850.137 1153.72 850.137C1153.72 850.137 1153.94 851.312 1150.01 851.842Z" fill="#A9453D"/>
<path d="M1167.58 565.877C1201.78 564.103 1216.26 549.39 1216.26 549.39H1168.83C1168.09 552.411 1167.61 555.499 1167.4 558.616C1167.26 561.037 1167.32 563.467 1167.58 565.877Z" fill="#88B374"/>
<path d="M1103.38 543.886C1103.38 543.886 1130.88 553.634 1150.89 554.16C1167.71 554.601 1196.81 556.836 1212.3 551.314C1215.23 550.268 1217.28 548.922 1218.13 547.156C1223.5 536.122 1214.66 524.713 1214.66 524.713C1214.66 524.713 1209.67 525.263 1202.15 526.036C1183.17 528 1158.74 533.987 1147.2 533.611C1131.1 533.085 1116.4 534.311 1102.73 534.78L1103.38 543.886Z" fill="#CE8E55"/>
<path d="M1212.35 551.826C1215.39 550.743 1217.52 549.332 1218.41 547.507C1223.98 536.047 1217.95 527.16 1214.41 524.201C1211.83 522.045 1208.06 523.63 1201.8 525.568C1203.62 527.608 1213.24 538.982 1212.35 551.826Z" fill="#ACD29A"/>
<path d="M1107.07 534.602C1107.07 534.602 1106.35 541.094 1108.42 545.57C1108.42 545.57 1103.75 544.009 1103.34 544.032C1102.94 544.056 1093.5 544.863 1090.18 544.47C1086.86 544.077 1085.1 544.35 1084.79 537.858C1084.47 531.366 1084.62 528.752 1085.76 528.694C1086.9 528.636 1092.38 529.685 1102.46 534.356C1102.46 534.37 1103.06 534.691 1107.07 534.602Z" fill="#CE8E55"/>
<path d="M1171.26 666.333L1171.32 666.36C1177.65 669.032 1185.34 671.297 1191.21 672.217C1195.33 665.075 1206.5 643.945 1193.24 645.114C1177.3 646.515 1171.26 666.333 1171.26 666.333Z" fill="#6488D3"/>
<path d="M1224.23 618.613C1224.23 618.613 1234.39 631.768 1236.56 669.206C1236.56 669.206 1222.91 672.206 1219.97 671.256C1217.04 670.306 1211.95 656.906 1211.95 656.906C1211.95 656.906 1214.77 670.091 1212.06 672.555C1209.34 675.018 1192.21 677.226 1192.21 677.226L1171.82 628.406C1171.82 628.406 1200.19 624.917 1224.23 618.613Z" fill="#739CF3"/>
<path d="M1224.56 619.077C1224.56 619.077 1200.56 633.087 1183.48 629.061C1166.4 625.036 1167.3 623.779 1167.3 623.779L1170.24 612.845C1170.24 612.845 1179.08 618.38 1190.96 617.857C1202.83 617.335 1219.92 608.707 1219.92 608.707L1224.56 619.077Z" fill="#6488D3"/>
<path d="M1135.2 565.301L1139.38 572.958C1139.85 573.812 1139.58 574.912 1138.79 575.414L1136.4 576.93C1135.6 577.433 1134.58 577.148 1134.11 576.294L1129.93 568.637C1129.46 567.783 1129.73 566.683 1130.52 566.181L1132.91 564.665C1133.71 564.163 1134.73 564.448 1135.2 565.301Z" fill="#2E3552"/>
<path d="M1148.19 559.238L1152.52 556.504L1155.06 561.144L1149.49 564.671C1149.11 562.959 1148.63 560.857 1148.19 559.238Z" fill="#2E3552"/>
<path d="M1139.31 565.012C1139.58 566.28 1140.24 567.425 1141.02 568.665C1141.25 569.026 1141.5 569.368 1141.78 569.69L1133.65 574.689L1131.11 570.052L1139.31 565.012Z" fill="#2E3552"/>
<path d="M1148.48 555.236L1150.21 554.136L1150.89 554.16C1151.59 554.177 1152.32 554.201 1153.07 554.225C1153.1 554.269 1153.13 554.307 1153.16 554.355L1157.34 562.012C1157.45 562.215 1157.53 562.44 1157.56 562.674C1157.59 562.907 1157.57 563.145 1157.52 563.373C1157.46 563.601 1157.37 563.815 1157.23 564.004C1157.1 564.192 1156.94 564.35 1156.75 564.469L1154.36 565.986C1154.17 566.106 1153.96 566.184 1153.74 566.216C1153.52 566.249 1153.3 566.235 1153.09 566.176C1152.88 566.117 1152.68 566.013 1152.51 565.871C1152.33 565.728 1152.18 565.551 1152.07 565.347L1147.89 557.676C1147.67 557.268 1147.61 556.782 1147.72 556.325C1147.83 555.869 1148.1 555.477 1148.48 555.236Z" fill="#2E3552"/>
<path d="M1202.56 489.117C1200.62 489.117 1199.04 486.112 1199.04 482.406C1199.04 478.7 1200.62 475.695 1202.56 475.695C1204.5 475.695 1206.08 478.7 1206.08 482.406C1206.08 486.112 1204.5 489.117 1202.56 489.117Z" fill="#485CA6"/>
<path d="M1202.56 479.372H1202.62C1202.87 479.355 1203.1 479.232 1203.27 479.03C1203.44 478.827 1203.52 478.562 1203.51 478.292C1203.49 477.971 1203.03 470.385 1197.19 465.359C1192.69 461.488 1186.33 460.255 1178.28 461.7C1178.16 461.717 1178.03 461.762 1177.92 461.831C1177.81 461.901 1177.71 461.994 1177.64 462.105C1177.56 462.216 1177.5 462.343 1177.47 462.477C1177.44 462.612 1177.44 462.752 1177.46 462.888C1177.48 463.025 1177.53 463.155 1177.6 463.272C1177.67 463.388 1177.76 463.488 1177.87 463.566C1177.97 463.644 1178.09 463.697 1178.22 463.724C1178.34 463.75 1178.47 463.748 1178.6 463.719C1186.08 462.38 1191.93 463.463 1195.98 466.941C1201.16 471.383 1201.61 478.34 1201.61 478.411C1201.63 478.671 1201.74 478.914 1201.91 479.092C1202.09 479.271 1202.32 479.37 1202.56 479.372Z" fill="#485CA6"/>
<path d="M1184.51 501.079C1193.97 501.079 1198.85 497.604 1201.29 494.628C1204.08 491.211 1204.39 487.75 1204.41 487.603C1204.43 487.331 1204.35 487.061 1204.19 486.852C1204.02 486.642 1203.79 486.511 1203.54 486.487C1203.29 486.463 1203.03 486.548 1202.84 486.724C1202.65 486.899 1202.52 487.15 1202.5 487.422C1202.46 487.917 1201.23 499.435 1183.58 499.019H1183.56C1183.31 499.016 1183.07 499.121 1182.88 499.312C1182.7 499.502 1182.6 499.761 1182.6 500.033C1182.6 500.305 1182.69 500.567 1182.87 500.761C1183.05 500.955 1183.29 501.066 1183.54 501.069L1184.51 501.079Z" fill="#485CA6"/>
<path d="M1181.43 498.222H1184.23C1184.77 498.222 1185.21 498.694 1185.21 499.275V500.645C1185.21 501.226 1184.77 501.697 1184.23 501.697H1181.43C1180.89 501.697 1180.45 501.226 1180.45 500.645V499.275C1180.45 498.694 1180.89 498.222 1181.43 498.222Z" fill="#485CA6"/>
<path d="M786.655 470.998C780.726 467.87 778.628 459.381 781.97 452.037C785.312 444.692 792.828 441.273 798.758 444.401C804.688 447.528 806.785 456.017 803.443 463.362C800.101 470.706 792.585 474.125 786.655 470.998Z" fill="#A9453D"/>
<path d="M985.211 525.704H960.408V848.411C960.408 849.663 959.946 850.864 959.123 851.75C958.301 852.636 957.185 853.133 956.022 853.133C954.86 853.129 953.748 852.63 952.927 851.745C952.107 850.86 951.646 849.661 951.645 848.411V768.77H842.784V848.411C842.784 849.663 842.321 850.864 841.499 851.75C840.676 852.636 839.561 853.133 838.397 853.133C837.234 853.133 836.118 852.636 835.295 851.75C834.472 850.865 834.009 849.664 834.008 848.411V525.704H813.061C810.204 525.704 807.751 523.183 807.789 520.104C807.808 518.65 808.356 517.262 809.316 516.24C810.276 515.217 811.571 514.641 812.921 514.637H985.351C986.701 514.641 987.995 515.217 988.955 516.24C989.914 517.263 990.462 518.65 990.48 520.104C990.518 523.183 988.071 525.704 985.211 525.704ZM951.632 525.704H842.771V562.155H951.645L951.632 525.704ZM951.632 569.351H842.771V661.867H951.645L951.632 569.351ZM951.645 669.066H842.784V761.581H951.645V669.066Z" fill="#C5DBFF"/>
<path d="M88.1888 854.849H1303.81C1304.39 854.848 1304.95 854.692 1305.36 854.415C1305.77 854.137 1306 853.761 1306 853.369V853.369C1306 852.977 1305.77 852.601 1305.36 852.324C1304.95 852.047 1304.39 851.891 1303.81 851.89H88.1888C87.6088 851.891 87.0527 852.047 86.6426 852.324C86.2324 852.601 86.0013 852.977 86 853.369C86.0013 853.761 86.2324 854.137 86.6426 854.415C87.0527 854.692 87.6088 854.848 88.1888 854.849Z" fill="#2E3552"/>
<path d="M909.183 550.87H904.184V524.133H909.183V550.87Z" fill="#2E3552"/>
<path d="M910.69 527.423H902.439C901.518 527.423 900.772 526.62 900.772 525.629V522.64C900.772 521.649 901.518 520.846 902.439 520.846H910.69C911.611 520.846 912.357 521.649 912.357 522.64V525.629C912.357 526.62 911.611 527.423 910.69 527.423Z" fill="#2E3552"/>
<path d="M910.69 552.145H902.439C901.518 552.145 900.772 551.341 900.772 550.351V547.361C900.772 546.37 901.518 545.567 902.439 545.567H910.69C911.611 545.567 912.357 546.37 912.357 547.361V550.351C912.357 551.341 911.611 552.145 910.69 552.145Z" fill="#2E3552"/>
<path d="M816.476 519.182C816.476 519.182 834.129 529.279 832.662 538.316C830.326 552.732 820.491 584.167 820.491 584.167L849.204 568.771L854.339 575.444C854.339 575.444 819.456 612.917 807.189 604.31C794.923 595.703 816.476 519.182 816.476 519.182Z" fill="#C0783D"/>
<path d="M820.776 464.081C820.776 464.081 801.416 439.035 791.168 455.061C791.168 455.061 783.522 458.477 780.758 472.487C777.937 486.783 786.766 497.649 791.333 494.963C794.259 493.255 796.478 498.759 796.478 498.759L820.776 464.081Z" fill="#A9453D"/>
<path d="M814.696 519.014C814.772 519.052 807.58 523.07 802.172 521.478C797.094 519.985 790.635 518.15 790.705 518.133C792.86 517.671 796.605 509.218 796.561 495.52L797.535 495.728L813.912 499.22C813.912 499.22 813.537 504.769 813.528 509.994C813.512 514.384 813.743 518.546 814.696 519.014Z" fill="#CE8E55"/>
<path d="M813.908 499.22C813.908 499.22 813.534 504.769 813.524 509.994C804.358 509.717 799.515 500.717 797.531 495.728L813.908 499.22Z" fill="#C0783D"/>
<path d="M795.84 493.808C795.84 493.808 791.035 485.638 789.883 478.654C789.061 473.666 791.419 455.18 808.675 457.842C812.15 458.362 815.473 459.715 818.4 461.799C822.145 464.532 827.553 470.406 821.507 486.537L819.92 491.987L795.84 493.808Z" fill="#A9453D"/>
<path d="M816.968 504.168C816.968 504.168 795.285 504.554 795.269 490.012C795.253 475.469 792.447 465.728 806.291 464.867C820.135 464.006 822.83 469.551 823.931 474.403C825.033 479.255 822.608 503.689 816.968 504.168Z" fill="#CE8E55"/>
<path d="M770.402 627.951C778.019 609.592 781.644 604.402 781.771 598.627C781.781 596.335 781.65 594.044 781.377 591.77C780.885 587.396 780.111 583.064 779.06 578.806C779.06 578.769 779.038 578.717 779.025 578.656C778.927 578.232 778.724 577.289 778.47 575.95C776.394 564.879 770.853 526.18 790.743 518.078C790.946 518.054 791.143 518.037 791.336 518.024C800.01 517.388 816.552 519.189 816.552 519.189C818.903 522.842 821.038 526.65 822.947 530.591C826.667 538.193 830.742 548.591 831.348 558.609C831.983 568.826 828.755 575.929 827.375 586.217C826.185 595.064 826.061 606.035 831.158 623.56C842.419 662.301 766.2 638.096 770.402 627.951Z" fill="#CE8E55"/>
<path d="M823.287 466.319C819.939 461.956 817.409 462.902 815.987 464.214C815.542 463.486 814.945 462.879 814.245 462.441C801.724 457.015 796.494 467.566 796.494 467.566C795.043 478.002 788.055 483.968 788.055 483.968C788.055 483.968 792.006 486.595 801.118 484.074C803.898 483.305 806.38 481.179 808.491 478.607C806.085 482.834 803.154 486.687 799.779 490.06C810.662 484.644 815.032 468.349 815.467 466.623C816.79 467.905 819.399 470.683 820.196 473.409C821.278 477.11 821.764 484.733 823.827 484.473C823.839 484.473 828.311 472.88 823.287 466.319Z" fill="#A9453D"/>
<path d="M827.391 586.204C827.391 586.204 798.528 595.088 781.39 591.77C780.898 587.396 780.123 583.064 779.073 578.806C779.073 578.769 779.051 578.717 779.038 578.656C778.939 578.232 778.736 577.289 778.482 575.95C783.954 572.502 790.4 570.038 790.4 570.038L827.391 586.204Z" fill="#C0783D"/>
<path d="M795.916 520.884C795.916 520.884 813.27 529.525 821.729 529.767C830.187 530.01 802.749 537.346 795.916 520.884Z" fill="#C0783D"/>
<path d="M831.177 565.877C830.46 572.628 828.407 578.536 827.369 586.221C807.526 589.026 785.868 581.482 779.051 578.823C779.051 578.786 779.028 578.734 779.016 578.673C778.108 574.75 768.434 527.184 790.733 518.095C794.12 519.312 797.18 521.397 799.652 524.17C805.977 531.099 816.619 531.257 822.944 530.607C825.525 535.88 828.273 542.502 829.927 549.4C830.668 552.421 831.145 555.51 831.352 558.626C831.497 561.044 831.438 563.47 831.177 565.877Z" fill="#FFB93E"/>
<path d="M814.696 519.014C814.696 519.014 819.774 518.782 821.405 519.95C823.036 521.119 831.276 531.51 831.71 532.911C831.71 532.911 821.516 531.975 820.539 532.675C820.535 532.675 824.252 530.341 814.696 519.014Z" fill="#FFA412"/>
<path d="M859.932 842.562L852.257 840.047C852.257 840.047 815.473 794.425 823.738 746.534C823.851 746.034 823.807 745.507 823.611 745.037C822.024 741.648 815.175 726.877 808.059 708.552C804.66 699.777 801.197 690.183 798.22 680.629C796.462 674.988 794.878 669.354 793.577 663.921C793.577 663.87 793.555 663.832 793.548 663.798C793.542 663.764 793.548 663.74 793.548 663.74C790.352 650.318 788.902 638.089 790.905 629.725L830.26 619.508C830.26 619.508 834.573 636.774 838.762 659.096C844.634 690.364 850.972 731.558 847.576 749.11C844.567 764.667 859.932 842.562 859.932 842.562Z" fill="#CE8E55"/>
<path d="M845.31 570.828C845.31 570.828 848.728 574.901 849.785 580.197C849.785 580.197 854.257 575.512 854.523 575.413C854.79 575.314 858.713 572.939 860.42 570.226C862.128 567.513 863.277 565.261 860.988 561.175C858.7 557.088 852.203 555.923 851.445 556.733C850.686 557.543 848.627 567.708 848.627 567.708C848.627 567.708 848.392 568.473 845.31 570.828Z" fill="#C0783D"/>
<path d="M808.062 708.538C804.663 699.764 801.201 690.169 798.224 680.616C796.465 674.974 794.882 669.34 793.58 663.907C793.58 663.856 793.558 663.818 793.552 663.784C793.545 663.75 793.552 663.726 793.552 663.726L796.557 663.384L827.042 659.739C827.042 659.739 827.235 662.216 827.499 666.33C828.14 676.293 818.342 693.432 808.062 708.538Z" fill="#C0783D"/>
<path d="M825.363 630.989L807.494 673.724L807.218 673.577C797.087 703.556 782.558 742.256 771.161 755.339C761.052 766.936 736.646 842.268 736.646 842.268L730.082 839.756C730.082 839.756 721.811 776.004 752.058 739.768C752.396 739.406 752.613 738.932 752.673 738.422V738.405C752.934 734.906 754.07 720.6 756.46 702.962C757.04 698.681 757.694 694.208 758.424 689.636C759.491 683.018 760.719 676.204 762.131 669.531C762.153 669.418 762.176 669.309 762.201 669.19C762.258 667.573 762.518 664.84 762.864 661.331C763.453 655.182 764.407 649.081 765.721 643.064C765.768 642.852 765.813 642.64 765.864 642.425C769.434 626.585 774.538 618.606 774.538 618.606C774.538 618.606 801.683 626.697 811.128 627.398C820.574 628.098 825.363 630.989 825.363 630.989Z" fill="#CE8E55"/>
<path d="M838.766 659.082C837.398 661.402 832.961 664.016 827.499 666.33L827.432 666.357C821.085 669.029 813.41 671.294 807.548 672.213C802.584 672.996 798.925 672.808 798.519 671.096C795.326 657.675 788.899 638.075 790.902 629.711L831.444 623.779C831.444 623.779 834.576 636.763 838.766 659.082Z" fill="#FFB93E"/>
<path d="M802.099 672.671C800.915 672.989 779.457 699.09 756.46 702.962C757.04 698.68 757.694 694.208 758.424 689.636C759.49 683.017 760.719 676.204 762.131 669.531C762.153 669.418 762.176 669.309 762.201 669.189C762.258 667.573 762.518 664.84 762.864 661.33C772.386 651.298 782.253 642.538 782.253 642.538L802.099 672.671Z" fill="#C0783D"/>
<path d="M729.666 851.842H734.233C735.76 851.582 736.89 851.104 738.458 850.885C740.841 850.543 741.949 851.599 742.155 851.842L742.196 851.89H761.588C762.077 851.141 761.607 849.402 761.15 848.131C760.996 847.703 760.752 847.319 760.437 847.009C760.122 846.699 759.745 846.471 759.335 846.344C757.278 845.705 753.222 845.131 749.496 841.513C747.405 839.483 739.41 834.043 739.41 834.043H739.365C739.191 834.043 738.356 834.324 734.716 837.628C732.837 839.336 729.638 835.236 729.638 835.236C729.198 835.668 728.841 836.19 728.587 836.77C728.134 837.763 727.988 838.886 728.171 839.975C728.46 841.858 727.537 845.353 726.781 847.718C726.331 849.149 725.95 850.164 725.95 850.164C725.95 850.164 725.74 851.312 729.666 851.842Z" fill="#FFB93E"/>
<path d="M728.597 836.736C729.685 837.563 731.986 839.193 733.513 839.404C735.573 839.695 739.426 834.036 739.426 834.036H739.381C739.207 834.036 738.372 834.317 734.732 837.621C732.853 839.329 729.653 835.229 729.653 835.229C729.214 835.653 728.855 836.164 728.597 836.736Z" fill="#485CA6"/>
<path d="M729.666 851.842H734.233C735.76 851.582 736.89 851.104 738.458 850.885C740.841 850.543 741.949 851.599 742.155 851.842L742.196 851.89H761.588C762.077 851.141 761.607 849.402 761.15 848.131C760.56 847.567 760.395 850.581 760.068 851.059C759.741 851.538 744.25 851.234 743.355 850.533C742.46 849.833 739.775 848.606 736.033 849.57C732.777 850.407 727.978 848.261 726.791 847.69C726.34 849.122 725.959 850.137 725.959 850.137C725.959 850.137 725.74 851.312 729.666 851.842Z" fill="#485CA6"/>
<path d="M848.744 851.842H853.308C854.838 851.582 855.968 851.104 857.536 850.885C859.916 850.543 861.027 851.599 861.23 851.842L861.274 851.89H880.666C881.152 851.141 880.685 849.402 880.225 848.131C880.072 847.702 879.828 847.317 879.513 847.007C879.198 846.697 878.82 846.47 878.41 846.344C876.353 845.705 872.3 845.131 868.571 841.513C866.482 839.483 858.484 834.043 858.484 834.043H858.443C858.269 834.043 857.431 834.324 853.794 837.628C851.912 839.336 848.715 835.236 848.715 835.236C848.275 835.668 847.918 836.19 847.665 836.77C847.212 837.763 847.065 838.886 847.246 839.975C847.538 841.858 846.611 845.353 845.859 847.718C845.405 849.149 845.024 850.164 845.024 850.164C845.024 850.164 844.815 851.312 848.744 851.842Z" fill="#FFB93E"/>
<path d="M847.674 836.736C848.763 837.563 851.064 839.193 852.591 839.404C854.647 839.695 858.5 834.036 858.5 834.036H858.459C858.285 834.036 857.447 834.317 853.809 837.621C851.927 839.329 848.731 835.229 848.731 835.229C848.292 835.653 847.933 836.164 847.674 836.736Z" fill="#485CA6"/>
<path d="M848.744 851.842H853.308C854.838 851.582 855.968 851.104 857.536 850.885C859.916 850.543 861.027 851.599 861.23 851.842L861.274 851.89H880.666C881.152 851.141 880.685 849.402 880.225 848.131C879.638 847.567 879.47 850.581 879.146 851.059C878.822 851.538 863.328 851.234 862.433 850.533C861.538 849.833 858.853 848.606 855.111 849.57C851.854 850.407 847.056 848.261 845.869 847.69C845.415 849.122 845.034 850.137 845.034 850.137C845.034 850.137 844.815 851.312 848.744 851.842Z" fill="#485CA6"/>
<path d="M831.177 565.877C796.973 564.103 782.494 549.39 782.494 549.39H829.927C830.668 552.411 831.145 555.499 831.352 558.616C831.497 561.037 831.439 563.467 831.177 565.877Z" fill="#FFA412"/>
<path d="M895.37 543.886C895.37 543.886 867.873 553.634 847.865 554.16C831.044 554.601 801.94 556.836 786.455 551.314C783.529 550.268 781.479 548.922 780.625 547.156C775.255 536.122 784.097 524.713 784.097 524.713C784.097 524.713 789.089 525.263 796.608 526.036C815.581 528 840.019 533.987 851.553 533.611C867.657 533.085 882.339 534.311 896.021 534.78L895.37 543.886Z" fill="#CE8E55"/>
<path d="M786.404 551.826C783.367 550.743 781.234 549.332 780.349 547.507C774.772 536.047 780.803 527.16 784.348 524.201C786.925 522.045 790.695 523.63 796.951 525.568C795.132 527.608 785.516 538.982 786.404 551.826Z" fill="#FFB93E"/>
<path d="M891.682 534.602C891.682 534.602 892.406 541.094 890.333 545.57C890.333 545.57 895.009 544.009 895.412 544.032C895.815 544.056 905.231 544.863 908.567 544.47C911.903 544.077 913.645 544.354 913.963 537.872C914.28 531.39 914.124 528.766 912.985 528.708C911.846 528.65 906.371 529.699 896.284 534.37C896.291 534.37 895.694 534.691 891.682 534.602Z" fill="#CE8E55"/>
<path d="M827.499 666.333L827.432 666.36C821.085 669.032 813.41 671.297 807.548 672.217C803.422 665.075 792.257 643.945 805.514 645.114C821.459 646.515 827.499 666.333 827.499 666.333Z" fill="#FFA412"/>
<path d="M774.522 618.613C774.522 618.613 764.365 631.768 762.198 669.206C762.198 669.206 775.845 672.206 778.781 671.257C781.717 670.307 786.807 656.906 786.807 656.906C786.807 656.906 783.986 670.098 786.699 672.552C789.413 675.005 806.545 677.222 806.545 677.222L826.934 628.406C826.934 628.406 798.569 624.917 774.522 618.613Z" fill="#FFB93E"/>
<path d="M774.195 619.077C774.195 619.077 798.195 633.087 815.277 629.061C832.358 625.036 831.444 623.779 831.444 623.779L828.505 612.845C828.505 612.845 819.669 618.38 807.793 617.857C795.916 617.335 778.832 608.704 778.832 608.704L774.195 619.077Z" fill="#FFA412"/>
<path d="M870.459 569.038L866.251 576.678C865.781 577.53 864.759 577.811 863.968 577.306L861.579 575.781C860.788 575.276 860.527 574.176 860.996 573.324L865.205 565.684C865.674 564.832 866.696 564.55 867.488 565.056L869.876 566.58C870.667 567.086 870.928 568.186 870.459 569.038Z" fill="#2E3552"/>
<path d="M850.56 559.238L846.234 556.504L843.695 561.144L849.265 564.671C849.642 562.959 850.125 560.857 850.56 559.238Z" fill="#2E3552"/>
<path d="M859.446 565.012C859.173 566.28 858.513 567.425 857.732 568.665C857.502 569.026 857.249 569.368 856.974 569.69L865.105 574.689L867.644 570.052L859.446 565.012Z" fill="#2E3552"/>
<path d="M850.274 555.236L848.541 554.136L847.865 554.16C847.16 554.177 846.434 554.201 845.688 554.225C845.659 554.269 845.624 554.307 845.599 554.355L841.416 562.012C841.304 562.215 841.231 562.44 841.2 562.673C841.169 562.907 841.182 563.144 841.237 563.373C841.292 563.601 841.388 563.815 841.52 564.003C841.652 564.192 841.817 564.35 842.006 564.469L844.399 565.986C844.588 566.106 844.797 566.184 845.014 566.216C845.23 566.249 845.451 566.235 845.663 566.176C845.875 566.117 846.074 566.013 846.249 565.871C846.423 565.728 846.57 565.551 846.681 565.347L850.877 557.676C851.096 557.266 851.156 556.78 851.043 556.322C850.93 555.865 850.653 555.475 850.274 555.236Z" fill="#2E3552"/>
<path d="M933.218 514.432V724.536H931.882V514.432C931.882 514.338 931.898 514.244 931.932 514.157C931.965 514.069 932.014 513.99 932.076 513.923C932.138 513.856 932.212 513.802 932.293 513.766C932.374 513.73 932.461 513.711 932.548 513.711C932.726 513.711 932.896 513.787 933.022 513.922C933.147 514.058 933.218 514.241 933.218 514.432Z" fill="#ADCBFF"/>
<path d="M939.902 514.22C939.99 514.22 940.077 514.238 940.159 514.274C940.24 514.31 940.314 514.363 940.376 514.43C940.439 514.497 940.488 514.577 940.521 514.665C940.555 514.752 940.572 514.846 940.572 514.941V593.669C940.578 593.768 940.565 593.867 940.535 593.96C940.504 594.053 940.456 594.139 940.393 594.211C940.33 594.283 940.255 594.341 940.17 594.38C940.086 594.42 939.995 594.44 939.903 594.44C939.812 594.44 939.721 594.42 939.637 594.38C939.552 594.341 939.477 594.283 939.414 594.211C939.351 594.139 939.303 594.053 939.272 593.96C939.242 593.867 939.229 593.768 939.235 593.669V514.941C939.235 514.847 939.252 514.753 939.285 514.666C939.318 514.578 939.368 514.499 939.429 514.432C939.491 514.365 939.565 514.311 939.646 514.275C939.727 514.239 939.814 514.22 939.902 514.22Z" fill="#ADCBFF"/>
<path d="M940.219 592.529C940.906 592.53 941.564 592.825 942.049 593.347C942.534 593.87 942.808 594.578 942.809 595.317V604.85C942.809 605.589 942.536 606.298 942.051 606.821C941.565 607.344 940.906 607.638 940.219 607.638C939.533 607.638 938.874 607.344 938.388 606.821C937.902 606.298 937.63 605.589 937.63 604.85V595.317C937.631 594.578 937.905 593.87 938.39 593.347C938.875 592.825 939.533 592.53 940.219 592.529Z" fill="#E69D43"/>
<path d="M995.548 718.228C996.233 718.23 996.889 718.522 997.374 719.042C997.86 719.561 998.135 720.266 998.141 721.003V730.536C998.141 731.275 997.868 731.984 997.383 732.507C996.897 733.03 996.238 733.324 995.551 733.324C994.865 733.324 994.206 733.03 993.72 732.507C993.234 731.984 992.962 731.275 992.962 730.536V721.003C992.967 720.267 993.242 719.563 993.726 719.044C994.21 718.525 994.865 718.232 995.548 718.228Z" fill="#E69D43"/>
</svg>
