<svg width="1176" height="607" viewBox="0 0 1176 607" fill="none" xmlns="http://www.w3.org/2000/svg">
<path d="M509.568 597.443C509.568 598.037 509.408 598.492 509.088 598.809C508.768 599.125 508.314 599.283 507.729 599.283C507.143 599.283 506.67 599.076 506.311 598.662C505.955 598.248 505.777 597.688 505.777 596.98V596.453C505.777 595.773 505.957 595.227 506.316 594.812C506.676 594.395 507.146 594.186 507.729 594.186C508.311 594.186 508.764 594.344 509.088 594.66C509.412 594.973 509.574 595.426 509.574 596.02H508.994C508.994 595.145 508.572 594.707 507.729 594.707C507.314 594.707 506.982 594.865 506.732 595.182C506.482 595.498 506.357 595.932 506.357 596.482V597.016C506.357 597.539 506.48 597.961 506.727 598.281C506.973 598.598 507.307 598.756 507.729 598.756C508.143 598.756 508.455 598.652 508.666 598.445C508.881 598.238 508.988 597.904 508.988 597.443H509.568ZM504.125 596.729C504.125 597.416 504.283 598.061 504.6 598.662C504.92 599.264 505.367 599.74 505.941 600.092C506.516 600.443 507.131 600.619 507.787 600.619C508.439 600.619 509.049 600.445 509.615 600.098C510.182 599.75 510.627 599.277 510.951 598.68C511.279 598.078 511.443 597.428 511.443 596.729C511.443 596.033 511.281 595.389 510.957 594.795C510.633 594.197 510.186 593.727 509.615 593.383C509.049 593.035 508.439 592.861 507.787 592.861C507.119 592.861 506.498 593.039 505.924 593.395C505.35 593.75 504.906 594.225 504.594 594.818C504.281 595.412 504.125 596.049 504.125 596.729ZM503.627 596.729C503.627 595.939 503.809 595.207 504.172 594.531C504.539 593.855 505.045 593.324 505.689 592.938C506.338 592.547 507.037 592.352 507.787 592.352C508.537 592.352 509.234 592.547 509.879 592.938C510.523 593.324 511.027 593.855 511.391 594.531C511.758 595.207 511.941 595.939 511.941 596.729C511.941 597.498 511.766 598.219 511.414 598.891C511.062 599.562 510.562 600.104 509.914 600.514C509.27 600.92 508.561 601.123 507.787 601.123C507.018 601.123 506.309 600.922 505.66 600.52C505.016 600.113 504.516 599.574 504.16 598.902C503.805 598.23 503.627 597.506 503.627 596.729ZM521.422 598.902C521.422 598.43 521.256 598.057 520.924 597.783C520.592 597.506 519.984 597.244 519.102 596.998C518.219 596.748 517.574 596.477 517.168 596.184C516.59 595.77 516.301 595.227 516.301 594.555C516.301 593.902 516.568 593.373 517.104 592.967C517.643 592.557 518.33 592.352 519.166 592.352C519.732 592.352 520.238 592.461 520.684 592.68C521.133 592.898 521.48 593.203 521.727 593.594C521.973 593.984 522.096 594.42 522.096 594.9H521.369C521.369 594.318 521.17 593.852 520.771 593.5C520.373 593.145 519.838 592.967 519.166 592.967C518.514 592.967 517.994 593.113 517.607 593.406C517.221 593.695 517.027 594.074 517.027 594.543C517.027 594.977 517.201 595.33 517.549 595.604C517.896 595.877 518.453 596.119 519.219 596.33C519.984 596.537 520.564 596.754 520.959 596.98C521.354 597.203 521.65 597.471 521.85 597.783C522.049 598.096 522.148 598.465 522.148 598.891C522.148 599.562 521.879 600.102 521.34 600.508C520.805 600.914 520.098 601.117 519.219 601.117C518.617 601.117 518.064 601.01 517.561 600.795C517.061 600.58 516.68 600.279 516.418 599.893C516.16 599.506 516.031 599.062 516.031 598.562H516.752C516.752 599.164 516.977 599.639 517.426 599.986C517.875 600.334 518.473 600.508 519.219 600.508C519.883 600.508 520.416 600.361 520.818 600.068C521.221 599.775 521.422 599.387 521.422 598.902ZM524.24 595.732C524.471 595.354 524.766 595.061 525.125 594.854C525.484 594.646 525.877 594.543 526.303 594.543C526.982 594.543 527.488 594.734 527.82 595.117C528.152 595.5 528.32 596.074 528.324 596.84V601H527.627V596.834C527.623 596.268 527.502 595.846 527.264 595.568C527.029 595.291 526.652 595.152 526.133 595.152C525.699 595.152 525.314 595.289 524.979 595.562C524.646 595.832 524.4 596.197 524.24 596.658V601H523.543V592H524.24V595.732ZM529.742 597.736C529.742 597.127 529.859 596.578 530.094 596.09C530.332 595.602 530.666 595.223 531.096 594.953C531.529 594.68 532.02 594.543 532.566 594.543C533.41 594.543 534.094 594.84 534.617 595.434C535.141 596.023 535.402 596.807 535.402 597.783V597.93C535.402 598.543 535.283 599.096 535.045 599.588C534.811 600.076 534.479 600.453 534.049 600.719C533.619 600.984 533.129 601.117 532.578 601.117C531.738 601.117 531.055 600.822 530.527 600.232C530.004 599.639 529.742 598.854 529.742 597.877V597.736ZM530.445 597.93C530.445 598.688 530.641 599.311 531.031 599.799C531.426 600.283 531.941 600.525 532.578 600.525C533.211 600.525 533.723 600.283 534.113 599.799C534.508 599.311 534.705 598.668 534.705 597.871V597.736C534.705 597.252 534.615 596.809 534.436 596.406C534.256 596.004 534.004 595.693 533.68 595.475C533.355 595.252 532.984 595.141 532.566 595.141C531.941 595.141 531.432 595.387 531.037 595.879C530.643 596.367 530.445 597.008 530.445 597.801V597.93ZM539.785 595.258C539.637 595.23 539.479 595.217 539.311 595.217C538.873 595.217 538.502 595.34 538.197 595.586C537.896 595.828 537.682 596.182 537.553 596.646V601H536.855V594.66H537.541L537.553 595.668C537.924 594.918 538.52 594.543 539.34 594.543C539.535 594.543 539.689 594.568 539.803 594.619L539.785 595.258ZM542.281 593.037V594.66H543.594V595.234H542.281V599.459C542.281 599.811 542.344 600.072 542.469 600.244C542.598 600.416 542.811 600.502 543.107 600.502C543.225 600.502 543.414 600.482 543.676 600.443L543.705 601.018C543.521 601.084 543.271 601.117 542.955 601.117C542.475 601.117 542.125 600.979 541.906 600.701C541.688 600.42 541.578 600.008 541.578 599.465V595.234H540.412V594.66H541.578V593.037H542.281ZM551.533 601H550.807V596.91H545.932V601H545.211V592.469H545.932V596.301H550.807V592.469H551.533V601ZM559.584 592.469V598.293C559.58 598.867 559.453 599.367 559.203 599.793C558.953 600.219 558.6 600.547 558.143 600.777C557.689 601.004 557.168 601.117 556.578 601.117C555.68 601.117 554.959 600.873 554.416 600.385C553.877 599.893 553.598 599.213 553.578 598.346V592.469H554.293V598.24C554.293 598.959 554.498 599.518 554.908 599.916C555.318 600.311 555.875 600.508 556.578 600.508C557.281 600.508 557.836 600.309 558.242 599.91C558.652 599.512 558.857 598.957 558.857 598.246V592.469H559.584ZM561.594 601V592.469H564.113C565.027 592.469 565.721 592.658 566.193 593.037C566.666 593.412 566.902 593.967 566.902 594.701C566.902 595.143 566.781 595.527 566.539 595.855C566.301 596.18 565.973 596.412 565.555 596.553C566.051 596.662 566.449 596.906 566.75 597.285C567.055 597.664 567.207 598.102 567.207 598.598C567.207 599.352 566.963 599.941 566.475 600.367C565.99 600.789 565.314 601 564.447 601H561.594ZM562.314 596.898V600.391H564.477C565.094 600.391 565.582 600.234 565.941 599.922C566.305 599.605 566.486 599.168 566.486 598.609C566.486 598.082 566.312 597.666 565.965 597.361C565.621 597.053 565.145 596.898 564.535 596.898H562.314ZM562.314 596.295H564.283C564.885 596.283 565.35 596.143 565.678 595.873C566.01 595.6 566.176 595.203 566.176 594.684C566.176 594.137 566.004 593.734 565.66 593.477C565.32 593.215 564.805 593.084 564.113 593.084H562.314V596.295ZM576.939 601H571.596V600.461L574.52 597.145C575.004 596.586 575.34 596.125 575.527 595.762C575.715 595.398 575.809 595.045 575.809 594.701C575.809 594.162 575.65 593.736 575.334 593.424C575.018 593.107 574.582 592.949 574.027 592.949C573.453 592.949 572.988 593.133 572.633 593.5C572.281 593.867 572.105 594.344 572.105 594.93H571.408C571.408 594.449 571.516 594.012 571.73 593.617C571.949 593.223 572.258 592.914 572.656 592.691C573.059 592.465 573.516 592.352 574.027 592.352C574.809 592.352 575.418 592.557 575.855 592.967C576.297 593.377 576.518 593.936 576.518 594.643C576.518 595.041 576.393 595.477 576.143 595.949C575.896 596.422 575.461 597.012 574.836 597.719L572.457 600.408H576.939V601ZM583.396 597.443C583.396 598.646 583.176 599.561 582.734 600.186C582.293 600.807 581.643 601.117 580.783 601.117C579.939 601.117 579.293 600.812 578.844 600.203C578.395 599.59 578.164 598.699 578.152 597.531V596.002C578.152 594.803 578.375 593.895 578.82 593.277C579.266 592.66 579.916 592.352 580.771 592.352C581.615 592.352 582.26 592.65 582.705 593.248C583.15 593.842 583.381 594.719 583.396 595.879V597.443ZM582.693 595.914C582.693 594.938 582.533 594.199 582.213 593.699C581.896 593.199 581.416 592.949 580.771 592.949C580.139 592.949 579.662 593.193 579.342 593.682C579.021 594.17 578.857 594.891 578.85 595.844V597.52C578.85 598.492 579.014 599.236 579.342 599.752C579.674 600.268 580.154 600.525 580.783 600.525C581.408 600.525 581.881 600.273 582.201 599.77C582.525 599.266 582.689 598.527 582.693 597.555V595.914ZM590.252 601H584.908V600.461L587.832 597.145C588.316 596.586 588.652 596.125 588.84 595.762C589.027 595.398 589.121 595.045 589.121 594.701C589.121 594.162 588.963 593.736 588.646 593.424C588.33 593.107 587.895 592.949 587.34 592.949C586.766 592.949 586.301 593.133 585.945 593.5C585.594 593.867 585.418 594.344 585.418 594.93H584.721C584.721 594.449 584.828 594.012 585.043 593.617C585.262 593.223 585.57 592.914 585.969 592.691C586.371 592.465 586.828 592.352 587.34 592.352C588.121 592.352 588.73 592.557 589.168 592.967C589.609 593.377 589.83 593.936 589.83 594.643C589.83 595.041 589.705 595.477 589.455 595.949C589.209 596.422 588.773 597.012 588.148 597.719L585.77 600.408H590.252V601ZM596.709 597.443C596.709 598.646 596.488 599.561 596.047 600.186C595.605 600.807 594.955 601.117 594.096 601.117C593.252 601.117 592.605 600.812 592.156 600.203C591.707 599.59 591.477 598.699 591.465 597.531V596.002C591.465 594.803 591.688 593.895 592.133 593.277C592.578 592.66 593.229 592.352 594.084 592.352C594.928 592.352 595.572 592.65 596.018 593.248C596.463 593.842 596.693 594.719 596.709 595.879V597.443ZM596.006 595.914C596.006 594.938 595.846 594.199 595.525 593.699C595.209 593.199 594.729 592.949 594.084 592.949C593.451 592.949 592.975 593.193 592.654 593.682C592.334 594.17 592.17 594.891 592.162 595.844V597.52C592.162 598.492 592.326 599.236 592.654 599.752C592.986 600.268 593.467 600.525 594.096 600.525C594.721 600.525 595.193 600.273 595.514 599.77C595.838 599.266 596.002 598.527 596.006 597.555V595.914Z" fill="black"/>
<rect x="435" y="514" width="238" height="51" rx="5" fill="#ADCBFF"/>
<path d="M519.746 529.809C522.176 529.809 524.102 530.594 525.523 532.164C526.953 533.734 527.668 535.863 527.668 538.551C527.668 541.238 526.957 543.367 525.535 544.938C524.113 546.5 522.184 547.281 519.746 547.281C517.309 547.281 515.379 546.5 513.957 544.938C512.535 543.367 511.824 541.238 511.824 538.551C511.824 535.863 512.535 533.734 513.957 532.164C515.379 530.594 517.309 529.809 519.746 529.809ZM519.746 532.117C518.137 532.117 516.859 532.695 515.914 533.852C514.977 535.008 514.508 536.574 514.508 538.551C514.508 540.52 514.977 542.082 515.914 543.238C516.859 544.395 518.137 544.973 519.746 544.973C521.348 544.973 522.617 544.395 523.555 543.238C524.5 542.082 524.973 540.52 524.973 538.551C524.973 536.574 524.5 535.008 523.555 533.852C522.617 532.695 521.348 532.117 519.746 532.117ZM542.949 547V536.676H537.488V547H534.969V534.672H545.48V547H542.949ZM554.645 534.473C556.215 534.473 557.473 535.047 558.418 536.195C559.363 537.344 559.836 538.891 559.836 540.836C559.836 542.781 559.367 544.332 558.43 545.488C557.492 546.637 556.246 547.211 554.691 547.211C553.816 547.211 553.039 547.012 552.359 546.613C551.688 546.215 551.172 545.668 550.812 544.973H550.754V551.078H548.223V534.672H550.672V536.793H550.719C551.086 536.074 551.613 535.508 552.301 535.094C552.988 534.68 553.77 534.473 554.645 534.473ZM553.977 545.066C554.977 545.066 555.77 544.688 556.355 543.93C556.941 543.164 557.234 542.133 557.234 540.836C557.234 539.547 556.941 538.52 556.355 537.754C555.77 536.988 554.977 536.605 553.977 536.605C553.008 536.605 552.227 536.992 551.633 537.766C551.039 538.539 550.742 539.562 550.742 540.836C550.742 542.117 551.035 543.145 551.621 543.918C552.215 544.684 553 545.066 553.977 545.066ZM571.578 545.523C570.516 546.664 569.098 547.234 567.324 547.234C565.551 547.234 564.133 546.664 563.07 545.523C562.008 544.375 561.477 542.812 561.477 540.836C561.477 538.867 562.008 537.312 563.07 536.172C564.133 535.023 565.551 534.449 567.324 534.449C569.098 534.449 570.516 535.023 571.578 536.172C572.641 537.312 573.172 538.867 573.172 540.836C573.172 542.812 572.641 544.375 571.578 545.523ZM567.324 545.148C568.332 545.148 569.129 544.77 569.715 544.012C570.301 543.254 570.594 542.195 570.594 540.836C570.594 539.484 570.297 538.43 569.703 537.672C569.117 536.914 568.324 536.535 567.324 536.535C566.324 536.535 565.527 536.914 564.934 537.672C564.348 538.43 564.055 539.484 564.055 540.836C564.055 542.195 564.348 543.254 564.934 544.012C565.527 544.77 566.324 545.148 567.324 545.148ZM582.664 537.379C582.109 536.785 581.395 536.488 580.52 536.488C579.645 536.488 578.918 536.789 578.34 537.391C577.762 537.984 577.441 538.754 577.379 539.699H583.543C583.512 538.746 583.219 537.973 582.664 537.379ZM583.531 543.379H585.934C585.754 544.512 585.176 545.438 584.199 546.156C583.223 546.875 582.031 547.234 580.625 547.234C578.82 547.234 577.398 546.668 576.359 545.535C575.328 544.395 574.812 542.848 574.812 540.895C574.812 538.957 575.328 537.398 576.359 536.219C577.398 535.039 578.785 534.449 580.52 534.449C582.223 534.449 583.574 535.008 584.574 536.125C585.574 537.234 586.074 538.727 586.074 540.602V541.469H577.367V541.621C577.367 542.699 577.668 543.562 578.27 544.211C578.871 544.859 579.676 545.184 580.684 545.184C581.395 545.184 582.004 545.02 582.512 544.691C583.02 544.363 583.359 543.926 583.531 543.379ZM593.246 540.461L598.918 547H595.742L590.855 541.316H590.762V547H588.242V534.672H590.762V539.945H590.855L595.684 534.672H598.707L593.246 540.461ZM609.594 534.672V536.676H605.727V547H603.207V536.676H599.34V534.672H609.594ZM618.523 537.379C617.969 536.785 617.254 536.488 616.379 536.488C615.504 536.488 614.777 536.789 614.199 537.391C613.621 537.984 613.301 538.754 613.238 539.699H619.402C619.371 538.746 619.078 537.973 618.523 537.379ZM619.391 543.379H621.793C621.613 544.512 621.035 545.438 620.059 546.156C619.082 546.875 617.891 547.234 616.484 547.234C614.68 547.234 613.258 546.668 612.219 545.535C611.188 544.395 610.672 542.848 610.672 540.895C610.672 538.957 611.188 537.398 612.219 536.219C613.258 535.039 614.645 534.449 616.379 534.449C618.082 534.449 619.434 535.008 620.434 536.125C621.434 537.234 621.934 538.727 621.934 540.602V541.469H613.227V541.621C613.227 542.699 613.527 543.562 614.129 544.211C614.73 544.859 615.535 545.184 616.543 545.184C617.254 545.184 617.863 545.02 618.371 544.691C618.879 544.363 619.219 543.926 619.391 543.379Z" fill="#201E20"/>
<path fill-rule="evenodd" clip-rule="evenodd" d="M490.579 527.612C490.813 527.383 491.187 527.383 491.421 527.612L502.221 538.236C502.457 538.469 502.46 538.848 502.228 539.085C501.995 539.321 501.615 539.324 501.379 539.092L499.5 537.243V547C499.5 547.276 499.276 547.5 499 547.5H483C482.724 547.5 482.5 547.276 482.5 547V537.243L480.621 539.092C480.385 539.324 480.005 539.321 479.772 539.085C479.54 538.848 479.543 538.469 479.779 538.236L490.579 527.612ZM491 528.882L498.5 536.259V546.5H494.7V540.6C494.7 540.324 494.476 540.1 494.2 540.1H489.4C489.124 540.1 488.9 540.324 488.9 540.6V546.5H483.5V536.259L491 528.882ZM489.9 546.5H493.7V541.1H489.9V546.5Z" fill="black"/>
<path d="M1082.32 143.353L1067.37 110.275L1175.09 59L1082.32 143.353Z" fill="#ADCBFF"/>
<path d="M1173.87 59L1082.06 143.353L1094.3 120.582L1173.87 59Z" fill="#ADCBFF"/>
<path d="M1175.09 59L1094.3 120.675L1124.97 135.319L1175.09 59Z" fill="#DCEAFF"/>
<path d="M1067.8 109.879L1039.22 100.079L1175.09 59L1067.8 109.879Z" fill="#DCEAFF"/>
<path d="M612 366.955C645.984 366.88 691.168 353.208 700.233 326.948C703.897 316.355 700.641 305 688.868 297.269C673.994 287.499 657.662 296.426 661.682 310.067C668.281 332.474 706.641 349.064 735.789 349.299C752.642 349.435 768.444 343.668 774.505 331.892C784.168 313.097 767.124 301.017 753.892 286.112C737.438 267.577 697.09 233.66 718.449 210.733C733.479 194.626 770.424 195.599 792.46 202.196C818.361 209.952 839.199 226.14 850.903 244.136C868.269 270.885 860.793 302.59 894.447 324.452C908.955 333.88 926.373 334.109 941.333 324.873C954.939 316.46 954.487 304.325 955.59 292.604C957.034 276.755 957.115 260.859 955.833 245.003C954.652 229.819 939.918 215.54 917.187 214.406C911.282 214.109 904.692 216.265 902.999 220.31C901.723 223.358 903.529 226.722 906.472 229.101C928.109 246.403 956.38 239.712 974.926 223.668C991.623 209.228 1001.89 189.794 996.112 171.049C994.254 165.009 990.451 155.896 1001.04 152.464C1008.86 149.931 1018.06 154.67 1022.42 158.963C1032.22 168.608 1043.61 185.935 1062.36 171.526C1067.12 167.865 1069.95 163.163 1072.45 158.517C1075.41 152.991 1078.31 146.796 1083.29 142.014" stroke="#ADCBFF" stroke-width="2" stroke-miterlimit="10" stroke-dasharray="5 5"/>
<rect width="612" height="2" transform="matrix(-1 0 0 1 612 366.181)" fill="#ADCBFF"/>
<path opacity="0.7" d="M7.10059 352H5.62891V337.831H0.515625V336.499H12.2246V337.831H7.10059V352ZM16.9619 341.999H14.0293V345.641H16.7578C17.5241 345.641 18.1077 345.479 18.5088 345.157C18.917 344.835 19.1211 344.369 19.1211 343.761C19.1211 343.202 18.9313 342.769 18.5518 342.461C18.1794 342.153 17.6494 341.999 16.9619 341.999ZM16.8652 346.801H14.0293V350.829H17.123C17.9466 350.829 18.5732 350.657 19.0029 350.313C19.4326 349.97 19.6475 349.465 19.6475 348.799C19.6475 348.14 19.4076 347.642 18.9277 347.306C18.4551 346.969 17.7676 346.801 16.8652 346.801ZM12.6221 352V340.828H17.1338C18.1794 340.828 19.0029 341.079 19.6045 341.58C20.2061 342.074 20.5068 342.758 20.5068 343.632C20.5068 344.248 20.3206 344.788 19.9482 345.254C19.583 345.719 19.1175 346.006 18.5518 346.113V346.188C19.2894 346.274 19.8874 346.554 20.3457 347.026C20.8112 347.499 21.0439 348.101 21.0439 348.831C21.0439 349.826 20.7002 350.604 20.0127 351.162C19.3324 351.721 18.3906 352 17.1875 352H12.6221ZM31.4102 350.625C30.4792 351.663 29.2474 352.183 27.7148 352.183C26.1823 352.183 24.9505 351.663 24.0195 350.625C23.0885 349.579 22.623 348.176 22.623 346.414C22.623 344.652 23.0885 343.252 24.0195 342.214C24.9577 341.168 26.1895 340.646 27.7148 340.646C29.2474 340.646 30.4792 341.168 31.4102 342.214C32.3411 343.252 32.8066 344.652 32.8066 346.414C32.8066 348.176 32.3411 349.579 31.4102 350.625ZM25.0615 349.723C25.7204 350.525 26.6048 350.926 27.7148 350.926C28.8249 350.926 29.7093 350.525 30.3682 349.723C31.0342 348.921 31.3672 347.818 31.3672 346.414C31.3672 345.01 31.0342 343.908 30.3682 343.105C29.7093 342.303 28.8249 341.902 27.7148 341.902C26.6048 341.902 25.7204 342.303 25.0615 343.105C24.4027 343.908 24.0732 345.01 24.0732 346.414C24.0732 347.818 24.4027 348.921 25.0615 349.723ZM36.3086 352H34.9014V340.828H36.3086V349.809H36.3838L42.6035 340.828H44.0107V352H42.6035V343.02H42.5391L36.3086 352ZM36.4912 336.016H37.5762C37.5762 336.66 37.7695 337.187 38.1562 337.595C38.5501 337.996 39.0729 338.196 39.7246 338.196C40.3691 338.196 40.8848 337.996 41.2715 337.595C41.6654 337.187 41.8623 336.66 41.8623 336.016H42.9473C42.9473 336.932 42.6501 337.674 42.0557 338.239C41.4684 338.798 40.6914 339.077 39.7246 339.077C38.7507 339.077 37.9665 338.798 37.3721 338.239C36.7848 337.674 36.4912 336.932 36.4912 336.016ZM55.4834 341.892C54.488 341.892 53.668 342.239 53.0234 342.934C52.3861 343.621 52.0387 344.52 51.9814 345.63H58.8779C58.8636 344.52 58.5449 343.621 57.9219 342.934C57.2988 342.239 56.486 341.892 55.4834 341.892ZM58.792 348.831H60.1992C60.0273 349.812 59.5189 350.618 58.6738 351.248C57.8359 351.871 56.8083 352.183 55.5908 352.183C54.0225 352.183 52.7835 351.671 51.874 350.646C50.9645 349.615 50.5098 348.215 50.5098 346.446C50.5098 344.706 50.9645 343.306 51.874 342.246C52.7835 341.179 53.9938 340.646 55.5049 340.646C56.9801 340.646 58.1546 341.147 59.0283 342.149C59.902 343.152 60.3389 344.488 60.3389 346.156V346.758H51.9707V346.844C51.9707 348.104 52.3001 349.103 52.959 349.841C53.6178 350.571 54.5059 350.937 55.623 350.937C56.4466 350.937 57.1413 350.743 57.707 350.356C58.2728 349.97 58.6344 349.461 58.792 348.831ZM69.2334 346.403H62.1865V345.071H69.2334V346.403ZM71.6289 352V340.828H72.9717V342.891H73.0039C73.2546 342.21 73.6628 341.666 74.2285 341.258C74.7943 340.85 75.471 340.646 76.2588 340.646C77.0609 340.646 77.7448 340.86 78.3105 341.29C78.8835 341.713 79.2773 342.282 79.4922 342.998H79.5244C79.7965 342.296 80.2441 341.73 80.8672 341.301C81.4974 340.864 82.2243 340.646 83.0479 340.646C84.1364 340.646 85.0101 340.986 85.6689 341.666C86.3278 342.339 86.6572 343.238 86.6572 344.362V352H85.2393V344.685C85.2393 343.818 85.0101 343.141 84.5518 342.654C84.0934 342.16 83.4596 341.913 82.6504 341.913C81.8268 341.913 81.1536 342.2 80.6309 342.772C80.1152 343.338 79.8574 344.069 79.8574 344.964V352H78.4287V344.556C78.4287 343.761 78.1924 343.123 77.7197 342.644C77.2542 342.157 76.6383 341.913 75.8721 341.913C75.0485 341.913 74.3717 342.214 73.8418 342.815C73.3118 343.417 73.0469 344.19 73.0469 345.136V352H71.6289ZM92.6514 350.958C93.6325 350.958 94.4596 350.654 95.1328 350.045C95.806 349.436 96.1426 348.688 96.1426 347.8V346.564L92.834 346.79C91.9531 346.847 91.2764 347.062 90.8037 347.435C90.3311 347.8 90.0947 348.29 90.0947 348.906C90.0947 349.515 90.3311 350.009 90.8037 350.389C91.2764 350.768 91.8923 350.958 92.6514 350.958ZM92.3613 352.183C91.2585 352.183 90.3633 351.882 89.6758 351.28C88.9954 350.672 88.6553 349.88 88.6553 348.906C88.6553 347.947 88.999 347.188 89.6865 346.629C90.3812 346.07 91.373 345.748 92.6621 345.662L96.1426 345.447V344.48C96.1426 343.671 95.8991 343.041 95.4121 342.59C94.9251 342.132 94.2484 341.902 93.3818 341.902C92.5654 341.902 91.8994 342.092 91.3838 342.472C90.8753 342.851 90.5602 343.381 90.4385 344.062H89.0635C89.1423 343.045 89.5719 342.221 90.3525 341.591C91.1403 340.961 92.1608 340.646 93.4141 340.646C94.6888 340.646 95.6986 340.979 96.4434 341.645C97.1882 342.311 97.5605 343.213 97.5605 344.352V352H96.207V349.873H96.1748C95.8669 350.568 95.362 351.126 94.6602 351.549C93.9583 351.971 93.1921 352.183 92.3613 352.183ZM100.042 352V340.828H101.46V352H100.042ZM100.751 338.572C100.493 338.572 100.271 338.483 100.085 338.304C99.8988 338.118 99.8057 337.892 99.8057 337.627C99.8057 337.369 99.8988 337.151 100.085 336.972C100.271 336.785 100.493 336.692 100.751 336.692C101.016 336.692 101.242 336.785 101.428 336.972C101.614 337.151 101.707 337.369 101.707 337.627C101.707 337.892 101.614 338.118 101.428 338.304C101.242 338.483 101.016 338.572 100.751 338.572ZM104.103 352V336.499H105.521V352H104.103Z" fill="#201E20"/>
<path d="M521.399 342.873C522.448 341.695 523.872 341.106 525.671 341.106C527.47 341.106 528.894 341.695 529.942 342.873C530.991 344.051 531.516 345.647 531.516 347.663C531.516 349.679 530.991 351.275 529.942 352.453C528.894 353.625 527.47 354.211 525.671 354.211C523.872 354.211 522.448 353.625 521.399 352.453C520.351 351.275 519.826 349.679 519.826 347.663C519.826 345.647 520.351 344.051 521.399 342.873ZM528.747 343.945C527.991 343.025 526.966 342.565 525.671 342.565C524.376 342.565 523.348 343.025 522.586 343.945C521.83 344.859 521.452 346.099 521.452 347.663C521.452 349.222 521.83 350.461 522.586 351.381C523.348 352.295 524.376 352.752 525.671 352.752C526.966 352.752 527.991 352.295 528.747 351.381C529.509 350.461 529.89 349.222 529.89 347.663C529.89 346.099 529.509 344.859 528.747 343.945ZM540.103 344.859V346.116H537.149V354H535.638V346.116H532.685V344.859H540.103ZM547.45 354V346.116H543.029V354H541.518V344.859H548.971V354H547.45ZM555.562 344.701C556.734 344.701 557.678 345.132 558.393 345.993C559.113 346.854 559.474 348 559.474 349.43C559.474 350.854 559.116 351.999 558.401 352.866C557.687 353.728 556.752 354.158 555.598 354.158C554.953 354.158 554.376 354.012 553.866 353.719C553.356 353.426 552.964 353.024 552.688 352.515H552.653V357.05H551.124V344.859H552.574V346.406H552.609C552.896 345.879 553.298 345.463 553.813 345.158C554.329 344.854 554.912 344.701 555.562 344.701ZM555.264 352.813C556.078 352.813 556.723 352.509 557.197 351.899C557.672 351.29 557.909 350.467 557.909 349.43C557.909 348.393 557.672 347.569 557.197 346.96C556.723 346.351 556.078 346.046 555.264 346.046C554.479 346.046 553.846 346.356 553.365 346.978C552.885 347.599 552.645 348.416 552.645 349.43C552.645 350.449 552.885 351.27 553.365 351.891C553.846 352.506 554.479 352.813 555.264 352.813ZM564.193 352.857C564.914 352.857 565.518 352.635 566.004 352.189C566.496 351.738 566.742 351.185 566.742 350.528V349.781L564.299 349.931C563.684 349.972 563.206 350.121 562.866 350.379C562.532 350.637 562.365 350.982 562.365 351.416C562.365 351.85 562.532 352.198 562.866 352.462C563.2 352.726 563.643 352.857 564.193 352.857ZM563.851 354.158C562.942 354.158 562.207 353.906 561.645 353.402C561.088 352.898 560.81 352.236 560.81 351.416C560.81 350.631 561.097 350.004 561.671 349.535C562.251 349.066 563.068 348.803 564.123 348.744L566.742 348.595V347.83C566.742 347.273 566.566 346.837 566.215 346.521C565.863 346.204 565.371 346.046 564.738 346.046C564.158 346.046 563.687 346.175 563.323 346.433C562.96 346.685 562.729 347.039 562.629 347.496H561.152C561.205 346.682 561.557 346.014 562.207 345.492C562.863 344.965 563.719 344.701 564.773 344.701C565.846 344.701 566.695 344.971 567.322 345.51C567.955 346.049 568.271 346.772 568.271 347.681V354H566.821V352.427H566.786C566.511 352.948 566.106 353.367 565.573 353.684C565.04 354 564.466 354.158 563.851 354.158ZM574.081 346.099H571.893V348.656H573.853C574.989 348.656 575.558 348.223 575.558 347.355C575.558 346.951 575.432 346.641 575.18 346.424C574.928 346.207 574.562 346.099 574.081 346.099ZM573.976 349.887H571.893V352.761H574.248C574.799 352.761 575.221 352.641 575.514 352.4C575.807 352.154 575.953 351.8 575.953 351.337C575.953 350.37 575.294 349.887 573.976 349.887ZM570.381 354V344.859H574.292C575.147 344.859 575.821 345.067 576.313 345.483C576.806 345.899 577.052 346.471 577.052 347.197C577.052 347.66 576.905 348.082 576.612 348.463C576.325 348.844 575.971 349.078 575.549 349.166V349.236C576.123 349.318 576.583 349.553 576.929 349.939C577.28 350.326 577.456 350.804 577.456 351.372C577.456 352.181 577.175 352.822 576.612 353.297C576.056 353.766 575.291 354 574.318 354H570.381ZM580.717 354H579.205V344.859H580.717V351.662H580.787L585.357 344.859H586.869V354H585.357V347.197H585.287L580.717 354ZM595.702 344.859V346.116H592.749V354H591.237V346.116H588.284V344.859H595.702ZM600.334 349.034H598.629V352.743H600.334C600.926 352.743 601.397 352.573 601.749 352.233C602.106 351.894 602.285 351.445 602.285 350.889C602.285 350.326 602.106 349.878 601.749 349.544C601.397 349.204 600.926 349.034 600.334 349.034ZM597.117 354V344.859H598.629V347.777H600.36C601.409 347.777 602.244 348.059 602.865 348.621C603.486 349.184 603.797 349.939 603.797 350.889C603.797 351.838 603.486 352.594 602.865 353.156C602.244 353.719 601.409 354 600.36 354H597.117Z" fill="#80AEFF"/>
<path d="M0.776367 29L7.48535 18.4092V18.292L0.820312 7.8623H6.02051L10.5029 15.4795H10.6201L15.1465 7.8623H20.083L13.1689 18.3799V18.4824L19.9951 29H14.9561L10.3271 21.6025H10.21L5.55176 29H0.776367ZM34.3213 27.1689C32.9248 28.6143 31.0303 29.3369 28.6377 29.3369C26.2451 29.3369 24.3506 28.6094 22.9541 27.1543C21.5576 25.6992 20.8594 23.6924 20.8594 21.1338C20.8594 18.6045 21.5625 16.6123 22.9688 15.1572C24.3848 13.6924 26.2744 12.96 28.6377 12.96C31.0107 12.96 32.9004 13.6924 34.3066 15.1572C35.7129 16.6123 36.416 18.6045 36.416 21.1338C36.416 23.7021 35.7178 25.7139 34.3213 27.1689ZM28.6377 26.0703C29.6924 26.0703 30.5273 25.6406 31.1426 24.7812C31.7578 23.9219 32.0654 22.7109 32.0654 21.1484C32.0654 19.6055 31.7578 18.3994 31.1426 17.5303C30.5273 16.6611 29.6924 16.2266 28.6377 16.2266C27.583 16.2266 26.7432 16.6611 26.1182 17.5303C25.5029 18.3994 25.1953 19.6055 25.1953 21.1484C25.1953 22.7109 25.5029 23.9219 26.1182 24.7812C26.7334 25.6406 27.5732 26.0703 28.6377 26.0703ZM52.7197 29H48.457V22.4668H48.2959C47.3291 23.5117 45.9863 24.0342 44.2676 24.0342C42.4805 24.0342 41.0742 23.5166 40.0488 22.4814C39.0234 21.4365 38.5107 20.0205 38.5107 18.2334V13.2969H42.7734V17.6182C42.7734 18.5166 43.0127 19.2197 43.4912 19.7275C43.9795 20.2354 44.6533 20.4893 45.5127 20.4893C46.8408 20.4893 47.8223 20.0742 48.457 19.2441V13.2969H52.7197V29ZM62.8418 16.124C61.9141 16.124 61.1377 16.4414 60.5127 17.0762C59.8975 17.7109 59.5508 18.5215 59.4727 19.5078H66.1377C66.0889 18.502 65.7617 17.6865 65.1562 17.0615C64.5605 16.4365 63.7891 16.124 62.8418 16.124ZM66.1963 24.1953H70.1221C69.8877 25.7383 69.1162 26.9834 67.8076 27.9307C66.5088 28.8682 64.8926 29.3369 62.959 29.3369C60.5469 29.3369 58.6523 28.6143 57.2754 27.1689C55.9082 25.7236 55.2246 23.7412 55.2246 21.2217C55.2246 18.7119 55.9082 16.71 57.2754 15.2158C58.6426 13.7119 60.4834 12.96 62.7979 12.96C65.0732 12.96 66.8848 13.6729 68.2324 15.0986C69.5801 16.5244 70.2539 18.4336 70.2539 20.8262V22.1299H59.4287V22.3936C59.4287 23.5166 59.7559 24.4297 60.4102 25.1328C61.0742 25.8262 61.9482 26.1729 63.0322 26.1729C63.8135 26.1729 64.4873 25.9971 65.0537 25.6455C65.6201 25.2842 66.001 24.8008 66.1963 24.1953ZM72.7295 29V13.2969H76.9922V25.7627H81.3721V13.2969H85.6348V25.7627H90.0146V13.2969H94.2773V29H72.7295ZM103.96 20.9873H101.602V25.8066H103.96C104.731 25.8066 105.347 25.5869 105.806 25.1475C106.274 24.6982 106.509 24.1123 106.509 23.3896C106.509 22.667 106.274 22.0859 105.806 21.6465C105.347 21.207 104.731 20.9873 103.96 20.9873ZM97.3389 29V13.2969H101.602V17.8379H104.663C106.519 17.8379 107.993 18.3408 109.087 19.3467C110.19 20.3525 110.742 21.71 110.742 23.4189C110.742 25.1279 110.19 26.4854 109.087 27.4912C107.993 28.4971 106.519 29 104.663 29H97.3389ZM129.229 29V16.5195H123.34V29H119.077V13.2969H133.491V29H129.229ZM149.458 27.1689C148.062 28.6143 146.167 29.3369 143.774 29.3369C141.382 29.3369 139.487 28.6094 138.091 27.1543C136.694 25.6992 135.996 23.6924 135.996 21.1338C135.996 18.6045 136.699 16.6123 138.105 15.1572C139.521 13.6924 141.411 12.96 143.774 12.96C146.147 12.96 148.037 13.6924 149.443 15.1572C150.85 16.6123 151.553 18.6045 151.553 21.1338C151.553 23.7021 150.854 25.7139 149.458 27.1689ZM143.774 26.0703C144.829 26.0703 145.664 25.6406 146.279 24.7812C146.895 23.9219 147.202 22.7109 147.202 21.1484C147.202 19.6055 146.895 18.3994 146.279 17.5303C145.664 16.6611 144.829 16.2266 143.774 16.2266C142.72 16.2266 141.88 16.6611 141.255 17.5303C140.64 18.3994 140.332 19.6055 140.332 21.1484C140.332 22.7109 140.64 23.9219 141.255 24.7812C141.87 25.6406 142.71 26.0703 143.774 26.0703ZM159.229 21.4707C159.16 22.6914 159.019 23.7559 158.804 24.6641C158.589 25.5625 158.276 26.3633 157.866 27.0664C157.456 27.7695 156.909 28.3018 156.226 28.6631C155.552 29.0146 154.741 29.1904 153.794 29.1904C153.228 29.1904 152.773 29.1221 152.432 28.9854V25.3818C152.705 25.4502 153.013 25.4844 153.354 25.4844C154.048 25.4844 154.546 25.1133 154.849 24.3711C155.161 23.6289 155.356 22.5693 155.435 21.1924L155.874 13.2969H167.783V29H163.521V16.5195H159.536L159.229 21.4707ZM172.881 34.8154C171.943 34.8154 171.406 34.8008 171.27 34.7715V31.4756C171.357 31.4951 171.714 31.5049 172.339 31.5049C173.13 31.5049 173.73 31.3682 174.141 31.0947C174.551 30.8311 174.829 30.3867 174.976 29.7617C174.976 29.752 175 29.6299 175.049 29.3955C175.098 29.1611 175.117 29.0342 175.107 29.0146L169.644 13.2969H174.346L177.686 25.5723H177.759L181.099 13.2969H185.61L180.205 29.3516C179.531 31.3633 178.643 32.7744 177.539 33.585C176.445 34.4053 174.893 34.8154 172.881 34.8154ZM201.372 29H197.109V22.4668H196.948C195.981 23.5117 194.639 24.0342 192.92 24.0342C191.133 24.0342 189.727 23.5166 188.701 22.4814C187.676 21.4365 187.163 20.0205 187.163 18.2334V13.2969H191.426V17.6182C191.426 18.5166 191.665 19.2197 192.144 19.7275C192.632 20.2354 193.306 20.4893 194.165 20.4893C195.493 20.4893 196.475 20.0742 197.109 19.2441V13.2969H201.372V29ZM208.638 29H204.448V13.2969H208.638V23.1113H208.755L214.995 13.2969H219.185V29H214.995V19.0684H214.878L208.638 29ZM226.45 29H222.261V13.2969H226.45V23.1113H226.567L232.808 13.2969H236.997V29H232.808V19.0684H232.69L226.45 29ZM224.604 6.19238H227.212C227.231 6.9834 227.471 7.63281 227.93 8.14062C228.389 8.63867 228.999 8.8877 229.761 8.8877C230.513 8.8877 231.118 8.63867 231.577 8.14062C232.036 7.63281 232.275 6.9834 232.295 6.19238H234.917C234.917 7.6377 234.443 8.80469 233.496 9.69336C232.549 10.5723 231.304 11.0117 229.761 11.0117C228.218 11.0117 226.973 10.5723 226.025 9.69336C225.078 8.80469 224.604 7.6377 224.604 6.19238ZM255.19 13.0479C257.183 13.0479 258.75 13.7656 259.893 15.2012C261.045 16.6367 261.621 18.6191 261.621 21.1484C261.621 23.668 261.055 25.6504 259.922 27.0957C258.789 28.5312 257.236 29.249 255.264 29.249C254.141 29.249 253.149 28.9951 252.29 28.4873C251.44 27.9697 250.806 27.2617 250.386 26.3633H250.298V34.127H246.021V13.2969H250.239V16.0361H250.327C250.757 15.0986 251.392 14.3662 252.231 13.8389C253.081 13.3115 254.067 13.0479 255.19 13.0479ZM253.755 25.8066C254.819 25.8066 255.664 25.3867 256.289 24.5469C256.924 23.707 257.241 22.5742 257.241 21.1484C257.241 19.7227 256.924 18.5898 256.289 17.75C255.664 16.9004 254.819 16.4756 253.755 16.4756C252.71 16.4756 251.87 16.9053 251.235 17.7646C250.601 18.6143 250.283 19.7422 250.283 21.1484C250.283 22.5645 250.596 23.6973 251.221 24.5469C251.855 25.3867 252.7 25.8066 253.755 25.8066ZM270.22 26.1582C271.167 26.1582 271.968 25.8848 272.622 25.3379C273.286 24.7812 273.618 24.083 273.618 23.2432V22.1006L270.308 22.3057C269.507 22.3643 268.887 22.5645 268.447 22.9062C268.018 23.248 267.803 23.6973 267.803 24.2539C267.803 24.8398 268.022 25.3037 268.462 25.6455C268.901 25.9873 269.487 26.1582 270.22 26.1582ZM268.813 29.249C267.3 29.249 266.045 28.8047 265.049 27.916C264.053 27.0273 263.555 25.8848 263.555 24.4883C263.555 23.0625 264.082 21.9443 265.137 21.1338C266.191 20.3232 267.7 19.8594 269.663 19.7422L273.618 19.5078V18.4678C273.618 17.7451 273.379 17.1787 272.9 16.7686C272.432 16.3584 271.792 16.1533 270.981 16.1533C270.2 16.1533 269.561 16.3291 269.062 16.6807C268.574 17.0322 268.276 17.5059 268.169 18.1016H264.258C264.336 16.5586 264.995 15.3184 266.235 14.3809C267.476 13.4336 269.121 12.96 271.172 12.96C273.184 12.96 274.795 13.4385 276.006 14.3955C277.217 15.3525 277.822 16.6221 277.822 18.2041V29H273.691V26.5977H273.604C273.174 27.418 272.52 28.0674 271.641 28.5459C270.762 29.0146 269.819 29.249 268.813 29.249ZM291.152 29V22.5693H285.117V29H280.854V13.2969H285.117V19.332H291.152V13.2969H295.415V29H291.152ZM308.789 29V22.5693H302.754V29H298.491V13.2969H302.754V19.332H308.789V13.2969H313.052V29H308.789ZM320.317 29H316.128V13.2969H320.317V23.1113H320.435L326.675 13.2969H330.864V29H326.675V19.0684H326.558L320.317 29ZM338.13 29H333.94V13.2969H338.13V23.1113H338.247L344.487 13.2969H348.677V29H344.487V19.0684H344.37L338.13 29ZM336.284 6.19238H338.892C338.911 6.9834 339.15 7.63281 339.609 8.14062C340.068 8.63867 340.679 8.8877 341.44 8.8877C342.192 8.8877 342.798 8.63867 343.257 8.14062C343.716 7.63281 343.955 6.9834 343.975 6.19238H346.597C346.597 7.6377 346.123 8.80469 345.176 9.69336C344.229 10.5723 342.983 11.0117 341.44 11.0117C339.897 11.0117 338.652 10.5723 337.705 9.69336C336.758 8.80469 336.284 7.6377 336.284 6.19238ZM368.203 25.7627V16.5049H363.501L363.149 21.4707C363.022 23.3066 362.642 24.6982 362.007 25.6455V25.7627H368.203ZM360.337 33.0723H356.455V25.7627H357.656C358.633 25.2061 359.209 23.6826 359.385 21.1924L359.897 13.2969H372.466V25.7627H374.795V33.0723H370.898V29H360.337V33.0723ZM389.517 27.1689C388.12 28.6143 386.226 29.3369 383.833 29.3369C381.44 29.3369 379.546 28.6094 378.149 27.1543C376.753 25.6992 376.055 23.6924 376.055 21.1338C376.055 18.6045 376.758 16.6123 378.164 15.1572C379.58 13.6924 381.47 12.96 383.833 12.96C386.206 12.96 388.096 13.6924 389.502 15.1572C390.908 16.6123 391.611 18.6045 391.611 21.1338C391.611 23.7021 390.913 25.7139 389.517 27.1689ZM383.833 26.0703C384.888 26.0703 385.723 25.6406 386.338 24.7812C386.953 23.9219 387.261 22.7109 387.261 21.1484C387.261 19.6055 386.953 18.3994 386.338 17.5303C385.723 16.6611 384.888 16.2266 383.833 16.2266C382.778 16.2266 381.938 16.6611 381.313 17.5303C380.698 18.3994 380.391 19.6055 380.391 21.1484C380.391 22.7109 380.698 23.9219 381.313 24.7812C381.929 25.6406 382.769 26.0703 383.833 26.0703ZM408.223 18.6582H404.224C404.038 17.9453 403.687 17.3789 403.169 16.959C402.651 16.5293 402.002 16.3145 401.221 16.3145C400.166 16.3145 399.331 16.7441 398.716 17.6035C398.11 18.4629 397.808 19.6396 397.808 21.1338C397.808 22.6572 398.11 23.8486 398.716 24.708C399.331 25.5576 400.171 25.9824 401.235 25.9824C402.026 25.9824 402.681 25.7773 403.198 25.3672C403.716 24.957 404.067 24.3809 404.253 23.6387H408.237C408.042 25.3867 407.314 26.7734 406.055 27.7988C404.795 28.8242 403.174 29.3369 401.191 29.3369C398.828 29.3369 396.953 28.6045 395.566 27.1396C394.189 25.6748 393.501 23.6729 393.501 21.1338C393.501 18.6338 394.189 16.6465 395.566 15.1719C396.953 13.6973 398.818 12.96 401.162 12.96C403.145 12.96 404.761 13.4873 406.011 14.542C407.271 15.5967 408.008 16.9688 408.223 18.6582ZM422.959 13.2969V16.5195H418.286V29H414.023V16.5195H409.336V13.2969H422.959ZM427.148 34.8154C426.211 34.8154 425.674 34.8008 425.537 34.7715V31.4756C425.625 31.4951 425.981 31.5049 426.606 31.5049C427.397 31.5049 427.998 31.3682 428.408 31.0947C428.818 30.8311 429.097 30.3867 429.243 29.7617C429.243 29.752 429.268 29.6299 429.316 29.3955C429.365 29.1611 429.385 29.0342 429.375 29.0146L423.911 13.2969H428.613L431.953 25.5723H432.026L435.366 13.2969H439.878L434.473 29.3516C433.799 31.3633 432.91 32.7744 431.807 33.585C430.713 34.4053 429.16 34.8154 427.148 34.8154ZM451.875 29V16.5195H445.986V29H441.724V13.2969H456.138V29H451.875ZM9.75586 56.5625L16.3916 65H11.2207L5.91797 58.2617H5.80078V65H1.53809V49.2969H5.80078V55.6104H5.91797L11.1328 49.2969H16.0254L9.75586 56.5625ZM34.1895 65V52.5195H28.3008V65H24.0381V49.2969H38.4521V65H34.1895ZM50.6982 49.0479C52.6904 49.0479 54.2578 49.7656 55.4004 51.2012C56.5527 52.6367 57.1289 54.6191 57.1289 57.1484C57.1289 59.668 56.5625 61.6504 55.4297 63.0957C54.2969 64.5312 52.7441 65.249 50.7715 65.249C49.6484 65.249 48.6572 64.9951 47.7979 64.4873C46.9482 63.9697 46.3135 63.2617 45.8936 62.3633H45.8057V70.127H41.5283V49.2969H45.7471V52.0361H45.835C46.2646 51.0986 46.8994 50.3662 47.7393 49.8389C48.5889 49.3115 49.5752 49.0479 50.6982 49.0479ZM49.2627 61.8066C50.3271 61.8066 51.1719 61.3867 51.7969 60.5469C52.4316 59.707 52.749 58.5742 52.749 57.1484C52.749 55.7227 52.4316 54.5898 51.7969 53.75C51.1719 52.9004 50.3271 52.4756 49.2627 52.4756C48.2178 52.4756 47.3779 52.9053 46.7432 53.7646C46.1084 54.6143 45.791 55.7422 45.791 57.1484C45.791 58.5645 46.1035 59.6973 46.7285 60.5469C47.3633 61.3867 48.208 61.8066 49.2627 61.8066ZM63.8525 65H59.6631V49.2969H63.8525V59.1113H63.9697L70.21 49.2969H74.3994V65H70.21V55.0684H70.0928L63.8525 65ZM83.2031 57.4707C83.1348 58.6914 82.9932 59.7559 82.7783 60.6641C82.5635 61.5625 82.251 62.3633 81.8408 63.0664C81.4307 63.7695 80.8838 64.3018 80.2002 64.6631C79.5264 65.0146 78.7158 65.1904 77.7686 65.1904C77.2021 65.1904 76.748 65.1221 76.4062 64.9854V61.3818C76.6797 61.4502 76.9873 61.4844 77.3291 61.4844C78.0225 61.4844 78.5205 61.1133 78.8232 60.3711C79.1357 59.6289 79.3311 58.5693 79.4092 57.1924L79.8486 49.2969H91.7578V65H87.4951V52.5195H83.5107L83.2031 57.4707ZM107.739 63.1689C106.343 64.6143 104.448 65.3369 102.056 65.3369C99.6631 65.3369 97.7686 64.6094 96.3721 63.1543C94.9756 61.6992 94.2773 59.6924 94.2773 57.1338C94.2773 54.6045 94.9805 52.6123 96.3867 51.1572C97.8027 49.6924 99.6924 48.96 102.056 48.96C104.429 48.96 106.318 49.6924 107.725 51.1572C109.131 52.6123 109.834 54.6045 109.834 57.1338C109.834 59.7021 109.136 61.7139 107.739 63.1689ZM102.056 62.0703C103.11 62.0703 103.945 61.6406 104.561 60.7812C105.176 59.9219 105.483 58.7109 105.483 57.1484C105.483 55.6055 105.176 54.3994 104.561 53.5303C103.945 52.6611 103.11 52.2266 102.056 52.2266C101.001 52.2266 100.161 52.6611 99.5361 53.5303C98.9209 54.3994 98.6133 55.6055 98.6133 57.1484C98.6133 58.7109 98.9209 59.9219 99.5361 60.7812C100.151 61.6406 100.991 62.0703 102.056 62.0703ZM128.32 56.6064L134.341 65H129.258L124.468 58.2617H124.351V65H120.132V58.2617H120.029L115.225 65H110.2L116.177 56.6797L110.405 49.2969H115.312L120.029 55.6104H120.132V49.2969H124.351V55.6104H124.468L129.17 49.2969H134.033L128.32 56.6064ZM142.5 52.124C141.572 52.124 140.796 52.4414 140.171 53.0762C139.556 53.7109 139.209 54.5215 139.131 55.5078H145.796C145.747 54.502 145.42 53.6865 144.814 53.0615C144.219 52.4365 143.447 52.124 142.5 52.124ZM145.854 60.1953H149.78C149.546 61.7383 148.774 62.9834 147.466 63.9307C146.167 64.8682 144.551 65.3369 142.617 65.3369C140.205 65.3369 138.311 64.6143 136.934 63.1689C135.566 61.7236 134.883 59.7412 134.883 57.2217C134.883 54.7119 135.566 52.71 136.934 51.2158C138.301 49.7119 140.142 48.96 142.456 48.96C144.731 48.96 146.543 49.6729 147.891 51.0986C149.238 52.5244 149.912 54.4336 149.912 56.8262V58.1299H139.087V58.3936C139.087 59.5166 139.414 60.4297 140.068 61.1328C140.732 61.8262 141.606 62.1729 142.69 62.1729C143.472 62.1729 144.146 61.9971 144.712 61.6455C145.278 61.2842 145.659 60.8008 145.854 60.1953ZM162.686 65V58.5693H156.65V65H152.388V49.2969H156.65V55.332H162.686V49.2969H166.948V65H162.686ZM174.214 65H170.024V49.2969H174.214V59.1113H174.331L180.571 49.2969H184.761V65H180.571V55.0684H180.454L174.214 65ZM201.973 65.3369C199.824 65.3369 198.081 64.7461 196.743 63.5645C195.405 62.373 194.609 60.708 194.355 58.5693H192.1V65H187.837V49.2969H192.1V55.332H194.414C194.736 53.3203 195.562 51.7578 196.89 50.6445C198.218 49.5215 199.912 48.96 201.973 48.96C204.355 48.96 206.235 49.6875 207.612 51.1426C208.999 52.5879 209.692 54.585 209.692 57.1338C209.692 59.7119 209.004 61.7236 207.627 63.1689C206.26 64.6143 204.375 65.3369 201.973 65.3369ZM199.482 60.708C200.078 61.5479 200.903 61.9678 201.958 61.9678C203.013 61.9678 203.833 61.5479 204.419 60.708C205.015 59.8682 205.312 58.6816 205.312 57.1484C205.312 55.625 205.015 54.4385 204.419 53.5889C203.833 52.7393 203.013 52.3145 201.958 52.3145C200.903 52.3145 200.078 52.7393 199.482 53.5889C198.896 54.4385 198.604 55.625 198.604 57.1484C198.604 58.6816 198.896 59.8682 199.482 60.708ZM211.436 49.7949C211.475 47.9492 212.119 46.4697 213.369 45.3564C214.619 44.2334 216.348 43.6719 218.555 43.6719C220.635 43.6719 222.314 44.1992 223.594 45.2539C224.873 46.2988 225.513 47.6611 225.513 49.3408C225.513 50.4248 225.254 51.3721 224.736 52.1826C224.219 52.9834 223.433 53.6914 222.378 54.3066C221.401 54.873 220.742 55.3809 220.4 55.8301C220.059 56.2793 219.888 56.8652 219.888 57.5879V58.3643H216.006L215.977 57.5146C215.879 56.3818 216.035 55.4492 216.445 54.7168C216.865 53.9844 217.588 53.3154 218.613 52.71C219.561 52.1436 220.205 51.6357 220.547 51.1865C220.898 50.7373 221.074 50.166 221.074 49.4727C221.074 48.7695 220.815 48.1934 220.298 47.7441C219.79 47.2949 219.121 47.0703 218.291 47.0703C217.451 47.0703 216.772 47.3193 216.255 47.8174C215.737 48.3057 215.454 48.9648 215.405 49.7949H211.436ZM219.697 64.707C219.229 65.1465 218.662 65.3662 217.998 65.3662C217.334 65.3662 216.768 65.1465 216.299 64.707C215.84 64.2578 215.61 63.7109 215.61 63.0664C215.61 62.4219 215.84 61.8799 216.299 61.4404C216.768 60.9912 217.334 60.7666 217.998 60.7666C218.662 60.7666 219.229 60.9912 219.697 61.4404C220.166 61.8799 220.4 62.4219 220.4 63.0664C220.4 63.7109 220.166 64.2578 219.697 64.707ZM3.98438 82.4404C5.82031 80.4775 8.30566 79.4961 11.4404 79.4961C14.5752 79.4961 17.0557 80.4775 18.8818 82.4404C20.7178 84.4033 21.6357 87.0693 21.6357 90.4385C21.6357 93.7979 20.7178 96.459 18.8818 98.4219C17.0459 100.385 14.5654 101.366 11.4404 101.366C8.30566 101.366 5.82031 100.385 3.98438 98.4219C2.1582 96.459 1.24512 93.7979 1.24512 90.4385C1.24512 87.0693 2.1582 84.4033 3.98438 82.4404ZM15.5713 85.1504C14.5459 83.8418 13.1689 83.1875 11.4404 83.1875C9.71191 83.1875 8.33008 83.8418 7.29492 85.1504C6.26953 86.459 5.75684 88.2217 5.75684 90.4385C5.75684 92.6455 6.26953 94.4033 7.29492 95.7119C8.32031 97.0107 9.70215 97.6602 11.4404 97.6602C13.1689 97.6602 14.5459 97.0107 15.5713 95.7119C16.5967 94.4033 17.1094 92.6455 17.1094 90.4385C17.1094 88.2217 16.5967 86.459 15.5713 85.1504ZM38.5547 90.6582H34.5557C34.3701 89.9453 34.0186 89.3789 33.501 88.959C32.9834 88.5293 32.334 88.3145 31.5527 88.3145C30.498 88.3145 29.6631 88.7441 29.0479 89.6035C28.4424 90.4629 28.1396 91.6396 28.1396 93.1338C28.1396 94.6572 28.4424 95.8486 29.0479 96.708C29.6631 97.5576 30.5029 97.9824 31.5674 97.9824C32.3584 97.9824 33.0127 97.7773 33.5303 97.3672C34.0479 96.957 34.3994 96.3809 34.585 95.6387H38.5693C38.374 97.3867 37.6465 98.7734 36.3867 99.7988C35.127 100.824 33.5059 101.337 31.5234 101.337C29.1602 101.337 27.2852 100.604 25.8984 99.1396C24.5215 97.6748 23.833 95.6729 23.833 93.1338C23.833 90.6338 24.5215 88.6465 25.8984 87.1719C27.2852 85.6973 29.1504 84.96 31.4941 84.96C33.4766 84.96 35.0928 85.4873 36.3428 86.542C37.6025 87.5967 38.3398 88.9688 38.5547 90.6582ZM53.291 85.2969V88.5195H48.6182V101H44.3555V88.5195H39.668V85.2969H53.291ZM61.2451 98.1582C62.1924 98.1582 62.9932 97.8848 63.6475 97.3379C64.3115 96.7812 64.6436 96.083 64.6436 95.2432V94.1006L61.333 94.3057C60.5322 94.3643 59.9121 94.5645 59.4727 94.9062C59.043 95.248 58.8281 95.6973 58.8281 96.2539C58.8281 96.8398 59.0479 97.3037 59.4873 97.6455C59.9268 97.9873 60.5127 98.1582 61.2451 98.1582ZM59.8389 101.249C58.3252 101.249 57.0703 100.805 56.0742 99.916C55.0781 99.0273 54.5801 97.8848 54.5801 96.4883C54.5801 95.0625 55.1074 93.9443 56.1621 93.1338C57.2168 92.3232 58.7256 91.8594 60.6885 91.7422L64.6436 91.5078V90.4678C64.6436 89.7451 64.4043 89.1787 63.9258 88.7686C63.457 88.3584 62.8174 88.1533 62.0068 88.1533C61.2256 88.1533 60.5859 88.3291 60.0879 88.6807C59.5996 89.0322 59.3018 89.5059 59.1943 90.1016H55.2832C55.3613 88.5586 56.0205 87.3184 57.2607 86.3809C58.501 85.4336 60.1465 84.96 62.1973 84.96C64.209 84.96 65.8203 85.4385 67.0312 86.3955C68.2422 87.3525 68.8477 88.6221 68.8477 90.2041V101H64.7168V98.5977H64.6289C64.1992 99.418 63.5449 100.067 62.666 100.546C61.7871 101.015 60.8447 101.249 59.8389 101.249ZM78.6035 88.0068H76.0693V91.6543H78.3838C79.165 91.6543 79.7607 91.498 80.1709 91.1855C80.5908 90.8633 80.8008 90.4043 80.8008 89.8086C80.8008 89.2324 80.6104 88.7881 80.2295 88.4756C79.8486 88.1631 79.3066 88.0068 78.6035 88.0068ZM78.6035 94.1299H76.0693V98.29H78.7939C79.6338 98.29 80.2734 98.1143 80.7129 97.7627C81.1621 97.4014 81.3867 96.8789 81.3867 96.1953C81.3867 94.8184 80.459 94.1299 78.6035 94.1299ZM71.8799 101V85.2969H79.7461C81.377 85.2969 82.6562 85.6484 83.584 86.3516C84.5117 87.0449 84.9756 88.0117 84.9756 89.252C84.9756 90.0918 84.7021 90.8389 84.1553 91.4932C83.6182 92.1377 82.9443 92.5234 82.1338 92.6504V92.7676C83.1885 92.8945 84.043 93.2949 84.6973 93.9688C85.3516 94.6426 85.6787 95.4727 85.6787 96.459C85.6787 97.8359 85.1562 98.9395 84.1113 99.7695C83.0762 100.59 81.6699 101 79.8926 101H71.8799ZM93.6035 93.4707C93.5352 94.6914 93.3936 95.7559 93.1787 96.6641C92.9639 97.5625 92.6514 98.3633 92.2412 99.0664C91.8311 99.7695 91.2842 100.302 90.6006 100.663C89.9268 101.015 89.1162 101.19 88.1689 101.19C87.6025 101.19 87.1484 101.122 86.8066 100.985V97.3818C87.0801 97.4502 87.3877 97.4844 87.7295 97.4844C88.4229 97.4844 88.9209 97.1133 89.2236 96.3711C89.5361 95.6289 89.7314 94.5693 89.8096 93.1924L90.249 85.2969H102.158V101H97.8955V88.5195H93.9111L93.6035 93.4707ZM111.768 92.9287H114.331V88.4756H111.768C111.016 88.4756 110.415 88.6855 109.966 89.1055C109.526 89.5156 109.307 90.0674 109.307 90.7607C109.307 91.3955 109.531 91.918 109.98 92.3281C110.43 92.7285 111.025 92.9287 111.768 92.9287ZM114.331 101V95.9316H112.617L109.131 101H104.385L108.516 95.2871C107.432 94.9453 106.582 94.3838 105.967 93.6025C105.361 92.8115 105.059 91.8594 105.059 90.7461C105.059 89.0762 105.625 87.7529 106.758 86.7764C107.9 85.79 109.429 85.2969 111.343 85.2969H118.506V101H114.331ZM125.786 101H121.597V85.2969H125.786V95.1113H125.903L132.144 85.2969H136.333V101H132.144V91.0684H132.026L125.786 101ZM123.94 78.1924H126.548C126.567 78.9834 126.807 79.6328 127.266 80.1406C127.725 80.6387 128.335 80.8877 129.097 80.8877C129.849 80.8877 130.454 80.6387 130.913 80.1406C131.372 79.6328 131.611 78.9834 131.631 78.1924H134.253C134.253 79.6377 133.779 80.8047 132.832 81.6934C131.885 82.5723 130.64 83.0117 129.097 83.0117C127.554 83.0117 126.309 82.5723 125.361 81.6934C124.414 80.8047 123.94 79.6377 123.94 78.1924ZM159.492 90.6582H155.493C155.308 89.9453 154.956 89.3789 154.438 88.959C153.921 88.5293 153.271 88.3145 152.49 88.3145C151.436 88.3145 150.601 88.7441 149.985 89.6035C149.38 90.4629 149.077 91.6396 149.077 93.1338C149.077 94.6572 149.38 95.8486 149.985 96.708C150.601 97.5576 151.44 97.9824 152.505 97.9824C153.296 97.9824 153.95 97.7773 154.468 97.3672C154.985 96.957 155.337 96.3809 155.522 95.6387H159.507C159.312 97.3867 158.584 98.7734 157.324 99.7988C156.064 100.824 154.443 101.337 152.461 101.337C150.098 101.337 148.223 100.604 146.836 99.1396C145.459 97.6748 144.771 95.6729 144.771 93.1338C144.771 90.6338 145.459 88.6465 146.836 87.1719C148.223 85.6973 150.088 84.96 152.432 84.96C154.414 84.96 156.03 85.4873 157.28 86.542C158.54 87.5967 159.277 88.9688 159.492 90.6582ZM168.604 88.0068H166.069V91.6543H168.384C169.165 91.6543 169.761 91.498 170.171 91.1855C170.591 90.8633 170.801 90.4043 170.801 89.8086C170.801 89.2324 170.61 88.7881 170.229 88.4756C169.849 88.1631 169.307 88.0068 168.604 88.0068ZM168.604 94.1299H166.069V98.29H168.794C169.634 98.29 170.273 98.1143 170.713 97.7627C171.162 97.4014 171.387 96.8789 171.387 96.1953C171.387 94.8184 170.459 94.1299 168.604 94.1299ZM161.88 101V85.2969H169.746C171.377 85.2969 172.656 85.6484 173.584 86.3516C174.512 87.0449 174.976 88.0117 174.976 89.252C174.976 90.0918 174.702 90.8389 174.155 91.4932C173.618 92.1377 172.944 92.5234 172.134 92.6504V92.7676C173.188 92.8945 174.043 93.2949 174.697 93.9688C175.352 94.6426 175.679 95.4727 175.679 96.459C175.679 97.8359 175.156 98.9395 174.111 99.7695C173.076 100.59 171.67 101 169.893 101H161.88ZM191.147 99.1689C189.751 100.614 187.856 101.337 185.464 101.337C183.071 101.337 181.177 100.609 179.78 99.1543C178.384 97.6992 177.686 95.6924 177.686 93.1338C177.686 90.6045 178.389 88.6123 179.795 87.1572C181.211 85.6924 183.101 84.96 185.464 84.96C187.837 84.96 189.727 85.6924 191.133 87.1572C192.539 88.6123 193.242 90.6045 193.242 93.1338C193.242 95.7021 192.544 97.7139 191.147 99.1689ZM185.464 98.0703C186.519 98.0703 187.354 97.6406 187.969 96.7812C188.584 95.9219 188.892 94.7109 188.892 93.1484C188.892 91.6055 188.584 90.3994 187.969 89.5303C187.354 88.6611 186.519 88.2266 185.464 88.2266C184.409 88.2266 183.569 88.6611 182.944 89.5303C182.329 90.3994 182.021 91.6055 182.021 93.1484C182.021 94.7109 182.329 95.9219 182.944 96.7812C183.56 97.6406 184.399 98.0703 185.464 98.0703ZM199.907 101H195.718V85.2969H199.907V95.1113H200.024L206.265 85.2969H210.454V101H206.265V91.0684H206.147L199.907 101ZM198.062 78.1924H200.669C200.688 78.9834 200.928 79.6328 201.387 80.1406C201.846 80.6387 202.456 80.8877 203.218 80.8877C203.97 80.8877 204.575 80.6387 205.034 80.1406C205.493 79.6328 205.732 78.9834 205.752 78.1924H208.374C208.374 79.6377 207.9 80.8047 206.953 81.6934C206.006 82.5723 204.761 83.0117 203.218 83.0117C201.675 83.0117 200.43 82.5723 199.482 81.6934C198.535 80.8047 198.062 79.6377 198.062 78.1924ZM226.377 88.124C225.449 88.124 224.673 88.4414 224.048 89.0762C223.433 89.7109 223.086 90.5215 223.008 91.5078H229.673C229.624 90.502 229.297 89.6865 228.691 89.0615C228.096 88.4365 227.324 88.124 226.377 88.124ZM229.731 96.1953H233.657C233.423 97.7383 232.651 98.9834 231.343 99.9307C230.044 100.868 228.428 101.337 226.494 101.337C224.082 101.337 222.188 100.614 220.811 99.1689C219.443 97.7236 218.76 95.7412 218.76 93.2217C218.76 90.7119 219.443 88.71 220.811 87.2158C222.178 85.7119 224.019 84.96 226.333 84.96C228.608 84.96 230.42 85.6729 231.768 87.0986C233.115 88.5244 233.789 90.4336 233.789 92.8262V94.1299H222.964V94.3936C222.964 95.5166 223.291 96.4297 223.945 97.1328C224.609 97.8262 225.483 98.1729 226.567 98.1729C227.349 98.1729 228.022 97.9971 228.589 97.6455C229.155 97.2842 229.536 96.8008 229.731 96.1953ZM246.05 94.2764H236.426V90.541H246.05V94.2764ZM249.272 101V85.2969H253.403V88.1387H253.491C253.823 87.1816 254.39 86.4199 255.19 85.8535C255.991 85.2871 256.919 85.0039 257.974 85.0039C259.106 85.0039 260.054 85.2871 260.815 85.8535C261.577 86.4102 262.09 87.2012 262.354 88.2266H262.441C262.793 87.2402 263.403 86.459 264.272 85.8828C265.151 85.2969 266.167 85.0039 267.319 85.0039C268.862 85.0039 270.103 85.4873 271.04 86.4541C271.987 87.4209 272.461 88.6953 272.461 90.2773V101H268.184V91.3467C268.184 90.4385 267.964 89.7451 267.524 89.2666C267.085 88.7783 266.45 88.5342 265.62 88.5342C264.81 88.5342 264.155 88.8027 263.657 89.3398C263.169 89.877 262.925 90.585 262.925 91.4639V101H258.809V91.2148C258.809 90.375 258.584 89.7207 258.135 89.252C257.686 88.7734 257.065 88.5342 256.274 88.5342C255.464 88.5342 254.805 88.8125 254.297 89.3691C253.799 89.9258 253.55 90.6436 253.55 91.5225V101H249.272ZM281.235 98.1582C282.183 98.1582 282.983 97.8848 283.638 97.3379C284.302 96.7812 284.634 96.083 284.634 95.2432V94.1006L281.323 94.3057C280.522 94.3643 279.902 94.5645 279.463 94.9062C279.033 95.248 278.818 95.6973 278.818 96.2539C278.818 96.8398 279.038 97.3037 279.478 97.6455C279.917 97.9873 280.503 98.1582 281.235 98.1582ZM279.829 101.249C278.315 101.249 277.061 100.805 276.064 99.916C275.068 99.0273 274.57 97.8848 274.57 96.4883C274.57 95.0625 275.098 93.9443 276.152 93.1338C277.207 92.3232 278.716 91.8594 280.679 91.7422L284.634 91.5078V90.4678C284.634 89.7451 284.395 89.1787 283.916 88.7686C283.447 88.3584 282.808 88.1533 281.997 88.1533C281.216 88.1533 280.576 88.3291 280.078 88.6807C279.59 89.0322 279.292 89.5059 279.185 90.1016H275.273C275.352 88.5586 276.011 87.3184 277.251 86.3809C278.491 85.4336 280.137 84.96 282.188 84.96C284.199 84.96 285.811 85.4385 287.021 86.3955C288.232 87.3525 288.838 88.6221 288.838 90.2041V101H284.707V98.5977H284.619C284.189 99.418 283.535 100.067 282.656 100.546C281.777 101.015 280.835 101.249 279.829 101.249ZM291.68 101V85.2969H295.957V101H291.68ZM295.444 82.9238C295.005 83.3535 294.463 83.5684 293.818 83.5684C293.174 83.5684 292.632 83.3535 292.192 82.9238C291.753 82.4941 291.533 81.9717 291.533 81.3564C291.533 80.7314 291.753 80.209 292.192 79.7891C292.632 79.3594 293.174 79.1445 293.818 79.1445C294.463 79.1445 295.005 79.3594 295.444 79.7891C295.884 80.209 296.104 80.7314 296.104 81.3564C296.104 81.9717 295.884 82.4941 295.444 82.9238ZM298.916 101V79.8623H303.193V101H298.916ZM309.229 105.629H306.021L307.119 97.3672H311.191L309.229 105.629ZM332.681 101H328.418V94.4668H328.257C327.29 95.5117 325.947 96.0342 324.229 96.0342C322.441 96.0342 321.035 95.5166 320.01 94.4814C318.984 93.4365 318.472 92.0205 318.472 90.2334V85.2969H322.734V89.6182C322.734 90.5166 322.974 91.2197 323.452 91.7275C323.94 92.2354 324.614 92.4893 325.474 92.4893C326.802 92.4893 327.783 92.0742 328.418 91.2441V85.2969H332.681V101ZM348.486 85.2969V88.5195H343.813V101H339.551V88.5195H334.863V85.2969H348.486ZM363.267 99.1689C361.87 100.614 359.976 101.337 357.583 101.337C355.19 101.337 353.296 100.609 351.899 99.1543C350.503 97.6992 349.805 95.6924 349.805 93.1338C349.805 90.6045 350.508 88.6123 351.914 87.1572C353.33 85.6924 355.22 84.96 357.583 84.96C359.956 84.96 361.846 85.6924 363.252 87.1572C364.658 88.6123 365.361 90.6045 365.361 93.1338C365.361 95.7021 364.663 97.7139 363.267 99.1689ZM357.583 98.0703C358.638 98.0703 359.473 97.6406 360.088 96.7812C360.703 95.9219 361.011 94.7109 361.011 93.1484C361.011 91.6055 360.703 90.3994 360.088 89.5303C359.473 88.6611 358.638 88.2266 357.583 88.2266C356.528 88.2266 355.688 88.6611 355.063 89.5303C354.448 90.3994 354.141 91.6055 354.141 93.1484C354.141 94.7109 354.448 95.9219 355.063 96.7812C355.679 97.6406 356.519 98.0703 357.583 98.0703ZM375.293 101.337C372.744 101.337 370.781 100.546 369.404 98.9639C368.037 97.3721 367.354 95.0527 367.354 92.0059C367.354 89.0957 367.686 86.7275 368.35 84.9014C369.023 83.0752 369.99 81.7471 371.25 80.917C372.51 80.0869 374.116 79.6426 376.069 79.584L377.9 79.54C378.818 79.5107 379.673 79.4277 380.464 79.291C381.265 79.1543 381.787 79.0225 382.031 78.8955V82.2061C381.895 82.333 381.46 82.4697 380.728 82.6162C379.995 82.7627 379.141 82.8506 378.164 82.8799L376.436 82.9385C374.541 82.9971 373.169 83.4902 372.319 84.418C371.47 85.3359 370.913 86.8252 370.649 88.8857H370.767C371.782 86.9131 373.55 85.9268 376.069 85.9268C378.188 85.9268 379.883 86.6006 381.152 87.9482C382.422 89.2861 383.057 91.0928 383.057 93.3682C383.057 95.8389 382.358 97.7871 380.962 99.2129C379.575 100.629 377.686 101.337 375.293 101.337ZM375.22 97.9678C376.313 97.9678 377.163 97.5771 377.769 96.7959C378.374 96.0146 378.677 94.9062 378.677 93.4707C378.677 92.0938 378.369 91.0244 377.754 90.2627C377.148 89.4912 376.304 89.1055 375.22 89.1055C374.126 89.1055 373.271 89.4912 372.656 90.2627C372.041 91.0244 371.733 92.0938 371.733 93.4707C371.733 94.9062 372.036 96.0146 372.642 96.7959C373.257 97.5771 374.116 97.9678 375.22 97.9678ZM400.503 101V85.2969H404.766V101H400.503ZM392.183 92.9873H389.824V97.8066H392.183C392.954 97.8066 393.569 97.5869 394.028 97.1475C394.497 96.6982 394.731 96.1123 394.731 95.3896C394.731 94.667 394.497 94.0859 394.028 93.6465C393.569 93.207 392.954 92.9873 392.183 92.9873ZM385.562 101V85.2969H389.824V89.8379H392.886C394.741 89.8379 396.216 90.3408 397.31 91.3467C398.413 92.3525 398.965 93.71 398.965 95.4189C398.965 97.1279 398.413 98.4854 397.31 99.4912C396.216 100.497 394.741 101 392.886 101H385.562ZM11.6895 137V124.52H5.80078V137H1.53809V121.297H15.9521V137H11.6895ZM31.9189 135.169C30.5225 136.614 28.6279 137.337 26.2354 137.337C23.8428 137.337 21.9482 136.609 20.5518 135.154C19.1553 133.699 18.457 131.692 18.457 129.134C18.457 126.604 19.1602 124.612 20.5664 123.157C21.9824 121.692 23.8721 120.96 26.2354 120.96C28.6084 120.96 30.498 121.692 31.9043 123.157C33.3105 124.612 34.0137 126.604 34.0137 129.134C34.0137 131.702 33.3154 133.714 31.9189 135.169ZM26.2354 134.07C27.29 134.07 28.125 133.641 28.7402 132.781C29.3555 131.922 29.6631 130.711 29.6631 129.148C29.6631 127.605 29.3555 126.399 28.7402 125.53C28.125 124.661 27.29 124.227 26.2354 124.227C25.1807 124.227 24.3408 124.661 23.7158 125.53C23.1006 126.399 22.793 127.605 22.793 129.148C22.793 130.711 23.1006 131.922 23.7158 132.781C24.3311 133.641 25.1709 134.07 26.2354 134.07ZM41.6895 129.471C41.6211 130.691 41.4795 131.756 41.2646 132.664C41.0498 133.562 40.7373 134.363 40.3271 135.066C39.917 135.77 39.3701 136.302 38.6865 136.663C38.0127 137.015 37.2021 137.19 36.2549 137.19C35.6885 137.19 35.2344 137.122 34.8926 136.985V133.382C35.166 133.45 35.4736 133.484 35.8154 133.484C36.5088 133.484 37.0068 133.113 37.3096 132.371C37.6221 131.629 37.8174 130.569 37.8955 129.192L38.335 121.297H50.2441V137H45.9814V124.52H41.9971L41.6895 129.471ZM55.3418 142.815C54.4043 142.815 53.8672 142.801 53.7305 142.771V139.476C53.8184 139.495 54.1748 139.505 54.7998 139.505C55.5908 139.505 56.1914 139.368 56.6016 139.095C57.0117 138.831 57.29 138.387 57.4365 137.762C57.4365 137.752 57.4609 137.63 57.5098 137.396C57.5586 137.161 57.5781 137.034 57.5684 137.015L52.1045 121.297H56.8066L60.1465 133.572H60.2197L63.5596 121.297H68.0713L62.666 137.352C61.9922 139.363 61.1035 140.774 60 141.585C58.9062 142.405 57.3535 142.815 55.3418 142.815ZM83.833 137H79.5703V130.467H79.4092C78.4424 131.512 77.0996 132.034 75.3809 132.034C73.5938 132.034 72.1875 131.517 71.1621 130.481C70.1367 129.437 69.624 128.021 69.624 126.233V121.297H73.8867V125.618C73.8867 126.517 74.126 127.22 74.6045 127.728C75.0928 128.235 75.7666 128.489 76.626 128.489C77.9541 128.489 78.9355 128.074 79.5703 127.244V121.297H83.833V137ZM91.0986 137H86.9092V121.297H91.0986V131.111H91.2158L97.4561 121.297H101.646V137H97.4561V127.068H97.3389L91.0986 137ZM117.451 121.297V124.52H112.778V137H108.516V124.52H103.828V121.297H117.451ZM126.255 128.987H123.896V133.807H126.255C127.026 133.807 127.642 133.587 128.101 133.147C128.569 132.698 128.804 132.112 128.804 131.39C128.804 130.667 128.569 130.086 128.101 129.646C127.642 129.207 127.026 128.987 126.255 128.987ZM119.634 137V121.297H123.896V125.838H126.958C128.813 125.838 130.288 126.341 131.382 127.347C132.485 128.353 133.037 129.71 133.037 131.419C133.037 133.128 132.485 134.485 131.382 135.491C130.288 136.497 128.813 137 126.958 137H119.634ZM151.523 137V124.52H145.635V137H141.372V121.297H155.786V137H151.523ZM168.032 121.048C170.024 121.048 171.592 121.766 172.734 123.201C173.887 124.637 174.463 126.619 174.463 129.148C174.463 131.668 173.896 133.65 172.764 135.096C171.631 136.531 170.078 137.249 168.105 137.249C166.982 137.249 165.991 136.995 165.132 136.487C164.282 135.97 163.647 135.262 163.228 134.363H163.14V142.127H158.862V121.297H163.081V124.036H163.169C163.599 123.099 164.233 122.366 165.073 121.839C165.923 121.312 166.909 121.048 168.032 121.048ZM166.597 133.807C167.661 133.807 168.506 133.387 169.131 132.547C169.766 131.707 170.083 130.574 170.083 129.148C170.083 127.723 169.766 126.59 169.131 125.75C168.506 124.9 167.661 124.476 166.597 124.476C165.552 124.476 164.712 124.905 164.077 125.765C163.442 126.614 163.125 127.742 163.125 129.148C163.125 130.564 163.438 131.697 164.062 132.547C164.697 133.387 165.542 133.807 166.597 133.807ZM181.187 137H176.997V121.297H181.187V131.111H181.304L187.544 121.297H191.733V137H187.544V127.068H187.427L181.187 137ZM205.752 124.52H199.072V137H194.81V121.297H205.752V124.52ZM212.549 129.471C212.48 130.691 212.339 131.756 212.124 132.664C211.909 133.562 211.597 134.363 211.187 135.066C210.776 135.77 210.229 136.302 209.546 136.663C208.872 137.015 208.062 137.19 207.114 137.19C206.548 137.19 206.094 137.122 205.752 136.985V133.382C206.025 133.45 206.333 133.484 206.675 133.484C207.368 133.484 207.866 133.113 208.169 132.371C208.481 131.629 208.677 130.569 208.755 129.192L209.194 121.297H221.104V137H216.841V124.52H212.856L212.549 129.471ZM230.259 134.158C231.206 134.158 232.007 133.885 232.661 133.338C233.325 132.781 233.657 132.083 233.657 131.243V130.101L230.347 130.306C229.546 130.364 228.926 130.564 228.486 130.906C228.057 131.248 227.842 131.697 227.842 132.254C227.842 132.84 228.062 133.304 228.501 133.646C228.94 133.987 229.526 134.158 230.259 134.158ZM228.853 137.249C227.339 137.249 226.084 136.805 225.088 135.916C224.092 135.027 223.594 133.885 223.594 132.488C223.594 131.062 224.121 129.944 225.176 129.134C226.23 128.323 227.739 127.859 229.702 127.742L233.657 127.508V126.468C233.657 125.745 233.418 125.179 232.939 124.769C232.471 124.358 231.831 124.153 231.021 124.153C230.239 124.153 229.6 124.329 229.102 124.681C228.613 125.032 228.315 125.506 228.208 126.102H224.297C224.375 124.559 225.034 123.318 226.274 122.381C227.515 121.434 229.16 120.96 231.211 120.96C233.223 120.96 234.834 121.438 236.045 122.396C237.256 123.353 237.861 124.622 237.861 126.204V137H233.73V134.598H233.643C233.213 135.418 232.559 136.067 231.68 136.546C230.801 137.015 229.858 137.249 228.853 137.249ZM240.894 137V121.297H245.156V133.763H249.536V121.297H253.799V133.763H258.179V121.297H262.441V137H240.894ZM272.549 124.124C271.621 124.124 270.845 124.441 270.22 125.076C269.604 125.711 269.258 126.521 269.18 127.508H275.845C275.796 126.502 275.469 125.687 274.863 125.062C274.268 124.437 273.496 124.124 272.549 124.124ZM275.903 132.195H279.829C279.595 133.738 278.823 134.983 277.515 135.931C276.216 136.868 274.6 137.337 272.666 137.337C270.254 137.337 268.359 136.614 266.982 135.169C265.615 133.724 264.932 131.741 264.932 129.222C264.932 126.712 265.615 124.71 266.982 123.216C268.35 121.712 270.19 120.96 272.505 120.96C274.78 120.96 276.592 121.673 277.939 123.099C279.287 124.524 279.961 126.434 279.961 128.826V130.13H269.136V130.394C269.136 131.517 269.463 132.43 270.117 133.133C270.781 133.826 271.655 134.173 272.739 134.173C273.521 134.173 274.194 133.997 274.761 133.646C275.327 133.284 275.708 132.801 275.903 132.195ZM292.734 137V130.569H286.699V137H282.437V121.297H286.699V127.332H292.734V121.297H296.997V137H292.734ZM304.263 137H300.073V121.297H304.263V131.111H304.38L310.62 121.297H314.81V137H310.62V127.068H310.503L304.263 137ZM324.932 124.124C324.004 124.124 323.228 124.441 322.603 125.076C321.987 125.711 321.641 126.521 321.562 127.508H328.228C328.179 126.502 327.852 125.687 327.246 125.062C326.65 124.437 325.879 124.124 324.932 124.124ZM328.286 132.195H332.212C331.978 133.738 331.206 134.983 329.897 135.931C328.599 136.868 326.982 137.337 325.049 137.337C322.637 137.337 320.742 136.614 319.365 135.169C317.998 133.724 317.314 131.741 317.314 129.222C317.314 126.712 317.998 124.71 319.365 123.216C320.732 121.712 322.573 120.96 324.888 120.96C327.163 120.96 328.975 121.673 330.322 123.099C331.67 124.524 332.344 126.434 332.344 128.826V130.13H321.519V130.394C321.519 131.517 321.846 132.43 322.5 133.133C323.164 133.826 324.038 134.173 325.122 134.173C325.903 134.173 326.577 133.997 327.144 133.646C327.71 133.284 328.091 132.801 328.286 132.195Z" fill="#201E20"/>
</svg>
