<svg width="80" height="17" viewBox="0 0 80 17" fill="none" xmlns="http://www.w3.org/2000/svg">
<path d="M0.606445 9.4668H2.54883C2.61914 10.0938 2.93262 10.5977 3.48926 10.9785C4.0459 11.3594 4.74316 11.5498 5.58105 11.5498C6.37793 11.5498 7.03418 11.3652 7.5498 10.9961C8.07129 10.627 8.33203 10.1582 8.33203 9.58984C8.33203 9.09766 8.14746 8.69629 7.77832 8.38574C7.40918 8.06934 6.81445 7.81152 5.99414 7.6123L4.35059 7.2168C3.18457 6.93555 2.32324 6.5166 1.7666 5.95996C1.21582 5.40332 0.94043 4.68262 0.94043 3.79785C0.94043 2.70801 1.36816 1.82031 2.22363 1.13477C3.08496 0.449219 4.19531 0.106445 5.55469 0.106445C6.89062 0.106445 7.98047 0.449219 8.82422 1.13477C9.66797 1.81445 10.1045 2.70215 10.1338 3.79785H8.21777C8.15918 3.1709 7.88672 2.67578 7.40039 2.3125C6.91992 1.94922 6.2959 1.76758 5.52832 1.76758C4.7666 1.76758 4.14551 1.94336 3.66504 2.29492C3.19043 2.64648 2.95312 3.10352 2.95312 3.66602C2.95312 4.11133 3.13184 4.47754 3.48926 4.76465C3.84668 5.0459 4.43555 5.28906 5.25586 5.49414L6.65332 5.83691C7.9541 6.1416 8.8916 6.57227 9.46582 7.12891C10.0459 7.67969 10.3359 8.4209 10.3359 9.35254C10.3359 10.5361 9.89648 11.4766 9.01758 12.1738C8.13867 12.8652 6.94629 13.2109 5.44043 13.2109C4.02832 13.2109 2.88281 12.874 2.00391 12.2002C1.13086 11.5205 0.665039 10.6094 0.606445 9.4668ZM16.6904 3.60449C17.8682 3.60449 18.8115 4.03516 19.5205 4.89648C20.2295 5.75781 20.584 6.91797 20.584 8.37695C20.584 9.83594 20.2324 10.999 19.5293 11.8662C18.8262 12.7275 17.8916 13.1582 16.7256 13.1582C16.0693 13.1582 15.4863 13.0088 14.9766 12.71C14.4727 12.4111 14.0859 12.001 13.8164 11.4795H13.7725V16.0586H11.874V3.75391H13.7109V5.34473H13.7461C14.0215 4.80566 14.417 4.38086 14.9326 4.07031C15.4482 3.75977 16.0342 3.60449 16.6904 3.60449ZM16.1895 11.5498C16.9395 11.5498 17.5342 11.2656 17.9736 10.6973C18.4131 10.123 18.6328 9.34961 18.6328 8.37695C18.6328 7.41016 18.4131 6.63965 17.9736 6.06543C17.5342 5.49121 16.9395 5.2041 16.1895 5.2041C15.4629 5.2041 14.877 5.49414 14.4316 6.07422C13.9863 6.6543 13.7637 7.42188 13.7637 8.37695C13.7637 9.33789 13.9834 10.1084 14.4229 10.6885C14.8682 11.2627 15.457 11.5498 16.1895 11.5498ZM29.2148 11.8926C28.418 12.748 27.3545 13.1758 26.0244 13.1758C24.6943 13.1758 23.6309 12.748 22.834 11.8926C22.0371 11.0312 21.6387 9.85938 21.6387 8.37695C21.6387 6.90039 22.0371 5.73438 22.834 4.87891C23.6309 4.01758 24.6943 3.58691 26.0244 3.58691C27.3545 3.58691 28.418 4.01758 29.2148 4.87891C30.0117 5.73438 30.4102 6.90039 30.4102 8.37695C30.4102 9.85938 30.0117 11.0312 29.2148 11.8926ZM26.0244 11.6113C26.7803 11.6113 27.3779 11.3271 27.8174 10.7588C28.2568 10.1904 28.4766 9.39648 28.4766 8.37695C28.4766 7.36328 28.2539 6.57227 27.8086 6.00391C27.3691 5.43555 26.7744 5.15137 26.0244 5.15137C25.2744 5.15137 24.6768 5.43555 24.2314 6.00391C23.792 6.57227 23.5723 7.36328 23.5723 8.37695C23.5723 9.39648 23.792 10.1904 24.2314 10.7588C24.6768 11.3271 25.2744 11.6113 26.0244 11.6113ZM31.8779 13V3.75391H33.6885V5.32715H33.7324C33.8848 4.78809 34.1572 4.36621 34.5498 4.06152C34.9424 3.75684 35.4111 3.60449 35.9561 3.60449C36.1377 3.60449 36.3545 3.62793 36.6064 3.6748V5.44141C36.4365 5.37109 36.1523 5.33594 35.7539 5.33594C35.1445 5.33594 34.6611 5.52637 34.3037 5.90723C33.9521 6.28809 33.7764 6.80664 33.7764 7.46289V13H31.8779ZM38.3379 1.56543H40.2451V3.75391H42.0029V5.25684H40.2451V10.3545C40.2451 10.7529 40.3359 11.0459 40.5176 11.2334C40.6992 11.4209 40.9834 11.5146 41.3701 11.5146C41.6514 11.5146 41.8594 11.5 41.9941 11.4707V12.9736C41.7598 13.0322 41.4082 13.0615 40.9395 13.0615C40.0078 13.0615 39.3398 12.8711 38.9355 12.4902C38.5371 12.1035 38.3379 11.4619 38.3379 10.5654V5.25684H36.9932V3.75391H38.3379V1.56543Z" fill="white"/>
<path d="M54.7031 13H52.0488V7.65625H46.3359V13H43.6816V0.317383H46.3359V5.46777H52.0488V0.317383H54.7031V13ZM59.4668 0.317383V8.25391C59.4668 9.08008 59.6982 9.73633 60.1611 10.2227C60.6299 10.7031 61.2861 10.9434 62.1299 10.9434C62.9678 10.9434 63.6182 10.7031 64.0811 10.2227C64.5498 9.73633 64.7842 9.08008 64.7842 8.25391V0.317383H67.4385V8.51758C67.4385 9.92383 66.9551 11.0605 65.9883 11.9277C65.0273 12.7891 63.7412 13.2197 62.1299 13.2197C60.5127 13.2197 59.2207 12.7891 58.2539 11.9277C57.293 11.0605 56.8125 9.92383 56.8125 8.51758V0.317383H59.4668ZM75.1729 13H69.5566V0.317383H75.0762C76.2656 0.317383 77.209 0.601562 77.9062 1.16992C78.6035 1.73828 78.9521 2.50879 78.9521 3.48145C78.9521 4.17285 78.7236 4.7793 78.2666 5.30078C77.8154 5.82227 77.25 6.13281 76.5703 6.23242V6.30273C77.4375 6.36719 78.1523 6.68652 78.7148 7.26074C79.2773 7.83496 79.5586 8.53809 79.5586 9.37012C79.5586 10.4893 79.166 11.374 78.3809 12.0244C77.5957 12.6748 76.5264 13 75.1729 13ZM72.2109 2.29492V5.59082H74.1182C74.8271 5.59082 75.375 5.44434 75.7617 5.15137C76.1484 4.85254 76.3418 4.43359 76.3418 3.89453C76.3418 3.38477 76.1719 2.99219 75.832 2.7168C75.4922 2.43555 75.0117 2.29492 74.3906 2.29492H72.2109ZM72.2109 11.0225H74.4961C75.2637 11.0225 75.8467 10.8643 76.2451 10.5479C76.6494 10.2256 76.8516 9.7627 76.8516 9.15918C76.8516 8.56738 76.6436 8.11621 76.2275 7.80566C75.8174 7.49512 75.2197 7.33984 74.4346 7.33984H72.2109V11.0225Z" fill="#EE7E28"/>
</svg>
